<?xml version="1.0" encoding="utf-8"?>
<!-- Generator: Adobe Illustrator 21.0.2, SVG Export Plug-In . SVG Version: 6.00 Build 0)  -->
<!DOCTYPE svg PUBLIC "-//W3C//DTD SVG 1.1//EN" "http://www.w3.org/Graphics/SVG/1.1/DTD/svg11.dtd" [
	<!ENTITY st0 "fill:#5E39BA;">
	<!ENTITY st1 "fill:#FFFFFF;">
]>
<svg version="1.1" id="Слой_1" xmlns="http://www.w3.org/2000/svg" xmlns:xlink="http://www.w3.org/1999/xlink" x="0px" y="0px"
	 width="30px" height="43px" viewBox="0 0 30 43" style="enable-background:new 0 0 30 43;" xml:space="preserve">
<g>
	<path style="&st0;" d="M28.5,21.5L28.5,21.5c-0.1,0.1-0.1,0.2-0.1,0.2L28.5,21.5z"/>
	<path style="&st0;" d="M28.5,21.5c0,0.1-0.1,0.2-0.1,0.3L28.5,21.5L28.5,21.5L28.5,21.5z"/>
</g>
<path style="&st1;" d="M27,15c0-6.6-5.4-12-12-12S3,8.4,3,15s5.4,12,12,12S27,21.6,27,15z"/>
<path style="&st0;" d="M15,0C6.7,0,0,6.7,0,15c0,3.7,1.3,7.1,3.5,9.7c0.1,0.1,0.2,0.2,0.3,0.4L15,43l11.4-18.3
	c0.2-0.2,0.4-0.4,0.5-0.6c0.6-0.7,1.1-1.5,1.5-2.3c0-0.1,0.1-0.2,0.1-0.3c1-2,1.5-4.2,1.5-6.5C30,6.7,23.3,0,15,0z M15,26.5
	C8.7,26.5,3.5,21.3,3.5,15S8.7,3.5,15,3.5S26.5,8.7,26.5,15S21.3,26.5,15,26.5z"/>
<g>
	<path d="M18.4,21.7l-1.1-3.4H12l-1.1,3.4H7.5l5.2-14.5h3.8l5.3,14.5H18.4z M16.6,15.8c-1-3.1-1.6-4.9-1.7-5.3
		c-0.1-0.4-0.2-0.7-0.3-1c-0.2,0.8-0.9,2.9-1.9,6.2h3.9V15.8z"/>
</g>
</svg>
