<?xml version="1.0" encoding="utf-8"?>
<!-- Generator: Adobe Illustrator 21.0.2, SVG Export Plug-In . SVG Version: 6.00 Build 0)  -->
<svg version="1.1" id="Layer_1" xmlns="http://www.w3.org/2000/svg" xmlns:xlink="http://www.w3.org/1999/xlink" x="0px" y="0px"
	 width="48px" height="48px" viewBox="0 0 48 48" enable-background="new 0 0 48 48" xml:space="preserve">
<g>
	<g>
		<path fill="#333333" d="M41.8,9.6c-0.5-0.5-1.3-0.5-1.9,0c-0.5,0.5-0.5,1.3,0,1.9c6.6,6.7,6.6,17.6,0,24.3c-0.5,0.5-0.5,1.3,0,1.9
			c0.7,0.7,1.6,0.2,1.9,0C49.4,29.9,49.4,17.3,41.8,9.6z"/>
	</g>
</g>
<g>
	<g>
		<path fill="#333333" d="M36.9,13.3c-0.5-0.5-1.3-0.5-1.9,0c-0.5,0.5-0.5,1.3,0,1.9c4.6,4.7,4.6,12.3,0,17c-0.5,0.5-0.5,1.3,0,1.9
			c0.8,0.8,1.6,0.2,1.9,0C42.5,28.3,42.5,19,36.9,13.3z"/>
	</g>
</g>
<g>
	<g>
		<path fill="#333333" d="M31.9,16.9c-0.5-0.5-1.3-0.5-1.9,0c-0.5,0.5-0.5,1.3,0,1.9c2.6,2.7,2.6,7,0,9.7c-0.5,0.5-0.5,1.3,0,1.9
			c0.6,0.6,1.6,0.2,1.9,0C35.6,26.6,35.6,20.6,31.9,16.9z"/>
	</g>
</g>
<g>
	<g>
		<path fill="#333333" d="M8.1,11.5c0.5-0.5,0.5-1.3,0-1.9c-0.5-0.5-1.3-0.5-1.9,0c-7.6,7.7-7.6,20.3,0,28c0.3,0.3,1.1,0.7,1.9,0
			c0.5-0.5,0.5-1.3,0-1.9C1.4,29.1,1.4,18.2,8.1,11.5z"/>
	</g>
</g>
<g>
	<g>
		<path fill="#333333" d="M13,15.1c0.5-0.5,0.5-1.3,0-1.9c-0.5-0.5-1.3-0.5-1.9,0c-5.7,5.7-5.7,15,0,20.7c0.3,0.3,1.1,0.8,1.9,0
			c0.5-0.5,0.5-1.3,0-1.9C8.4,27.4,8.4,19.8,13,15.1z"/>
	</g>
</g>
<g>
	<g>
		<path fill="#333333" d="M17.9,18.8c0.5-0.5,0.5-1.3,0-1.9c-0.5-0.5-1.3-0.5-1.9,0c-3.7,3.7-3.7,9.7,0,13.4c0.3,0.3,1.2,0.6,1.9,0
			c0.5-0.5,0.5-1.3,0-1.9C15.3,25.8,15.3,21.4,17.9,18.8z"/>
	</g>
</g>
<path fill="#333333" d="M24,19.4c-2.3,0-4.2,1.9-4.2,4.2s1.9,4.2,4.2,4.2c2.3,0,4.2-1.9,4.2-4.2S26.3,19.4,24,19.4z M24,25.3
	c-0.9,0-1.7-0.8-1.7-1.7c0-0.9,0.7-1.7,1.7-1.7c0.9,0,1.7,0.8,1.7,1.7C25.7,24.6,24.9,25.3,24,25.3z"/>
</svg>
