<?xml version="1.0" encoding="utf-8"?>
<!-- Generator: Adobe Illustrator 21.0.2, SVG Export Plug-In . SVG Version: 6.00 Build 0)  -->
<!DOCTYPE svg PUBLIC "-//W3C//DTD SVG 1.1//EN" "http://www.w3.org/Graphics/SVG/1.1/DTD/svg11.dtd" [
	<!ENTITY st0 "fill:#FFFFFF;">
]>
<svg version="1.1" id="RU_Download_on_the" xmlns="http://www.w3.org/2000/svg" xmlns:xlink="http://www.w3.org/1999/xlink" x="0px"
	 y="0px" width="135px" height="40px" viewBox="0 0 135 40" style="enable-background:new 0 0 135 40;" xml:space="preserve">
<path d="M130.2,40H4.7C2.1,40,0,37.9,0,35.3V4.7C0,2.1,2.1,0,4.7,0h125.5c2.6,0,4.8,2.1,4.8,4.7v30.5C135,37.9,132.8,40,130.2,40
	L130.2,40z"/>
<g>
	<g>
		<path style="&st0;" d="M30.1,19.8c0-3.2,2.6-4.8,2.8-4.9c-1.5-2.2-3.9-2.5-4.7-2.5c-2-0.2-3.9,1.2-4.9,1.2s-2.6-1.2-4.2-1.1
			c-2.1,0-4.1,1.3-5.2,3.2c-2.3,3.9-0.6,9.7,1.6,12.9c1.1,1.6,2.4,3.3,4,3.2c1.6-0.1,2.2-1,4.2-1c1.9,0,2.5,1,4.2,1s2.8-1.6,3.9-3.1
			c1.3-1.8,1.8-3.5,1.8-3.6C33.5,24.9,30.2,23.6,30.1,19.8z"/>
		<path style="&st0;" d="M26.9,10.3c0.9-1.1,1.5-2.6,1.3-4.1c-1.3,0.1-2.8,0.9-3.8,1.9c-0.8,0.9-1.5,2.5-1.3,3.9
			C24.6,12.2,26,11.4,26.9,10.3z"/>
	</g>
</g>
<g>
	<path style="&st0;" d="M53.6,31.5h-2.3l-1.2-3.9h-4.3l-1.2,3.9h-2.2l4.3-13.3h2.6L53.6,31.5z M49.8,26l-1.1-3.5
		c-0.1-0.4-0.3-1.2-0.7-2.5l0,0c-0.1,0.6-0.3,1.4-0.6,2.5L46.2,26H49.8z"/>
	<path style="&st0;" d="M64.7,26.6c0,1.6-0.4,2.9-1.3,3.9c-0.8,0.8-1.8,1.3-2.9,1.3c-1.3,0-2.2-0.5-2.7-1.4l0,0v5.1h-2.1V25.1
		c0-1,0-2.1-0.1-3.2h1.9l0.1,1.5l0,0c0.7-1.1,1.8-1.7,3.2-1.7c1.1,0,2.1,0.4,2.8,1.3C64.3,23.9,64.7,25.1,64.7,26.6z M62.5,26.7
		c0-0.9-0.2-1.7-0.6-2.3c-0.5-0.6-1.1-0.9-1.9-0.9c-0.5,0-1,0.2-1.4,0.5c-0.4,0.4-0.7,0.8-0.8,1.4c-0.1,0.3-0.1,0.5-0.1,0.6v1.6
		c0,0.7,0.2,1.3,0.6,1.8s1,0.7,1.7,0.7c0.8,0,1.4-0.3,1.9-0.9C62.3,28.5,62.5,27.7,62.5,26.7z"/>
	<path style="&st0;" d="M75.7,26.6c0,1.6-0.4,2.9-1.3,3.9c-0.8,0.8-1.8,1.3-2.9,1.3c-1.3,0-2.2-0.5-2.7-1.4l0,0v5.1h-2.1V25.1
		c0-1,0-2.1-0.1-3.2h1.9l0.1,1.5l0,0c0.7-1.1,1.8-1.7,3.2-1.7c1.1,0,2.1,0.4,2.8,1.3C75.3,23.9,75.7,25.1,75.7,26.6z M73.5,26.7
		c0-0.9-0.2-1.7-0.6-2.3c-0.5-0.6-1.1-0.9-1.9-0.9c-0.5,0-1,0.2-1.4,0.5c-0.4,0.4-0.7,0.8-0.8,1.4c-0.1,0.3-0.1,0.5-0.1,0.6v1.6
		c0,0.7,0.2,1.3,0.6,1.8s1,0.7,1.7,0.7c0.8,0,1.4-0.3,1.9-0.9C73.3,28.5,73.5,27.7,73.5,26.7z"/>
	<path style="&st0;" d="M88,27.8c0,1.1-0.4,2.1-1.2,2.8c-0.9,0.8-2.1,1.2-3.6,1.2c-1.4,0-2.6-0.3-3.4-0.8l0.5-1.8
		c0.9,0.6,2,0.9,3.1,0.9c0.8,0,1.4-0.2,1.9-0.5c0.4-0.4,0.7-0.8,0.7-1.5c0-0.5-0.2-1-0.6-1.4s-1-0.7-1.8-1c-2.3-0.9-3.5-2.1-3.5-3.8
		c0-1.1,0.4-2,1.2-2.7c0.8-0.7,1.9-1,3.3-1c1.2,0,2.2,0.2,3,0.6L87,20.4c-0.8-0.4-1.6-0.6-2.5-0.6c-0.8,0-1.3,0.2-1.8,0.6
		c-0.4,0.3-0.5,0.7-0.5,1.2s0.2,1,0.6,1.3s1,0.7,1.9,1c1.1,0.5,2,1,2.5,1.6C87.8,26.1,88,26.9,88,27.8z"/>
	<path style="&st0;" d="M95.1,23.5h-2.3v4.7c0,1.2,0.4,1.8,1.2,1.8c0.4,0,0.7,0,0.9-0.1l0.1,1.6c-0.4,0.2-1,0.2-1.7,0.2
		c-0.8,0-1.5-0.3-2-0.8s-0.7-1.4-0.7-2.6v-4.8h-1.4v-1.6h1.4v-1.8l2.1-0.6v2.4H95C95.1,21.9,95.1,23.5,95.1,23.5z"/>
	<path style="&st0;" d="M105.7,26.6c0,1.5-0.4,2.7-1.3,3.6c-0.9,1-2.1,1.5-3.5,1.5s-2.5-0.5-3.4-1.4s-1.3-2.1-1.3-3.5
		c0-1.5,0.4-2.7,1.3-3.7c0.9-0.9,2-1.4,3.5-1.4c1.4,0,2.5,0.5,3.4,1.4C105.3,24,105.7,25.2,105.7,26.6z M103.5,26.7
		c0-0.9-0.2-1.6-0.6-2.3c-0.4-0.8-1.1-1.1-1.9-1.1c-0.9,0-1.5,0.4-2,1.1c-0.4,0.6-0.6,1.4-0.6,2.3s0.2,1.6,0.6,2.3
		c0.5,0.8,1.1,1.1,1.9,1.1s1.5-0.4,1.9-1.2C103.3,28.3,103.5,27.6,103.5,26.7z"/>
	<path style="&st0;" d="M112.6,23.8c-0.2,0-0.4-0.1-0.7-0.1c-0.8,0-1.3,0.3-1.7,0.9c-0.4,0.5-0.5,1.1-0.5,1.9v5h-2.1v-6.6
		c0-1.1,0-2.1-0.1-3h1.9l0.1,1.8h0.1c0.2-0.6,0.6-1.1,1.1-1.5c0.5-0.3,1-0.5,1.5-0.5c0.2,0,0.4,0,0.5,0
		C112.6,21.8,112.6,23.8,112.6,23.8z"/>
	<path style="&st0;" d="M122.2,26.3c0,0.4,0,0.7-0.1,1h-6.4c0,0.9,0.3,1.7,0.9,2.2c0.5,0.4,1.2,0.7,2.1,0.7s1.8-0.2,2.6-0.5l0.3,1.5
		c-0.9,0.4-2,0.6-3.2,0.6c-1.5,0-2.7-0.4-3.5-1.3s-1.3-2-1.3-3.5c0-1.4,0.4-2.7,1.2-3.6c0.8-1,1.9-1.5,3.4-1.5
		c1.4,0,2.4,0.5,3.1,1.5C121.9,24,122.2,25.1,122.2,26.3z M120.1,25.7c0-0.6-0.1-1.2-0.4-1.6c-0.4-0.6-0.9-0.9-1.7-0.9
		c-0.7,0-1.3,0.3-1.7,0.9c-0.4,0.5-0.6,1-0.6,1.7L120.1,25.7L120.1,25.7z"/>
</g>
<g>
	<g>
		<path style="&st0;" d="M43.4,7.3C43.6,7.2,43.9,7,44.2,7c0.3-0.1,0.6-0.1,1-0.1c0.6,0,1.1,0.1,1.5,0.4s0.5,0.7,0.5,1.2
			c0,0.4-0.1,0.7-0.4,1S46.2,10,45.9,10l0,0c0.2,0,0.4,0.1,0.6,0.2c0.2,0.1,0.3,0.2,0.5,0.3c0.1,0.1,0.2,0.3,0.3,0.5
			s0.1,0.4,0.1,0.6c0,0.4-0.1,0.7-0.2,0.9s-0.3,0.4-0.6,0.6c-0.2,0.2-0.5,0.3-0.8,0.3s-0.6,0.1-0.9,0.1c-0.3,0-0.6,0-0.9-0.1
			s-0.6-0.2-0.8-0.3l0.3-0.8c0.2,0.1,0.4,0.2,0.7,0.2c0.3,0.1,0.5,0.1,0.8,0.1c0.4,0,0.8-0.1,1-0.3s0.4-0.5,0.4-0.8
			c0-0.2,0-0.4-0.1-0.6c-0.1-0.1-0.2-0.3-0.4-0.3c-0.2-0.1-0.3-0.1-0.5-0.2s-0.4,0-0.6,0h-0.4V9.6h0.4c0.2,0,0.4,0,0.6-0.1
			c0.2-0.1,0.3-0.1,0.4-0.2S46,9.1,46.1,9s0.1-0.3,0.1-0.4c0-0.3-0.1-0.5-0.3-0.7S45.4,7.6,45,7.6c-0.2,0-0.5,0-0.7,0.1
			S43.8,7.9,43.7,8L43.4,7.3z"/>
		<path style="&st0;" d="M51.8,13.4l-0.1-0.5l0,0c-0.3,0.4-0.8,0.6-1.4,0.6c-0.2,0-0.4,0-0.6-0.1s-0.3-0.2-0.5-0.3
			c-0.1-0.1-0.2-0.3-0.3-0.4c-0.1-0.2-0.1-0.4-0.1-0.6c0-0.6,0.2-1,0.7-1.3s1.2-0.4,2-0.4v-0.1c0-0.6-0.3-0.9-1-0.9
			c-0.5,0-0.9,0.1-1.2,0.3L49.2,9c0.4-0.3,1-0.4,1.6-0.4c1.2,0,1.8,0.6,1.8,1.9v1.7c0,0.5,0,0.9,0.1,1.1L51.8,13.4L51.8,13.4z
			 M51.6,11.1c-0.6,0-1,0.1-1.3,0.2c-0.3,0.1-0.4,0.4-0.4,0.7c0,0.2,0.1,0.4,0.2,0.6s0.3,0.2,0.5,0.2c0.1,0,0.3,0,0.4-0.1
			c0.1,0,0.2-0.1,0.3-0.2c0.1-0.1,0.2-0.2,0.2-0.3c0.1-0.1,0.1-0.2,0.1-0.4V11.1z"/>
		<path style="&st0;" d="M57.7,8.7v0.9h-2v3.9h-1V8.7H57.7z"/>
		<path style="&st0;" d="M63.7,11c0,0.4-0.1,0.7-0.2,1c-0.1,0.3-0.2,0.6-0.4,0.8s-0.4,0.4-0.7,0.5s-0.5,0.2-0.8,0.2
			c-0.6,0-1.1-0.2-1.3-0.7l0,0v2.5h-1v-5.1c0-0.3,0-0.5,0-0.8s0-0.5,0-0.8h0.9l0.1,0.7l0,0c0.3-0.6,0.9-0.8,1.6-0.8
			c0.3,0,0.5,0.1,0.8,0.2c0.2,0.1,0.4,0.3,0.6,0.5s0.3,0.5,0.4,0.8C63.6,10.3,63.7,10.7,63.7,11z M62.6,11.1c0-0.2,0-0.4-0.1-0.6
			s-0.1-0.4-0.2-0.5S62,9.7,61.9,9.6s-0.3-0.1-0.5-0.1c-0.1,0-0.3,0-0.4,0.1s-0.3,0.2-0.4,0.3c-0.1,0.1-0.2,0.2-0.3,0.4
			s-0.1,0.3-0.1,0.5v0.8c0,0.2,0,0.3,0.1,0.5c0.1,0.1,0.1,0.3,0.2,0.4s0.2,0.2,0.4,0.3c0.1,0.1,0.3,0.1,0.5,0.1
			c0.4,0,0.7-0.1,0.9-0.5S62.6,11.6,62.6,11.1z"/>
		<path style="&st0;" d="M69.3,8.7L68.1,12c-0.3,0.8-0.6,1.4-0.8,1.9c-0.3,0.5-0.5,0.9-0.8,1.1c-0.4,0.3-0.7,0.5-1.2,0.6L65,14.7
			c0.3-0.1,0.5-0.2,0.8-0.4c0.2-0.2,0.4-0.5,0.6-0.8c0.1-0.1,0.1-0.2,0.1-0.2s0-0.1-0.1-0.2l-1.7-4.3h1.2l0.9,2.6
			c0,0.1,0.1,0.3,0.1,0.4c0,0.2,0.1,0.3,0.1,0.5l0,0c0-0.1,0.1-0.2,0.1-0.4s0.1-0.3,0.2-0.5l0.8-2.6L69.3,8.7L69.3,8.7z"/>
		<path style="&st0;" d="M71.1,10.7h0.5c0.4,0,0.6-0.1,0.8-0.2s0.3-0.3,0.3-0.5s-0.1-0.3-0.2-0.5c-0.2-0.1-0.4-0.2-0.7-0.2
			c-0.2,0-0.4,0-0.6,0.1s-0.4,0.1-0.5,0.2L70.4,9c0.3-0.1,0.5-0.3,0.8-0.3c0.3-0.1,0.5-0.1,0.8-0.1c0.2,0,0.4,0,0.6,0.1
			c0.2,0,0.4,0.1,0.6,0.2s0.3,0.2,0.4,0.4s0.2,0.4,0.2,0.6c0,0.1,0,0.3-0.1,0.4c-0.1,0.1-0.1,0.2-0.2,0.3s-0.2,0.2-0.3,0.2
			c-0.1,0.1-0.2,0.1-0.4,0.1l0,0c0.2,0,0.3,0.1,0.5,0.1c0.1,0.1,0.3,0.1,0.4,0.2c0.1,0.1,0.2,0.2,0.3,0.3c0.1,0.1,0.1,0.3,0.1,0.5
			c0,0.3-0.1,0.5-0.2,0.7s-0.3,0.3-0.5,0.4c-0.2,0.1-0.4,0.2-0.7,0.2c-0.3,0-0.5,0.1-0.7,0.1c-0.3,0-0.6,0-0.9-0.1s-0.5-0.2-0.8-0.3
			l0.3-0.7c0.2,0.1,0.4,0.2,0.6,0.2s0.4,0.1,0.7,0.1c0.4,0,0.6-0.1,0.8-0.2c0.2-0.1,0.3-0.3,0.3-0.5c0-0.1,0-0.3-0.1-0.3
			s-0.2-0.2-0.3-0.2c-0.1-0.1-0.3-0.1-0.4-0.1c-0.2,0-0.3,0-0.5,0h-0.5v-0.6H71.1z"/>
		<path style="&st0;" d="M76.7,8.7v1.7c0,0.4,0,0.7,0,1s0,0.6,0,1l0,0c0.1-0.2,0.2-0.5,0.4-0.7c0.1-0.2,0.2-0.5,0.4-0.7l1.2-2.2h1.4
			v4.7h-1v-1.7c0-0.3,0-0.7,0-1c0-0.4,0-0.7,0.1-1.1l0,0c-0.1,0.3-0.2,0.5-0.3,0.8c-0.1,0.2-0.2,0.4-0.3,0.7
			c-0.2,0.4-0.4,0.8-0.6,1.2s-0.4,0.8-0.6,1.2H76V8.7H76.7z"/>
		<path style="&st0;" d="M85.4,8.7v0.9H84v3.9h-1V9.6h-1.4V8.7H85.4z"/>
		<path style="&st0;" d="M90.8,10.9c0,0.1,0,0.2,0,0.3s0,0.2,0,0.2h-3.1c0,0.4,0.2,0.8,0.4,1s0.6,0.4,1.1,0.4s0.9-0.1,1.3-0.2
			l0.2,0.7c-0.4,0.2-1,0.3-1.6,0.3c-0.4,0-0.7-0.1-1-0.2s-0.5-0.3-0.7-0.5s-0.4-0.5-0.5-0.7c-0.1-0.3-0.2-0.6-0.2-1s0.1-0.7,0.2-1
			s0.3-0.6,0.5-0.8s0.4-0.4,0.7-0.5c0.3-0.1,0.6-0.2,0.9-0.2s0.6,0.1,0.8,0.2C90,9,90.2,9.2,90.4,9.4s0.3,0.4,0.4,0.7
			C90.7,10.2,90.8,10.5,90.8,10.9z M89.8,10.6c0-0.4-0.1-0.7-0.3-0.9s-0.4-0.3-0.8-0.3c-0.3,0-0.6,0.1-0.8,0.3s-0.3,0.5-0.4,0.9
			H89.8z"/>
		<path style="&st0;" d="M95,8.8c0.2,0,0.4-0.1,0.7-0.1s0.6,0,0.9,0c0.2,0,0.4,0,0.7,0s0.5,0.1,0.7,0.2c0.2,0.1,0.4,0.2,0.6,0.4
			s0.2,0.4,0.2,0.7c0,0.1,0,0.3-0.1,0.4c-0.1,0.1-0.1,0.2-0.2,0.3s-0.2,0.2-0.3,0.2C98.1,11,98,11,97.8,11l0,0
			c0.3,0.1,0.6,0.2,0.8,0.4S99,11.7,99,12s-0.1,0.6-0.3,0.8c-0.2,0.2-0.4,0.3-0.7,0.4s-0.5,0.2-0.8,0.2s-0.6,0-0.8,0
			c-0.3,0-0.5,0-0.8,0s-0.5,0-0.6,0C95,13.4,95,8.8,95,8.8z M96,10.6h0.5c0.2,0,0.3,0,0.5,0c0.1,0,0.3-0.1,0.4-0.1s0.2-0.1,0.3-0.2
			c0.1-0.1,0.1-0.2,0.1-0.3c0-0.2-0.1-0.4-0.3-0.5c-0.2-0.1-0.5-0.1-0.8-0.1c-0.1,0-0.2,0-0.3,0c-0.1,0-0.2,0-0.3,0
			C96,9.4,96,10.6,96,10.6z M96,12.7c0.1,0,0.2,0,0.3,0c0.1,0,0.2,0,0.3,0c0.1,0,0.3,0,0.4,0s0.3-0.1,0.4-0.1
			c0.1-0.1,0.2-0.1,0.3-0.2c0.1-0.1,0.1-0.2,0.1-0.4c0-0.3-0.1-0.5-0.4-0.6c-0.2-0.1-0.6-0.2-1-0.2H96V12.7L96,12.7z"/>
	</g>
</g>
</svg>
