<?xml version="1.0" encoding="utf-8"?>
<!-- Generator: Adobe Illustrator 21.0.2, SVG Export Plug-In . SVG Version: 6.00 Build 0)  -->
<svg version="1.1" id="Слой_1" xmlns="http://www.w3.org/2000/svg" xmlns:xlink="http://www.w3.org/1999/xlink" x="0px" y="0px"
	 width="30px" height="43px" viewBox="0 0 30 43" style="enable-background:new 0 0 30 43;" xml:space="preserve">
<style type="text/css">
	.st0{fill:#5E39BA;}
	.st1{fill:#FFFFFF;}
	.st2{fill:#4594F4;}
	.st3{font-family:'MyriadPro-Regular';}
	.st4{font-size:12px;}
	.st5{letter-spacing:33;}
</style>
<g>
	<path class="st0" d="M28.5,21.5L28.5,21.5c-0.1,0.1-0.1,0.2-0.1,0.2L28.5,21.5z"/>
	<path class="st0" d="M28.5,21.5c0,0.1-0.1,0.2-0.1,0.3L28.5,21.5L28.5,21.5L28.5,21.5z"/>
</g>
<path class="st1" d="M27,15c0-6.6-5.4-12-12-12S3,8.4,3,15s5.4,12,12,12S27,21.6,27,15z"/>
<path class="st2" d="M15,0C6.7,0,0,6.7,0,15c0,3.7,1.3,7.1,3.5,9.7c0.1,0.1,0.2,0.2,0.3,0.4L15,43l11.4-18.3
	c0.2-0.2,0.4-0.4,0.5-0.6c0.6-0.7,1.1-1.5,1.5-2.3c0-0.1,0.1-0.2,0.1-0.3c1-2,1.5-4.2,1.5-6.5C30,6.7,23.3,0,15,0z M15,26.5
	C8.7,26.5,3.5,21.3,3.5,15S8.7,3.5,15,3.5S26.5,8.7,26.5,15S21.3,26.5,15,26.5z"/>
<text transform="matrix(1 0 0 1 -445 -81)"><tspan x="0" y="0" class="st3 st4">Б!-- ПутукфещкЖ Фвщиу Шддгыекфещк 21/0/2? ЫМП Учзщке Здгп-Шт  --Ю</tspan><tspan x="0" y="14.4" class="st3 st4">Бымп мукышщт=Э1ю1Э</tspan><tspan x="0" y="28.8" class="st3 st4 st5">	</tspan><tspan x="36" y="28.8" class="st3 st4"> чьдты=ЭреезЖ..цццюц3ющкп.2000.ымпЭ чьдтыЖчдштл=ЭреезЖ..цццюц3ющкп.1999.чдштлЭ чьдтыЖф=ЭреезЖ..тыюфвщиуюсщь.ФвщиуЫМПМшуцукУчеутышщты.3ю0.Э</tspan><tspan x="0" y="43.2" class="st3 st4 st5">	</tspan><tspan x="36" y="43.2" class="st3 st4"> ч=Э0зчЭ н=Э0зчЭ цшвер=Э24ю4зчЭ рушпре=Э19зчЭ мшуцИщч=Э0 0 24/4 19@ ыенду=ЭщмукадщцЖыскщдджутфиду-ифслпкщгтвЖтуц 0 0 24/4 19$@</tspan><tspan x="0" y="57.6" class="st3 st4 st5">	</tspan><tspan x="36" y="57.6" class="st3 st4"> чьдЖызфсу=ЭзкуыукмуЭЮ</tspan><tspan x="0" y="72" class="st3 st4">Быенду ензу=Эеуче.сыыЭЮ</tspan><tspan x="0" y="86.4" class="st3 st4 st5">	</tspan><tspan x="36" y="86.4" class="st3 st4">юые0ХашддЖ№4594А4жЪ</tspan><tspan x="0" y="100.8" class="st3 st4">Б.ыендуЮ</tspan><tspan x="0" y="115.2" class="st3 st4">БвуаыЮ</tspan><tspan x="0" y="129.6" class="st3 st4">Б.вуаыЮ</tspan><tspan x="0" y="144" class="st3 st4">БпЮ</tspan><tspan x="0" y="158.4" class="st3 st4 st5">	</tspan><tspan x="36" y="158.4" class="st3 st4">Бзфер сдфыы=Эые0Э в=ЭЬ8ю8б8ю7с1б0ю2б2ю1б0ю3б3ю1б0ю3с1ю1б0б2ю1-0ю1б3ю2-0ю3Д12б13ю5Д8ю8б8ю7яЭ.Ю</tspan><tspan x="0" y="172.8" class="st3 st4 st5">	</tspan><tspan x="36" y="172.8" class="st3 st4">Бзфер сдфыы=Эые0Э в=ЭЬ24ю4б0С21ю6б3ю6б17ю1б5ю9б12б5ю9с-4ю8б0-9ю1-2ю1-12-5ю4Д12б19Д24ю4б0Д24ю4б0яЭ.Ю</tspan><tspan x="0" y="187.2" class="st3 st4">Б.пЮ</tspan><tspan x="0" y="201.6" class="st3 st4">Б.ымпЮ</tspan></text>
<g>
	<path d="M13.1,12.9h1.2c1.9,0,3.4,0.4,4.5,1.1c1.1,0.8,1.6,1.8,1.6,3.2c0,3-2,4.5-6.1,4.5H9.9V7.4h9.4v2.5h-6.2V12.9z M13.1,19.2
		h1.1c1.1,0,1.8-0.2,2.3-0.5s0.7-0.8,0.7-1.5c0-0.7-0.3-1.1-0.8-1.4s-1.4-0.4-2.6-0.4h-0.8V19.2z"/>
</g>
</svg>
