<?xml version="1.0" encoding="utf-8"?>
<!-- Generator: Adobe Illustrator 21.0.2, SVG Export Plug-In . SVG Version: 6.00 Build 0)  -->
<svg version="1.1" id="Слой_1" xmlns="http://www.w3.org/2000/svg" xmlns:xlink="http://www.w3.org/1999/xlink" x="0px" y="0px"
	 width="48px" height="48px" viewBox="0 0 48 48" enable-background="new 0 0 48 48" xml:space="preserve">
<title>ico 48 sec-shield-diagonal</title>
<desc>Created with Sketch.</desc>
<g id="Stroke-246">
	<path id="path-1_1_" fill="#7846C3" d="M23.4,2.2c0.4-0.3,0.9-0.3,1.3,0C28.8,5.6,34.4,8,40,8c0.6,0,1,0.4,1,1v13.4
		c0,11.6-7.2,20-16.7,23.5c-0.2,0.1-0.5,0.1-0.7,0C14.2,42.5,7,34.1,7,22.4V9c0-0.6,0.4-1,1-1C13.6,8,19.2,5.6,23.4,2.2z M9,10v12.5
		C9,33,15.5,40.7,24,43.9c8.5-3.3,15-10.9,15-21.5V10c-5.5-0.3-10.8-2.5-15-5.7C19.8,7.4,14.5,9.7,9,10z M11,33.4
		c-0.4,0.4-1,0.4-1.4,0c-0.4-0.4-0.4-1,0-1.4L34,7.6c0.4-0.4,1-0.4,1.4,0c0.4,0.4,0.4,1,0,1.4L11,33.4z M16.1,40.3
		c-0.4,0.4-1,0.4-1.4,0c-0.4-0.4-0.4-1,0-1.4l24.6-24.6c0.4-0.4,1-0.4,1.4,0c0.4,0.4,0.4,1,0,1.4L16.1,40.3z"/>
</g>
</svg>
