<?xml version="1.0" encoding="UTF-8"?>
<svg width="16px" height="16px" viewBox="0 0 16 16" version="1.1" xmlns="http://www.w3.org/2000/svg" xmlns:xlink="http://www.w3.org/1999/xlink">
    <!-- Generator: Sketch 48.2 (47327) - http://www.bohemiancoding.com/sketch -->
    <title>ico 16 calendar</title>
    <desc>Created with Sketch.</desc>
    <defs>
        <path d="M0.979591837,5 L15.0204082,5 L15.0204082,3.75510204 C15.0204082,2.94348641 14.362636,2.28571429 13.5510204,2.28571429 L12.8979592,2.28571429 C12.6274524,2.28571429 12.4081633,2.06642518 12.4081633,1.79591837 C12.4081633,1.52541155 12.6274524,1.30612245 12.8979592,1.30612245 L13.5510204,1.30612245 C14.9036497,1.30612245 16,2.40247278 16,3.75510204 L16,13.5510204 C16,14.9036497 14.9036497,16 13.5510204,16 L2.44897959,16 C1.09635033,16 0,14.9036497 0,13.5510204 L0,3.75510204 C0,2.40247278 1.09635033,1.30612245 2.44897959,1.30612245 L3.10204082,1.30612245 C3.37254763,1.30612245 3.59183673,1.52541155 3.59183673,1.79591837 C3.59183673,2.06642518 3.37254763,2.28571429 3.10204082,2.28571429 L2.44897959,2.28571429 C1.63736396,2.28571429 0.979591837,2.94348641 0.979591837,3.75510204 L0.979591837,5 Z M0.979591837,6 L0.979591837,13.5510204 C0.979591837,14.362636 1.63736396,15.0204082 2.44897959,15.0204082 L13.5510204,15.0204082 C14.362636,15.0204082 15.0204082,14.362636 15.0204082,13.5510204 L15.0204082,6 L0.979591837,6 Z M5.52941176,2 C5.23702572,2 5,1.77614237 5,1.5 C5,1.22385763 5.23702572,1 5.52941176,1 L10.4705882,1 C10.7629743,1 11,1.22385763 11,1.5 C11,1.77614237 10.7629743,2 10.4705882,2 L5.52941176,2 Z M4.89795918,3.10204082 C4.89795918,3.37254763 4.67867008,3.59183673 4.40816327,3.59183673 C4.13765645,3.59183673 3.91836735,3.37254763 3.91836735,3.10204082 L3.91836735,0.489795918 C3.91836735,0.219289102 4.13765645,0 4.40816327,0 C4.67867008,0 4.89795918,0.219289102 4.89795918,0.489795918 L4.89795918,3.10204082 Z M12.0816327,3.10204082 C12.0816327,3.37254763 11.8623436,3.59183673 11.5918367,3.59183673 C11.3213299,3.59183673 11.1020408,3.37254763 11.1020408,3.10204082 L11.1020408,0.489795918 C11.1020408,0.219289102 11.3213299,0 11.5918367,0 C11.8623436,0 12.0816327,0.219289102 12.0816327,0.489795918 L12.0816327,3.10204082 Z" id="path-1"></path>
    </defs>
    <g id="mesto-icons" stroke="none" stroke-width="1" fill="none" fill-rule="evenodd" transform="translate(-768.000000, -260.000000)">
        <g id="grid" transform="translate(48.000000, 100.000000)" fill="#7846C3" opacity="0.049999997">
            <g id="v">
                <rect id="Rectangle-Copy-10" x="720" y="0" width="64" height="624"></rect>
            </g>
            <g id="h">
                <rect id="Rectangle-Copy-18" x="0" y="160" width="1264" height="64"></rect>
            </g>
        </g>
        <g id="ico-16-calendar" transform="translate(768.000000, 260.000000)">
            <mask id="mask-2" fill="white">
                <use xlink:href="#path-1"></use>
            </mask>
            <use id="Stroke-2961" fill="#000000" fill-rule="nonzero" xlink:href="#path-1"></use>
            <g id="colors/gray-50" mask="url(#mask-2)" fill="#333333">
                <rect id="Black-Color-Copy-3" x="0" y="0" width="16" height="16"></rect>
            </g>
        </g>
    </g>
</svg>