<?xml version="1.0" encoding="utf-8"?>
<!-- Generator: Adobe Illustrator 21.0.2, SVG Export Plug-In . SVG Version: 6.00 Build 0)  -->
<svg version="1.1" id="Capa_1" xmlns="http://www.w3.org/2000/svg" xmlns:xlink="http://www.w3.org/1999/xlink" x="0px" y="0px"
	 width="459px" height="459px" viewBox="0 0 459 459" enable-background="new 0 0 459 459" xml:space="preserve">
<g>
	<g id="time-to-leave">
		<path fill="#7846C3" d="M377.4,79.4c-4.3-12.9-17.1-21.4-30-21.4H111.6c-15,0-25.7,8.6-30,21.4l-45,128.6v171.5
			c0,12.9,8.6,21.4,21.4,21.4h21.4c12.9,0,21.4-8.6,21.4-21.4v-21.4h257.3v21.4c0,12.9,8.6,21.4,21.4,21.4H401
			c12.9,0,21.4-8.6,21.4-21.4V208.1L377.4,79.4z M111.6,293.8c-17.2,0-32.2-15-32.2-32.2s15-32.2,32.2-32.2s32.2,15,32.2,32.2
			S128.7,293.8,111.6,293.8z M347.4,293.8c-17.1,0-32.2-15-32.2-32.2s15-32.2,32.2-32.2s32.2,15,32.2,32.2S364.6,293.8,347.4,293.8z
			 M79.4,186.6l32.2-96.5h235.8l32.2,96.5H79.4z"/>
	</g>
</g>
</svg>
