<?xml version="1.0" encoding="UTF-8"?>
<svg width="16px" height="16px" viewBox="0 0 16 16" version="1.1" xmlns="http://www.w3.org/2000/svg" xmlns:xlink="http://www.w3.org/1999/xlink">
    <!-- Generator: Sketch 48.2 (47327) - http://www.bohemiancoding.com/sketch -->
    <title>ico 16 write comment</title>
    <desc>Created with Sketch.</desc>
    <defs>
        <path d="M11.9375,14 L11.9375,8.43554688 L12.8125,7.6015625 L12.8125,14 C12.8125,14.246095 12.7281909,14.4534497 12.5595703,14.6220703 C12.3909497,14.7906909 12.183595,14.875 11.9375,14.875 L1.875,14.875 C1.63801965,14.875 1.43294357,14.7906909 1.25976562,14.6220703 C1.08658768,14.4534497 1,14.246095 1,14 L1,3.0625 C1,2.82551965 1.08658768,2.62044357 1.25976562,2.44726562 C1.43294357,2.27408768 1.63801965,2.1875 1.875,2.1875 L8.88867188,2.1875 L8.91601562,2.21484375 L8.02734375,3.0625 L1.875,3.0625 L1.875,14 L11.9375,14 Z M14.3300781,1.43554688 C14.7766949,1.86393443 15.0091145,2.32421629 15.0273438,2.81640625 C15.0364584,3.29948158 14.8131533,3.77343518 14.3574219,4.23828125 C14.2298171,4.37500068 12.2200715,6.36195998 8.328125,10.1992188 C8.28255186,10.2447919 8.23242215,10.2766926 8.17773438,10.2949219 C7.28450074,10.5592461 6.24089139,10.8919251 5.046875,11.2929688 C5.01041648,11.3020834 4.97395852,11.3066406 4.9375,11.3066406 C4.83723908,11.3066406 4.75065141,11.2701827 4.67773438,11.1972656 C4.64127586,11.1699217 4.61393238,11.1357424 4.59570313,11.0947266 C4.57747387,11.0537107 4.56835938,11.0104169 4.56835938,10.9648438 C4.56835938,10.9192706 4.57291662,10.8736981 4.58203125,10.828125 C5.08333584,9.19660643 5.40234307,8.13476809 5.5390625,7.64257813 C5.5390625,7.62434887 5.54361975,7.60611988 5.55273438,7.58789062 C5.561849,7.56966137 5.57324212,7.55143238 5.58691406,7.53320312 C5.60058601,7.51497387 5.61653637,7.49674488 5.63476563,7.47851562 L11.6367188,1.49023438 C12.0468771,1.08007607 12.5117162,0.875 13.03125,0.875 C13.5052107,0.875 13.9381491,1.06184709 14.3300781,1.43554688 Z M13.7285156,3.62304688 C14.0110691,3.33137875 14.1523438,3.06705848 14.1523438,2.83007812 C14.1432291,2.59309777 14.0019545,2.34244924 13.7285156,2.078125 C13.5006499,1.85937391 13.2682304,1.75 13.03125,1.75 C12.7486965,1.75 12.4889335,1.8684884 12.2519531,2.10546875 C12.1061191,2.25130281 10.1373887,4.21547588 6.34570312,7.99804688 C6.24544221,8.36263203 6.03125164,9.08267691 5.703125,10.1582031 C6.14974182,10.0123691 6.56445121,9.8779303 6.94726562,9.75488281 C7.33008004,9.63183532 7.6126293,9.54296902 7.79492188,9.48828125 L8.06835938,9.22851562 C11.5957208,5.74672738 13.4824206,3.87825648 13.7285156,3.62304688 Z" id="path-1"></path>
    </defs>
    <g id="ico-16-write-comment" stroke="none" stroke-width="1" fill="none" fill-rule="evenodd">
        <mask id="mask-2" fill="white">
            <use xlink:href="#path-1"></use>
        </mask>
        <use id="add-comm" fill="#8F8C93" opacity="0.5" xlink:href="#path-1"></use>
        <g id="colors/brand-black" mask="url(#mask-2)" fill="#8F8C93">
            <rect id="Black-Color-Copy-3" x="0" y="0" width="16" height="16"></rect>
        </g>
    </g>
</svg>