<?xml version="1.0" encoding="utf-8"?>
<!-- Generator: Adobe Illustrator 21.0.2, SVG Export Plug-In . SVG Version: 6.00 Build 0)  -->
<svg version="1.1" id="Слой_1" xmlns="http://www.w3.org/2000/svg" xmlns:xlink="http://www.w3.org/1999/xlink" x="0px" y="0px"
	 width="16px" height="16px" viewBox="0 0 16 16" style="enable-background:new 0 0 16 16;" xml:space="preserve">
<style type="text/css">
	.st0{fill:#666666;}
</style>
<title>ico 16 write</title>
<desc>Created with Sketch.</desc>
<g>
	<path id="path-1" class="st0" d="M11.9,14V8.4l0.9-0.8V14c0,0.2-0.1,0.5-0.3,0.6s-0.4,0.3-0.6,0.3H1.9c-0.2,0-0.4-0.1-0.6-0.3
		S1,14.2,1,14V3.1c0-0.2,0.1-0.4,0.3-0.6s0.4-0.3,0.6-0.3h7l0,0L8,3.1H1.9V14H11.9z M14.3,1.4C14.8,1.9,15,2.3,15,2.8
		c0,0.5-0.2,1-0.7,1.4c-0.1,0.1-2.1,2.1-6,6c0,0-0.1,0.1-0.2,0.1c-0.9,0.3-1.9,0.6-3.1,1c0,0-0.1,0-0.1,0c-0.1,0-0.2,0-0.3-0.1
		c0,0-0.1-0.1-0.1-0.1s0-0.1,0-0.1s0-0.1,0-0.1c0.5-1.6,0.8-2.7,1-3.2c0,0,0,0,0-0.1s0,0,0-0.1s0,0,0-0.1l6-6
		C12,1.1,12.5,0.9,13,0.9C13.5,0.9,13.9,1.1,14.3,1.4z M13.7,3.6c0.3-0.3,0.4-0.6,0.4-0.8c0-0.2-0.2-0.5-0.4-0.8
		c-0.2-0.2-0.5-0.3-0.7-0.3c-0.3,0-0.5,0.1-0.8,0.4C12.1,2.3,10.1,4.2,6.3,8C6.2,8.4,6,9.1,5.7,10.2C6.1,10,6.6,9.9,6.9,9.8
		s0.7-0.2,0.8-0.3l0.3-0.3C11.6,5.7,13.5,3.9,13.7,3.6z"/>
</g>
</svg>
