<?xml version="1.0" encoding="utf-8"?>
<!-- Generator: Adobe Illustrator 21.0.2, SVG Export Plug-In . SVG Version: 6.00 Build 0)  -->
<svg version="1.1" id="Layer_1" xmlns="http://www.w3.org/2000/svg" xmlns:xlink="http://www.w3.org/1999/xlink" x="0px" y="0px"
	 width="200px" height="201px" viewBox="0 0 200 201" style="enable-background:new 0 0 200 201;" xml:space="preserve">
<style type="text/css">
	.st0{fill:#FFFFFF;}
</style>
<g transform="translate(1 1)">
	<g>
		<g>
			<path d="M188.6,159.6c-19.8-10.5-35.1-16.4-48.6-18.7l1.4-1.9c0.7-0.7,1-1.7,0.7-2.7l-3.1-12.6c8.1-11.6,12.8-26.2,12.5-40V64
				c0.2-0.2,0.4-0.3,0.7-0.5c4.3-3.7,6.7-9,6.7-14.3c0-24.9-20.3-45.2-44.9-45.2H84.1c-24.9,0-45.2,20.3-45.6,44.9
				c0,5.7,2.3,10.6,6.7,14.3c0.1,0.1,0.2,0.2,0.3,0.2v20.4c0,13.9,4.9,28.4,13.1,40.1l-3.1,12.5c0,0.7,0,1.7,0.7,2.7l1.4,1.9
				c-13.6,2.3-28.8,8.2-48.6,18.7c-6.3,3-10,9.3-10,16.3v14.3c0,2,1.3,3.3,3.3,3.3h192.9c2,0,3.3-1.3,3.3-3.3v-14.3
				C198.5,169.2,194.5,162.9,188.6,159.6z M133.7,130.3l1.3,6l-3.4,4.7c-0.2,0.2-0.4,0.4-0.6,0.7l-18.3,25.3l-9-20.3
				c9.7-1.2,18.4-5.6,25.7-12.2C130.9,133.2,132.3,131.8,133.7,130.3z M147.7,58.1c-0.1,0.1-0.2,0.1-0.3,0.2
				c-0.4,0.1-0.7,0.2-1.1,0.4c-1.4,1.1-3,1.8-4.6,2.1c-1.3,0.2-2.5,0.2-3.8-0.1c-23.9-4.5-48-4.9-71.1-1.3c-2.6,0.4-5.1,0.8-7.7,1.3
				c-0.4,0-0.8,0.1-1.2,0.1c-2.7,0-5.3-0.8-7.4-2.4c-2-1.3-3.3-3.3-4-5.3l14.3-2.7c24.9-4.7,50.5-4.7,76.2,0l14.2,2.6
				C150.5,55,149.2,56.8,147.7,58.1z M83.8,10.6h29.6c20.4,0,37.1,15.9,38.5,35.9L138,44.2c-26.3-4.7-52.9-4.7-78.5,0l-13.9,2.4
				C47,26.5,63.7,10.6,83.8,10.6z M52.2,66.8c2.7,0.7,5.7,1,8.6,0.3c12.4-2.3,25-3.5,37.7-3.5c12.7,0,25.4,1.2,38.2,3.5
				c0.9,0.2,1.7,0.3,2.4,0.3c2.1,0.2,4.3-0.2,6.3-0.7v17c0,14.5-5,27.4-12.4,37.2l-0.2,0.1c-0.3,0.3-0.7,0.7-1,1
				c-1.7,2.2-3.4,4.3-5.3,6.1c-8.3,7.7-18.2,12.2-27.6,12.2h0c-0.3,0-0.7,0-1,0c-5.6-0.2-11.4-2-16.8-5c-5.4-3.1-10.5-7.6-15-13.3
				c-0.3-0.3-0.7-0.7-1-1l-0.2-0.1c-7.5-9.8-12.4-22.7-12.4-37.2V66.8z M93.8,146.6l-9,20.3l-18.3-25.3c-0.1-0.1-0.2-0.2-0.3-0.3
				l-3.6-5l1.3-6c0.4,0.5,0.9,1,1.4,1.4C73,139.7,82.8,145.3,93.8,146.6z M191.9,186.8h-76.5H5.7v-11c0-4.3,2.3-8.3,6.3-10.3
				C33.2,154.3,48.4,148.7,62,147l20.8,28.6c0.5,0.8,1.3,1.2,2.2,1.3c0.2,0,0.3,0.1,0.5,0.1c0,0,0.3,0,0.3,0.3c1,0,2.3-1,2.7-2
				L98.8,152l4.4,9.7l5.9,13.3c0.3,1,1.3,2,2.7,2h0.3c1,0,2-0.7,2.7-1.3l21-28.9c13.5,2,29.1,7.7,49.8,18.6c4,2.3,6.3,6.3,6.3,10.6
				L191.9,186.8L191.9,186.8z"/>
			<path d="M92.1,37.2h13.3c2,0,3.3-1.3,3.3-3.3V17.2c0-2-1.3-3.3-3.3-3.3H92.1c-2,0-3.3,1.3-3.3,3.3v16.6
				C88.8,35.9,90.1,37.2,92.1,37.2z M95.4,20.6h6.7v10h-6.7V20.6z"/>
		</g>
	</g>
</g>
<g>
	<polygon class="st0" points="150.3,7 163.6,33.9 193.3,38.2 171.8,59.2 176.9,88.8 150.3,74.8 123.7,88.8 128.8,59.2 107.2,38.2 
		137,33.9 	"/>
	<path d="M181,94.5l-30.7-16.2l-30.7,16.2l5.9-34.2l-24.9-24.2l34.4-5l15.4-31.1l15.4,31.1l34.4,5l-24.9,24.2L181,94.5z M113.9,40.4
		l18.2,17.7l-4.3,25l22.5-11.8l22.5,11.8l-4.3-25l18.2-17.7l-25.1-3.6L150.3,14L139,36.8L113.9,40.4z"/>
</g>
<g>
	<path d="M141,51.1c2.1,0,3.8,0.6,5.1,1.7c1.2,1.1,1.9,2.7,1.9,4.6c0,2.3-0.7,4-2.1,5.3c-1.4,1.3-3.4,1.9-6,1.9
		c-2.4,0-4.2-0.4-5.6-1.1v-3.1c0.8,0.4,1.7,0.8,2.7,1c1,0.2,2,0.4,2.8,0.4c1.5,0,2.7-0.3,3.5-1c0.8-0.7,1.2-1.7,1.2-3
		c0-2.5-1.6-3.8-4.8-3.8c-0.5,0-1,0-1.7,0.1c-0.7,0.1-1.2,0.2-1.7,0.3l-1.5-0.9l0.8-10.3h11v3h-8l-0.5,5.2c0.3-0.1,0.7-0.1,1.2-0.2
		C139.7,51.1,140.3,51.1,141,51.1z"/>
	<path d="M148.8,62.4c0-0.7,0.2-1.2,0.5-1.6c0.4-0.4,0.9-0.6,1.6-0.6c0.7,0,1.2,0.2,1.6,0.6c0.4,0.4,0.5,0.9,0.5,1.6
		c0,0.7-0.2,1.2-0.6,1.6c-0.4,0.4-0.9,0.6-1.6,0.6c-0.7,0-1.2-0.2-1.6-0.6C149,63.7,148.8,63.1,148.8,62.4z"/>
	<path d="M168.1,53.7c0,3.7-0.6,6.4-1.8,8.2c-1.2,1.8-3,2.7-5.4,2.7c-2.4,0-4.1-0.9-5.4-2.8c-1.2-1.8-1.8-4.5-1.8-8.1
		c0-3.7,0.6-6.5,1.8-8.3c1.2-1.8,3-2.7,5.4-2.7c2.4,0,4.2,0.9,5.4,2.8C167.5,47.4,168.1,50.1,168.1,53.7z M157.2,53.7
		c0,2.9,0.3,4.9,0.9,6.2c0.6,1.2,1.5,1.9,2.8,1.9c1.3,0,2.3-0.6,2.9-1.9c0.6-1.3,0.9-3.3,0.9-6.1c0-2.8-0.3-4.9-0.9-6.2
		c-0.6-1.3-1.6-1.9-2.9-1.9c-1.3,0-2.2,0.6-2.8,1.9C157.5,48.7,157.2,50.8,157.2,53.7z"/>
</g>
</svg>
