<?xml version="1.0" encoding="utf-8"?>
<!-- Generator: Adobe Illustrator 21.0.2, SVG Export Plug-In . SVG Version: 6.00 Build 0)  -->
<svg version="1.1" id="Слой_1" xmlns="http://www.w3.org/2000/svg" xmlns:xlink="http://www.w3.org/1999/xlink" x="0px" y="0px"
	 width="48px" height="48px" viewBox="0 0 48 48" style="enable-background:new 0 0 48 48;" xml:space="preserve">
<style type="text/css">
	.st0{fill:#7846C3;}
</style>
<title>ico 48 db-settings</title>
<desc>Created with Sketch.</desc>
<g>
	<path id="path-1" class="st0" d="M38,35c0-1.7-1.3-3-3-3s-3,1.3-3,3s1.3,3,3,3S38,36.7,38,35z M40,35c0,2.8-2.2,5-5,5s-5-2.2-5-5
		s2.2-5,5-5S40,32.2,40,35z M30,40.7c0.3-0.3,0.9-0.4,1.3-0.1c0.7,0.5,1.5,0.8,2.4,1c0.5,0.1,0.8,0.5,0.8,1V44h1.1v-1.5
		c0-0.5,0.3-0.9,0.8-1c0.9-0.2,1.7-0.5,2.4-1c0.4-0.3,0.9-0.2,1.3,0.1l0.9,0.9l0.7-0.7L40.7,40c-0.3-0.3-0.4-0.9-0.1-1.3
		c0.5-0.7,0.8-1.5,1-2.4c0.1-0.5,0.5-0.8,1-0.8H44v-1.1h-1.5c-0.5,0-0.9-0.3-1-0.8c-0.2-0.9-0.5-1.7-1-2.4c-0.3-0.4-0.2-0.9,0.1-1.3
		l0.9-0.9l-0.7-0.7L40,29.3c-0.3,0.3-0.9,0.4-1.3,0.1c-0.7-0.5-1.5-0.8-2.4-1c-0.5-0.1-0.8-0.5-0.8-1V26h-1.1v1.5
		c0,0.5-0.3,0.9-0.8,1c-0.9,0.2-1.7,0.5-2.4,1c-0.4,0.3-0.9,0.2-1.3-0.1l-0.9-0.9l-0.7,0.7l0.9,0.9c0.3,0.3,0.4,0.9,0.1,1.3
		c-0.5,0.7-0.8,1.5-1,2.4c-0.1,0.5-0.5,0.8-1,0.8H26v1.1h1.5c0.5,0,0.9,0.3,1,0.8c0.2,0.9,0.5,1.7,1,2.4c0.3,0.4,0.2,0.9-0.1,1.3
		l-0.9,0.9l0.7,0.7L30,40.7z M30.4,43.2c-0.7,0.7-1.8,0.7-2.5,0l-1.1-1.1c-0.7-0.7-0.7-1.8,0-2.5l0.5-0.5c-0.3-0.5-0.5-1-0.7-1.6
		h-0.9c-1,0-1.8-0.8-1.8-1.8v-1.5c0-1,0.8-1.8,1.8-1.8h0.9c0.2-0.5,0.4-1.1,0.7-1.6l-0.5-0.5c-0.7-0.7-0.7-1.8,0-2.5l1.1-1.1
		c0.7-0.7,1.8-0.7,2.5,0l0.5,0.5c0.5-0.3,1-0.5,1.6-0.7v-0.9c0-1,0.8-1.8,1.8-1.8h1.5c1,0,1.8,0.8,1.8,1.8v0.9
		c0.5,0.2,1.1,0.4,1.6,0.7l0.5-0.5c0.7-0.7,1.8-0.7,2.5,0l1.1,1.1c0.7,0.7,0.7,1.8,0,2.5l-0.5,0.5c0.3,0.5,0.5,1,0.7,1.6h0.9
		c1,0,1.8,0.8,1.8,1.8v1.5c0,1-0.8,1.8-1.8,1.8h-0.9c-0.2,0.5-0.4,1.1-0.7,1.6l0.5,0.5c0.7,0.7,0.7,1.8,0,2.5l-1.1,1.1
		c-0.7,0.7-1.8,0.7-2.5,0l-0.5-0.5c-0.5,0.3-1,0.5-1.6,0.7v0.9c0,1-0.8,1.8-1.8,1.8h-1.5c-1,0-1.8-0.8-1.8-1.8v-0.9
		c-0.5-0.2-1.1-0.4-1.6-0.7L30.4,43.2z M30,7c0-0.5-1.1-1.3-3.2-1.9C24.3,4.4,20.9,4,17,4c-3.9,0-7.3,0.4-9.8,1.1C5.1,5.7,4,6.5,4,7
		c0,0.5,1.1,1.3,3.2,1.9C9.7,9.6,13.1,10,17,10c3.9,0,7.3-0.4,9.8-1.1C28.9,8.3,30,7.5,30,7z M32,7c0,3.2-6.4,5-15,5
		C8.4,12,2,10.2,2,7c0-3.2,6.4-5,15-5C25.6,2,32,3.8,32,7z M30,15c0-0.6,0.4-1,1-1s1,0.4,1,1c0,3.2-6.4,5-15,5c-8.6,0-15-1.8-15-5
		c0-0.6,0.4-1,1-1s1,0.4,1,1c0,0.5,1.1,1.3,3.2,1.9C9.7,17.6,13.1,18,17,18c3.9,0,7.3-0.4,9.8-1.1C28.9,16.3,30,15.5,30,15z
		 M24,25.5c0.5-0.1,1.1,0.3,1.1,0.8s-0.3,1.1-0.8,1.1C22.1,27.8,19.6,28,17,28c-8.6,0-15-1.8-15-5c0-0.6,0.4-1,1-1s1,0.4,1,1
		c0,0.5,1.1,1.3,3.2,1.9C9.7,25.6,13.1,26,17,26C19.5,26,21.9,25.8,24,25.5z M32,22.3c0,0.6-0.4,1-1,1s-1-0.4-1-1V7c0-0.6,0.4-1,1-1
		s1,0.4,1,1V22.3z M2,7c0-0.6,0.4-1,1-1s1,0.4,1,1v24c0,0.5,1.1,1.3,3.2,1.9C9.7,33.6,13.1,34,17,34c1.4,0,2.7,0,3.9-0.1
		c0.6,0,1,0.4,1.1,0.9s-0.4,1-0.9,1.1C19.8,35.9,18.4,36,17,36c-8.6,0-15-1.8-15-5V7z"/>
</g>
</svg>
