<?xml version="1.0" encoding="utf-8"?>
<!-- Generator: Adobe Illustrator 21.0.2, SVG Export Plug-In . SVG Version: 6.00 Build 0)  -->
<svg version="1.1"
	 id="svg3187" inkscape:version="0.47 r22583" sodipodi:docname="orange.svg" xmlns:cc="http://creativecommons.org/ns#" xmlns:dc="http://purl.org/dc/elements/1.1/" xmlns:inkscape="http://www.inkscape.org/namespaces/inkscape" xmlns:rdf="http://www.w3.org/1999/02/22-rdf-syntax-ns#" xmlns:sodipodi="http://sodipodi.sourceforge.net/DTD/sodipodi-0.dtd" xmlns:svg="http://www.w3.org/2000/svg"
	 xmlns="http://www.w3.org/2000/svg" xmlns:xlink="http://www.w3.org/1999/xlink" x="0px" y="0px" width="674px" height="116.7px"
	 viewBox="0 0 674 116.7" style="enable-background:new 0 0 674 116.7;" xml:space="preserve">
<style type="text/css">
	.st0{fill:url(#path3194_1_);}
	.st1{enable-background:new    ;}
	.st2{font-family:'ArialMT';}
	.st3{font-size:25.1173px;}
</style>
<g>
	
		<radialGradient id="path3194_1_" cx="-134.3574" cy="107.5225" r="48.9264" fx="-121.7987" fy="94.9639" gradientTransform="matrix(0.9495 0 0 -0.9495 493.8433 172.3065)" gradientUnits="userSpaceOnUse">
		<stop  offset="0" style="stop-color:#F0F0F0"/>
		<stop  offset="1" style="stop-color:#FF8330"/>
	</radialGradient>
	<path id="path3194" class="st0" d="M412.7,70.2c0,25.7-20.8,46.5-46.5,46.5c-25.7,0-46.5-20.8-46.5-46.5s20.8-46.5,46.5-46.5
		C391.9,23.8,412.7,44.6,412.7,70.2z"/>
	<g class="st1">
		<path d="M98.9,57.1c0,9.4-2.1,17.7-6.4,25.1c-4.3,7.4-9.7,13.1-16.2,17c-4.9,3-10.3,5-16.1,6.2c-5.8,1.2-12.8,1.8-20.8,1.8H4V6.7
			h36.4c8.2,0,15.2,0.7,21.2,2.1c5.9,1.4,10.9,3.3,15,5.8c6.9,4.2,12.4,9.9,16.4,17.1C96.9,38.9,98.9,47.3,98.9,57.1z M72.1,56.9
			c0-6.6-1.2-12.3-3.6-17c-2.4-4.7-6.2-8.4-11.4-11c-2.7-1.3-5.4-2.2-8.1-2.7s-6.9-0.7-12.5-0.7h-6.5v62.9h6.5
			c6.2,0,10.7-0.3,13.6-0.8c2.9-0.6,5.7-1.6,8.4-3.1c4.7-2.7,8.2-6.3,10.4-10.8C71,69.1,72.1,63.5,72.1,56.9z"/>
		<path d="M142.3,20.6h-25.7V2.2h25.7V20.6z M141.6,107.2h-24.4V31.4h24.4V107.2z"/>
		<path d="M230.3,83.2c0,7.8-3.5,14.1-10.5,18.9s-16.6,7.2-28.8,7.2c-6.7,0-12.9-0.6-18.3-1.9c-5.5-1.3-9.9-2.7-13.2-4.2v-20h2.2
			c1.2,0.9,2.6,1.8,4.2,2.8c1.6,1,3.9,2.1,6.8,3.3c2.5,1,5.4,1.9,8.6,2.7c3.2,0.7,6.6,1.1,10.3,1.1c4.8,0,8.3-0.5,10.6-1.6
			c2.3-1.1,3.4-2.6,3.4-4.7c0-1.8-0.7-3.2-2-4c-1.3-0.8-3.9-1.6-7.7-2.4c-1.8-0.4-4.2-0.8-7.3-1.3c-3.1-0.5-5.9-1-8.4-1.7
			c-6.9-1.8-12-4.6-15.3-8.4c-3.3-3.8-5-8.5-5-14.2c0-7.3,3.5-13.3,10.4-18.2c6.9-4.8,16.3-7.3,28.3-7.3c5.7,0,11.1,0.6,16.3,1.7
			c5.2,1.1,9.3,2.4,12.2,3.7v19.2h-2.1c-3.6-2.5-7.7-4.5-12.3-6c-4.6-1.6-9.3-2.3-14-2.3c-3.9,0-7.2,0.5-9.9,1.6
			c-2.7,1.1-4,2.6-4,4.6c0,1.8,0.6,3.2,1.8,4.1c1.2,0.9,4.1,1.9,8.6,2.8c2.5,0.5,5.1,1,8,1.5c2.9,0.5,5.7,1.1,8.6,1.8
			c6.4,1.7,11.1,4.3,14.2,7.9C228.8,73.3,230.3,77.8,230.3,83.2z"/>
		<path d="M285.9,109.2c-6.6,0-12.6-0.8-18.1-2.4c-5.5-1.6-10.2-4-14.3-7.3c-4-3.3-7.1-7.4-9.3-12.4c-2.2-5-3.3-10.8-3.3-17.5
			c0-7.1,1.2-13.2,3.5-18.3s5.7-9.4,9.9-12.7c4.1-3.2,8.8-5.5,14.2-7c5.4-1.5,10.9-2.2,16.7-2.2c5.2,0,9.9,0.6,14.3,1.7
			c4.4,1.1,8.4,2.6,12.2,4.4v20.7h-3.4c-0.9-0.8-2.1-1.8-3.4-2.8c-1.3-1.1-3-2.1-4.9-3.2c-1.8-1-3.9-1.8-6.1-2.5
			c-2.2-0.7-4.8-1-7.7-1c-6.5,0-11.4,2.1-14.9,6.2c-3.5,4.1-5.2,9.7-5.2,16.8c0,7.3,1.8,12.8,5.4,16.6s8.6,5.7,15.2,5.7
			c3.1,0,5.8-0.3,8.3-1c2.4-0.7,4.5-1.5,6.1-2.5c1.5-0.9,2.9-1.8,4-2.8s2.2-2,3.2-2.9h3.4v20.7c-3.8,1.8-7.8,3.2-12,4.3
			C295.6,108.7,291,109.2,285.9,109.2z"/>
	</g>
	<g class="st1">
		<path d="M496.7,31.5l-29.2,75.8H440l-29-75.8h25.6l17.6,52.1l17.4-52.1H496.7z"/>
		<path d="M584.8,73.9h-55.6c0.4,5.9,2.6,10.5,6.8,13.6c4.2,3.1,10.3,4.7,18.4,4.7c5.1,0,10.1-0.9,14.9-2.8
			c4.8-1.8,8.6-3.8,11.4-5.9h2.7V103c-5.5,2.2-10.7,3.8-15.5,4.8c-4.9,1-10.2,1.5-16.1,1.5c-15.2,0-26.8-3.4-34.9-10.3
			c-8.1-6.8-12.1-16.6-12.1-29.2c0-12.5,3.8-22.4,11.5-29.7c7.7-7.3,18.2-11,31.5-11c12.3,0,21.6,3.1,27.8,9.3
			c6.2,6.2,9.3,15.2,9.3,26.9V73.9z M560.7,59.6c-0.1-5.1-1.4-8.9-3.8-11.5c-2.4-2.6-6.1-3.8-11.1-3.8c-4.7,0-8.5,1.2-11.5,3.6
			c-3,2.4-4.7,6.3-5.1,11.7H560.7z"/>
		<path d="M656.8,54.6h-2.2c-1-0.4-2.7-0.6-5-0.8c-2.3-0.2-4.2-0.3-5.7-0.3c-3.5,0-6.5,0.2-9.2,0.7c-2.6,0.5-5.5,1.2-8.5,2.3v50.7
			h-24.4V31.5h24.4v11.1c5.3-4.6,10-7.6,13.9-9.1c3.9-1.5,7.6-2.3,10.9-2.3c0.9,0,1.8,0,2.9,0.1c1.1,0,2,0.1,2.8,0.2V54.6z"/>
	</g>
	<text transform="matrix(1 0 0 1 652.4639 29.2996)" class="st2 st3">®</text>
</g>
</svg>
