<?xml version="1.0" encoding="utf-8"?>
<!-- Generator: Adobe Illustrator 21.0.2, SVG Export Plug-In . SVG Version: 6.00 Build 0)  -->
<svg version="1.1" id="Capa_1" xmlns="http://www.w3.org/2000/svg" xmlns:xlink="http://www.w3.org/1999/xlink" x="0px" y="0px"
	 width="390.7px" height="390.7px" viewBox="0 0 390.7 390.7" enable-background="new 0 0 390.7 390.7" xml:space="preserve">
<g>
	<g>
		<path fill="#7846C3" d="M319.8,28c31.3,0,56.8,25.5,56.8,56.8c0,7.1-3.6,25.1-27.8,65.5c-11,18.4-22.5,35.1-29.1,44.4
			c-6.5-9.2-18-25.9-29.1-44.4C266.6,109.9,263,91.9,263,84.8C263,53.5,288.5,28,319.8,28 M319.8,14C280.8,14,249,45.8,249,84.8
			c0,36.3,57.8,116,64.4,124.9l2.4,3.3c0.9,1.3,2.4,2,4,2c1.6,0,3-0.8,4-2l2.4-3.3c6.6-9,64.4-88.7,64.4-124.9
			C390.7,45.8,358.9,14,319.8,14L319.8,14z"/>
	</g>
	<g>
		<path fill="#7846C3" d="M319.8,70.8c8.3,0,15.1,6.8,15.1,15.1c0,8.3-6.8,15.1-15.1,15.1c-8.3,0-15.1-6.8-15.1-15.1
			C304.8,77.5,311.5,70.8,319.8,70.8 M319.8,56.8c-16,0-29.1,13-29.1,29.1c0,16,13,29.1,29.1,29.1c16,0,29.1-13,29.1-29.1
			C348.9,69.8,335.9,56.8,319.8,56.8L319.8,56.8z"/>
	</g>
	<g>
		<path fill="#7846C3" d="M104.8,93.2L104.8,93.2c50.1,0,90.8,40.7,90.8,90.8c0,25.3-24.9,77.1-68.4,142l-8,11.9l-8.8,12.4
			c-2.3,3.3-4.2,5.9-5.6,7.8c-7.2-10-28.6-39.9-48.8-73.7C19.5,223.2,14,195.2,14,184C14,133.9,54.7,93.2,104.8,93.2 M104.8,79.2
			C47,79.2,0,126.2,0,184c0,53.6,85.6,171.6,95.3,184.8l3.6,4.9c1.4,1.9,3.6,3,5.9,3c2.3,0,4.5-1.1,5.9-3l3.6-4.9
			c1.3-1.8,4-5.4,7.6-10.5c1.8,2.3,4.5,3.5,7.2,3.5c1.9,0,3.9-0.6,5.5-1.8l19.7-14.7c4.1-3,4.9-8.8,1.9-12.9
			c-1.8-2.4-4.6-3.7-7.4-3.7c-1.9,0-3.9,0.6-5.5,1.8l-4.4,3.3c28.5-42.5,70.8-112,70.8-149.8C209.6,126.2,162.6,79.2,104.8,79.2
			L104.8,79.2z"/>
	</g>
	<g>
		<path fill="#7846C3" d="M104.8,156.9c16,0,29,13,29,29c0,7.7-3,15-8.5,20.5c-5.5,5.5-12.8,8.5-20.5,8.5c-16,0-29-13-29-29
			C75.8,169.9,88.8,156.9,104.8,156.9 M104.8,142.9c-23.7,0-43,19.3-43,43c0,23.7,19.3,43,43,43c23.7,0,43-19.3,43-43
			C147.8,162.2,128.5,142.9,104.8,142.9L104.8,142.9z"/>
	</g>
	<path fill="#7846C3" d="M199.8,288.1l-37.8,28.2c-4.1,3-4.9,8.8-1.9,12.9c1.8,2.4,4.6,3.7,7.4,3.7c1.9,0,3.9-0.6,5.5-1.8l37.8-28.2
		c4.1-3,4.9-8.8,1.9-12.9C209.7,285.9,203.9,285,199.8,288.1z"/>
	<path fill="#7846C3" d="M256.5,245.7L218.7,274c-4.1,3-4.9,8.8-1.9,12.9c1.8,2.4,4.6,3.7,7.4,3.7c1.9,0,3.9-0.6,5.5-1.8l37.8-28.2
		c4.1-3,4.9-8.8,1.9-12.9C266.4,243.5,260.6,242.7,256.5,245.7z"/>
	<path fill="#7846C3" d="M295.1,216.9l-19.7,14.7c-4.1,3-4.9,8.8-1.9,12.9c1.8,2.4,4.6,3.7,7.4,3.7c1.9,0,3.9-0.6,5.5-1.8l19.7-14.7
		c4.1-3,4.9-8.8,1.9-12.9C305,214.7,299.2,213.8,295.1,216.9z"/>
</g>
</svg>
