<?xml version="1.0" encoding="utf-8"?>
<!-- Generator: Adobe Illustrator 21.0.2, SVG Export Plug-In . SVG Version: 6.00 Build 0)  -->
<svg version="1.1" id="Слой_1" xmlns="http://www.w3.org/2000/svg" xmlns:xlink="http://www.w3.org/1999/xlink" x="0px" y="0px"
	 width="24px" height="24px" viewBox="0 0 24 24" style="enable-background:new 0 0 24 24;" xml:space="preserve">
<style type="text/css">
	.st0{fill:#999999;}
</style>
<title>ico 24 file doc</title>
<desc>Created with Sketch.</desc>
<g id="Stroke-235">
	<path id="path-1_1_" class="st0" d="M7,9C6.7,9,6.5,8.8,6.5,8.5S6.7,8,7,8h6c0.3,0,0.5,0.2,0.5,0.5S13.3,9,13,9H7z M7,11
		c-0.3,0-0.5-0.2-0.5-0.5S6.7,10,7,10h10c0.3,0,0.5,0.2,0.5,0.5S17.3,11,17,11H7z M7,13c-0.3,0-0.5-0.2-0.5-0.5S6.7,12,7,12h10
		c0.3,0,0.5,0.2,0.5,0.5S17.3,13,17,13H7z M7,15c-0.3,0-0.5-0.2-0.5-0.5S6.7,14,7,14h10c0.3,0,0.5,0.2,0.5,0.5S17.3,15,17,15H7z
		 M7,17c-0.3,0-0.5-0.2-0.5-0.5S6.7,16,7,16h8c0.3,0,0.5,0.2,0.5,0.5S15.3,17,15,17H7z M14.5,1.5C14.5,1.2,14.7,1,15,1
		s0.5,0.2,0.5,0.5V5c0,0.6,0.4,1,1,1H20c0.3,0,0.5,0.2,0.5,0.5S20.3,7,20,7h-3.5c-1.1,0-2-0.9-2-2V1.5z M15.3,2H5.5
		c-0.6,0-1,0.4-1,1v18c0,0.6,0.4,1,1,1h13c0.6,0,1-0.4,1-1V6.2L15.3,2z M5.5,1h10c0.1,0,0.3,0.1,0.4,0.1l4.5,4.5
		c0.1,0.1,0.1,0.2,0.1,0.4v15c0,1.1-0.9,2-2,2h-13c-1.1,0-2-0.9-2-2V3C3.5,1.9,4.4,1,5.5,1z"/>
</g>
</svg>
