<?xml version="1.0" encoding="iso-8859-1"?>
<!-- Generator: Adobe Illustrator 19.0.0, SVG Export Plug-In . SVG Version: 6.00 Build 0)  -->
<svg xmlns="http://www.w3.org/2000/svg" xmlns:xlink="http://www.w3.org/1999/xlink" version="1.1" id="Capa_1" x="0px" y="0px" viewBox="0 0 426.667 426.667" style="enable-background:new 0 0 426.667 426.667;" xml:space="preserve" width="512px" height="512px">
<g>
	<g>
		<polygon points="396.16,274.24 426.667,243.84 396.16,213.333 320,289.493 137.173,106.667 213.333,30.507 182.827,0     152.427,30.507 121.92,0 76.16,45.76 45.76,15.253 15.253,45.76 45.76,76.16 0,121.92 30.507,152.427 0,182.827 30.507,213.333     106.667,137.173 289.493,320 213.333,396.16 243.84,426.667 274.24,396.16 304.747,426.667 350.507,380.907 380.907,411.413     411.413,380.907 380.907,350.507 426.667,304.747   " fill="#7846c3"/>
	</g>
</g>
<g>
</g>
<g>
</g>
<g>
</g>
<g>
</g>
<g>
</g>
<g>
</g>
<g>
</g>
<g>
</g>
<g>
</g>
<g>
</g>
<g>
</g>
<g>
</g>
<g>
</g>
<g>
</g>
<g>
</g>
</svg>
