<?xml version="1.0" encoding="utf-8"?>
<!-- Generator: Adobe Illustrator 21.0.2, SVG Export Plug-In . SVG Version: 6.00 Build 0)  -->
<svg version="1.1" id="Слой_1" xmlns="http://www.w3.org/2000/svg" xmlns:xlink="http://www.w3.org/1999/xlink" x="0px" y="0px"
	 width="16px" height="16px" viewBox="0 0 16 16" style="enable-background:new 0 0 16 16;" xml:space="preserve">
<style type="text/css">
	.st0{fill:#333333;}
</style>
<title>ico 24 file doc</title>
<desc>Created with Sketch.</desc>
<g>
	<path class="st0" d="M4.5,6.5c-0.2,0-0.4-0.2-0.4-0.4s0.2-0.4,0.4-0.4h4.2c0.2,0,0.4,0.2,0.4,0.4S8.9,6.5,8.7,6.5H4.5z"/>
	<path class="st0" d="M4.5,9C4.3,9,4.1,8.8,4.1,8.6s0.2-0.4,0.4-0.4h7c0.2,0,0.4,0.2,0.4,0.4S11.7,9,11.5,9H4.5z"/>
	<path class="st0" d="M4.5,11.5c-0.2,0-0.4-0.2-0.4-0.4s0.2-0.4,0.4-0.4h5.6c0.2,0,0.4,0.2,0.4,0.4s-0.2,0.4-0.4,0.4H4.5z"/>
	<path class="st0" d="M9.6,0.7c0-0.2,0.2-0.4,0.4-0.4s0.4,0.2,0.4,0.4v2.5c0,0.4,0.3,0.7,0.7,0.7h2.5c0.2,0,0.4,0.2,0.4,0.4
		s-0.2,0.4-0.4,0.4h-2.5c-0.8,0-1.4-0.6-1.4-1.4L9.6,0.7L9.6,0.7z"/>
	<path class="st0" d="M13.8,3.6l-3.2-3.2c0-0.1-0.1-0.1-0.2-0.1h-7C2.6,0.3,2,0.9,2,1.7v12.7c0,0.8,0.6,1.4,1.4,1.4h9.2
		c0.8,0,1.4-0.6,1.4-1.4V3.8C14,3.7,14,3.6,13.8,3.6z M13.3,14.3c0,0.4-0.3,0.7-0.7,0.7H3.4c-0.4,0-0.7-0.3-0.7-0.6V1.7
		C2.7,1.3,3,1,3.4,1h6.9l3,2.9V14.3z"/>
</g>
</svg>
