<?xml version="1.0" encoding="utf-8"?>
<!-- Generator: Adobe Illustrator 21.0.2, SVG Export Plug-In . SVG Version: 6.00 Build 0)  -->
<svg version="1.1" id="Слой_1" xmlns="http://www.w3.org/2000/svg" xmlns:xlink="http://www.w3.org/1999/xlink" x="0px" y="0px"
	 width="48px" height="48px" viewBox="0 0 48 48" style="enable-background:new 0 0 48 48;" xml:space="preserve">
<style type="text/css">
	.st0{fill:#333333;}
</style>
<title>ico 48 fin-card-front-back</title>
<desc>Created with Sketch.</desc>
<g>
	<path class="st0" d="M38.5,16.8L38.5,16.8L7,16.7c-1.8,0-3.3,1.5-3.3,3.3v21.1c0,1.8,1.5,3.3,3.3,3.3h31.5c1.8,0,3.3-1.5,3.3-3.3
		v-21C41.8,18.3,40.3,16.8,38.5,16.8z M39.8,41.1c0,0.7-0.6,1.3-1.3,1.3H7c-0.7,0-1.3-0.6-1.3-1.3v-21c0-0.7,0.6-1.3,1.3-1.3h31.5
		c0.7,0,1.3,0.5,1.3,1.2V41.1z"/>
	<path class="st0" d="M16.8,21.3h-6c-1.3,0-2.5,1.2-2.5,2.5v4.5c0,1.3,1.2,2.5,2.5,2.5h6c1.3,0,2.5-1.2,2.5-2.5v-4.5
		C19.3,22.5,18.1,21.3,16.8,21.3z M17.3,28.3c0,0.2-0.3,0.5-0.5,0.5h-6c-0.2,0-0.5-0.3-0.5-0.5v-4.5c0-0.2,0.3-0.5,0.5-0.5h6
		c0.1,0,0.5,0.3,0.5,0.5V28.3z"/>
	<path class="st0" d="M9.3,35.3c-0.6,0-1-0.4-1-1s0.4-1,1-1h4.5c0.6,0,1,0.4,1,1s-0.4,1-1,1H9.3z"/>
	<path class="st0" d="M16.8,35.3c-0.6,0-1-0.4-1-1s0.4-1,1-1h4.5c0.6,0,1,0.4,1,1s-0.4,1-1,1H16.8z"/>
	<path class="st0" d="M24.3,35.3c-0.6,0-1-0.4-1-1s0.4-1,1-1h4.5c0.6,0,1,0.4,1,1s-0.4,1-1,1H24.3z"/>
	<path class="st0" d="M31.8,35.3c-0.6,0-1-0.4-1-1s0.4-1,1-1h4.5c0.6,0,1,0.4,1,1s-0.4,1-1,1H31.8z"/>
	<path class="st0" d="M9.3,39.8c-0.6,0-1-0.4-1-1s0.4-1,1-1h12c0.6,0,1,0.4,1,1s-0.4,1-1,1H9.3z"/>
	<path class="st0" d="M12.8,22.3c0-0.6,0.4-1,1-1s1,0.4,1,1v7.5c0,0.6-0.4,1-1,1s-1-0.4-1-1V22.3z"/>
	<path class="st0" d="M13.8,24.3c0.6,0,1,0.4,1,1s-0.4,1-1,1H9.3c-0.6,0-1-0.4-1-1s0.4-1,1-1H13.8z"/>
	<path class="st0" d="M44.1,22.9c-0.4,0.4-1,0.4-1.4,0s-0.4-1,0-1.4l1.2-1.2c0.5-0.5,0.5-1.2,0-1.7L29.5,4.1c-0.5-0.5-1.2-0.5-1.7,0
		L15.9,15.5c-0.4,0.4-1,0.4-1.4,0s-0.4-1,0-1.4L26.4,2.7c1.2-1.2,3.3-1.2,4.5,0l14.4,14.4c1.2,1.2,1.2,3.3,0,4.5L44.1,22.9z"/>
	<path class="st0" d="M31.3,4.5c0.4-0.4,1-0.4,1.4,0s0.4,1,0,1.4l-9.9,9.6c-0.4,0.4-1,0.4-1.4,0s-0.4-1,0-1.4L31.3,4.5z"/>
	<path class="st0" d="M35.8,8.9c0.4-0.4,1-0.4,1.4,0.1c0.4,0.4,0.4,1-0.1,1.4l-5.4,5.1c-0.4,0.4-1,0.4-1.4-0.1
		c-0.4-0.4-0.4-1,0.1-1.4L35.8,8.9z"/>
</g>
</svg>
