<?xml version="1.0" encoding="utf-8"?>
<!-- Generator: Adobe Illustrator 21.0.2, SVG Export Plug-In . SVG Version: 6.00 Build 0)  -->
<!DOCTYPE svg PUBLIC "-//W3C//DTD SVG 1.1//EN" "http://www.w3.org/Graphics/SVG/1.1/DTD/svg11.dtd" [
	<!ENTITY st0 "fill:#FFFFFF;">
]>
<svg version="1.1" id="Capa_1" xmlns="http://www.w3.org/2000/svg" xmlns:xlink="http://www.w3.org/1999/xlink" x="0px" y="0px"
	 width="512px" height="512px" viewBox="0 0 512 512" style="enable-background:new 0 0 512 512;" xml:space="preserve">
<g>
	<g>
		<g>
			<path style="&st0;" d="M444.2,194.4l-2.4-0.9l-9.5-22.7l1-2.3c28.8-65.4,26.8-67.3,22-72L416.9,59c-1.6-1.6-4.3-2.7-6.7-2.7
				c-2.2,0-8.7,0-65.5,25.7l-2.3,1L319,73.6l-0.9-2.3C291.4,5.2,288.6,5.2,282,5.2h-54.3c-6.6,0-9.6,0-34.4,66.2l-0.9,2.4l-23.3,9.5
				l-2.2-0.9C128.5,66.2,106,58,100.2,58c-2.4,0-5.1,1.1-6.7,2.6L55,98.2c-4.9,4.8-6.9,6.8,23.4,70.8l1.1,2.4L70,194.1l-2.3,0.9
				C0,221.1,0,223.7,0,230.5v53.2c0,6.8,0,9.7,67.8,34l2.4,0.9l9.5,22.6l-1,2.3c-28.8,65.4-27,67.2-22.1,72L95,453
				c1.6,1.5,4.4,2.7,6.8,2.7c2.1,0,8.7,0,65.5-25.7l2.3-1.1l23.4,9.5l0.9,2.3c26.7,66.1,29.5,66.1,36.1,66.1h54.3
				c6.8,0,9.6,0,34.4-66.3l0.9-2.4l23.3-9.4l2.2,0.9c38.4,16.2,60.8,24.4,66.6,24.4c2.4,0,5.1-1,6.8-2.6l38.5-37.7
				c4.8-4.8,6.9-6.8-23.5-70.7l-1.1-2.4L442,318l2.3-0.9c67.8-26.3,67.8-28.8,67.8-35.7v-53.2C512,221.5,512,218.6,444.2,194.4z
				 M256,342.3c-48.5,0-88-38.7-88-86.3c0-47.5,39.5-86.2,88-86.2c48.5,0,87.9,38.7,87.9,86.2C344,303.5,304.5,342.3,256,342.3z"/>
		</g>
	</g>
</g>
</svg>
