<?xml version="1.0" encoding="utf-8"?>
<!-- Generator: Adobe Illustrator 21.0.2, SVG Export Plug-In . SVG Version: 6.00 Build 0)  -->
<svg version="1.1" id="Слой_1" xmlns="http://www.w3.org/2000/svg" xmlns:xlink="http://www.w3.org/1999/xlink" x="0px" y="0px"
	 width="16px" height="16px" viewBox="0 0 16 16" style="enable-background:new 0 0 16 16;" xml:space="preserve">
<style type="text/css">
	.st0{fill:#333333;}
</style>
<title>ico 16 gear settings</title>
<desc>Created with Sketch.</desc>
<path id="path-1_1_" class="st0" d="M10.3,8c0-1.2-1.1-2.3-2.3-2.3S5.7,6.8,5.7,8s1.1,2.3,2.3,2.3S10.3,9.2,10.3,8z M11.3,8
	c0,1.8-1.4,3.3-3.3,3.3S4.8,9.8,4.8,8S6.2,4.7,8,4.7S11.3,6.2,11.3,8z M4.6,12.2C4.8,12,4.9,12,5.1,12.1c0.6,0.4,1.1,0.6,1.8,0.8
	c0.2,0,0.4,0.3,0.4,0.5v1.2c0,0,0,0.1,0.1,0.1h1.1c0,0,0.1,0,0.1-0.1v-1.2c0-0.2,0.2-0.4,0.4-0.5c0.7-0.1,1.2-0.4,1.8-0.8
	c0.2-0.1,0.5-0.1,0.6,0.1l0.8,0.8h0.1l0.8-0.8v-0.1l-0.8-0.8c-0.2-0.2-0.2-0.4-0.1-0.6c0.4-0.6,0.6-1.1,0.8-1.8
	c0-0.2,0.3-0.4,0.5-0.4h1.2c0,0,0.1,0,0.1-0.1V7.3c0,0,0-0.1-0.1-0.1h-1.2c-0.2,0-0.4-0.2-0.5-0.4c-0.1-0.7-0.4-1.2-0.8-1.8
	c-0.1-0.2-0.1-0.5,0.1-0.6l0.8-0.8V3.6l-0.8-0.8h-0.1l-0.8,0.8c-0.2,0.2-0.4,0.2-0.6,0.1c-0.6-0.4-1.1-0.6-1.8-0.8
	c-0.2,0-0.4-0.3-0.4-0.5V1.2c0,0,0-0.1-0.1-0.1H7.4c0,0-0.1,0-0.1,0.1v1.2c0,0.2-0.2,0.4-0.4,0.5C6.3,3,5.7,3.3,5.1,3.7
	C4.9,3.8,4.7,3.8,4.6,3.6L3.8,2.8H3.7L2.9,3.6v0.1l0.8,0.8C3.9,4.7,3.9,4.8,3.8,5C3.4,5.6,3.2,6.2,3,6.9C3,7,2.7,7.2,2.6,7.2H1.3
	c0,0-0.1,0-0.1,0.1v1.1c0,0,0,0.1,0.1,0.1h1.2C2.7,8.6,2.9,8.8,3,9c0.1,0.7,0.4,1.2,0.8,1.8c0.1,0.2,0.1,0.5-0.1,0.6l-0.8,0.8v0.1
	L3.7,13h0.1L4.6,12.2z M4.6,13.7c-0.4,0.4-1.1,0.4-1.4,0L2.4,13c-0.4-0.4-0.4-1.1,0-1.4l0.5-0.5c-0.3-0.5-0.5-1-0.6-1.4H1.4
	c-0.6,0-1.1-0.5-1.1-1.1V7.4c0-0.6,0.5-1.1,1.1-1.1h0.9c0.1-0.5,0.3-1,0.6-1.4L2.4,4.5C2,4.1,2,3.4,2.4,3l0.8-0.8
	c0.4-0.4,1.1-0.4,1.4,0L5,2.7c0.5-0.3,1-0.5,1.4-0.6V1.3c0-0.6,0.5-1.1,1.1-1.1h1.1c0.6,0,1.1,0.5,1.1,1.1v0.9
	c0.5,0.1,1,0.3,1.4,0.6l0.5-0.5c0.4-0.4,1.1-0.4,1.4,0L13.8,3c0.4,0.4,0.4,1.1,0,1.4l-0.5,0.5c0.3,0.5,0.5,1,0.6,1.4h0.9
	c0.6,0,1.1,0.5,1.1,1.1v1.1c0,0.6-0.5,1.1-1.1,1.1h-0.9c-0.1,0.5-0.3,1-0.6,1.4l0.5,0.5c0.4,0.4,0.4,1.1,0,1.4l-0.8,0.8
	c-0.4,0.4-1.1,0.4-1.4,0l-0.5-0.5c-0.5,0.3-1,0.5-1.4,0.6v0.9c0,0.6-0.5,1.1-1.1,1.1H7.5c-0.6,0-1.1-0.5-1.1-1.1v-0.9
	c-0.5-0.1-1-0.3-1.4-0.6L4.6,13.7z"/>
</svg>
