<?xml version="1.0" encoding="utf-8"?>
<!-- Generator: Adobe Illustrator 21.0.2, SVG Export Plug-In . SVG Version: 6.00 Build 0)  -->
<svg version="1.1" id="Слой_1" xmlns="http://www.w3.org/2000/svg" xmlns:xlink="http://www.w3.org/1999/xlink" x="0px" y="0px"
	 width="16px" height="16px" viewBox="0 0 16 16" style="enable-background:new 0 0 16 16;" xml:space="preserve">
<style type="text/css">
	.st0{fill:#666666;}
</style>
<title>ico 16 insurance</title>
<desc>Created with Sketch.</desc>
<g>
	<path id="path-1" class="st0" d="M7.4,0.6c0.2-0.1,0.4-0.1,0.6,0c1.4,1.1,3.2,1.9,4.9,1.9c0.3,0,0.5,0.2,0.5,0.5v4.3
		c0,3.8-2.4,6.6-5.6,7.7c-0.1,0-0.2,0-0.3,0C4.4,13.8,2,11.1,2,7.3V3c0-0.3,0.2-0.5,0.5-0.5C4.3,2.5,6,1.7,7.4,0.6z M3,3.5v3.8
		c0,3.3,2,5.7,4.8,6.7c2.7-1,4.7-3.4,4.7-6.7V3.5c-1.7-0.1-3.4-0.8-4.8-1.9C6.4,2.6,4.7,3.4,3,3.5z M3.7,11c-0.2,0.2-0.5,0.2-0.7,0
		c-0.2-0.2-0.2-0.5,0-0.7l7.9-7.9c0.2-0.2,0.5-0.2,0.7,0s0.2,0.5,0,0.7L3.7,11z M5.2,13c-0.2,0.2-0.5,0.2-0.7,0
		c-0.2-0.2-0.2-0.5,0-0.7l8.2-8.2c0.2-0.2,0.5-0.2,0.7,0c0.2,0.2,0.2,0.5,0,0.7L5.2,13z"/>
</g>
</svg>
