<?xml version="1.0" encoding="utf-8"?>
<!-- Generator: Adobe Illustrator 21.0.2, SVG Export Plug-In . SVG Version: 6.00 Build 0)  -->
<svg version="1.1" id="Capa_1" xmlns="http://www.w3.org/2000/svg" xmlns:xlink="http://www.w3.org/1999/xlink" x="0px" y="0px"
	 width="468.7px" height="468.7px" viewBox="0 0 468.7 468.7" style="enable-background:new 0 0 468.7 468.7;" xml:space="preserve"
	>
<g>
	<path d="M337.7,468.2c-72,0-130.5-58.6-130.5-130.5s58.6-130.5,130.5-130.5s130.5,58.6,130.5,130.5S409.6,468.2,337.7,468.2z
		 M337.7,230.2c-59.3,0-107.5,48.2-107.5,107.5c0,59.3,48.2,107.5,107.5,107.5c59.3,0,107.5-48.2,107.5-107.5
		C445.2,278.4,397,230.2,337.7,230.2z"/>
	<path d="M373.1,446.4l30.5,20.3c2,1.3,4.3,2,6.6,2c1.9,0,3.9-0.5,5.7-1.4c3.9-2.1,6.3-6.2,6.3-10.6l0-42.1
		C409,429.1,392.2,440.2,373.1,446.4z"/>
	<path d="M449.3,24.3c6.6,0,12-5.4,12-12S456,0,449.4,0h-430c-6.6,0-12,5.4-12,12s5.4,12,12,12h25.9v432.4c0,4.4,2.4,8.5,6.3,10.6
		c3.9,2.1,8.6,1.9,12.3-0.6l52.1-34.7l52.3,34.8c4,2.7,9.3,2.7,13.3,0l52.1-34.7l52.3,34.8c4,2.7,9.3,2.7,13.3,0l23.4-15.6
		c-26-3.4-49.3-15.6-66.8-33.5l-15.5-10.3c-4-2.7-9.3-2.7-13.3,0L175,441.9l-52.3-34.7c-4-2.7-9.3-2.7-13.3,0l-40.1,26.7v-410h329
		l0.1,216.8c8.8,5.5,16.9,12.2,23.9,19.9L422,24.3H449.3z"/>
	<path d="M124.5,191.6h125.7c6.6,0,12-5.4,12-12c0-6.6-5.4-12-12-12H124.5c-6.6,0-12,5.4-12,12C112.5,186.2,117.8,191.6,124.5,191.6
		z"/>
	<path d="M124.5,233.3h94.2c6.6,0,12-5.4,12-12c0-6.6-5.4-12-12-12h-94.2c-6.6,0-12,5.4-12,12C112.5,227.9,117.8,233.3,124.5,233.3z
		"/>
	<path d="M313,191.6h31.4c6.6,0,12-5.4,12-12c0-6.6-5.4-12-12-12H313c-6.6,0-12,5.4-12,12C301,186.2,306.3,191.6,313,191.6z"/>
	<path d="M344.4,209.3H313c-6.6,0-12,5.4-12,12c0,2.7,0.9,5.3,2.5,7.3c10.8-3.4,22.3-5.2,34.3-5.2c6.2,0,12.2,0.5,18.2,1.4
		c0.3-1.1,0.5-2.3,0.5-3.5C356.4,214.7,351,209.3,344.4,209.3z"/>
	<path d="M124.5,95.3h125.7c6.6,0,12-5.4,12-12c0-6.6-5.4-12-12-12H124.5c-6.6,0-12,5.4-12,12C112.5,89.9,117.8,95.3,124.5,95.3z"/>
	<path d="M124.5,136.9h94.2c6.6,0,12-5.4,12-12c0-6.6-5.4-12-12-12h-94.2c-6.6,0-12,5.4-12,12C112.5,131.5,117.8,136.9,124.5,136.9z
		"/>
	<path d="M313,95.3h31.4c6.6,0,12-5.4,12-12c0-6.6-5.4-12-12-12H313c-6.6,0-12,5.4-12,12C301,89.9,306.3,95.3,313,95.3z"/>
	<path d="M313,136.9h31.4c6.6,0,12-5.4,12-12c0-6.6-5.4-12-12-12H313c-6.6,0-12,5.4-12,12C301,131.5,306.3,136.9,313,136.9z"/>
	<path d="M112.5,277.1c0,6.6,5.3,12,12,12h109.7c4.1-8.6,9.2-16.7,15.2-24H124.5C117.8,265.1,112.5,270.5,112.5,277.1z"/>
	<path d="M124.5,306.7c-6.6,0-12,5.4-12,12c0,6.6,5.3,12,12,12h94.2c1.8,0,3.5-0.4,5-1.1c0.5-6.7,1.5-13.3,3.1-19.7
		c-2.1-2-5-3.2-8.1-3.2H124.5z"/>
	<g>
		<path d="M352.1,375.5h-26.4c-0.1-3.8-0.1-6.1-0.1-6.9c0-8.6,1.4-15.6,4.2-21.1c2.8-5.5,8.5-11.7,17-18.6
			c8.5-6.9,13.6-11.4,15.2-13.6c2.6-3.4,3.8-7.1,3.8-11.2c0-5.7-2.3-10.5-6.8-14.5c-4.5-4-10.6-6.1-18.3-6.1
			c-7.4,0-13.6,2.1-18.5,6.3c-5,4.2-8.4,10.6-10.3,19.3l-26.7-3.3c0.8-12.4,6-22.9,15.8-31.5c9.8-8.6,22.6-12.9,38.5-12.9
			c16.7,0,30,4.4,39.9,13.1c9.9,8.7,14.8,18.9,14.8,30.5c0,6.4-1.8,12.5-5.4,18.2c-3.6,5.7-11.4,13.5-23.2,23.4
			c-6.1,5.1-10,9.2-11.4,12.3C352.6,361.9,352,367.5,352.1,375.5z M325.7,414.6v-29.1h29.1v29.1H325.7z"/>
	</g>
</g>
</svg>
