<?xml version="1.0" encoding="UTF-8"?>
<svg width="16px" height="16px" viewBox="0 0 16 16" version="1.1" xmlns="http://www.w3.org/2000/svg" xmlns:xlink="http://www.w3.org/1999/xlink">
    <!-- Generator: sketchtool 49 (51002) - http://www.bohemiancoding.com/sketch -->
    <title>8FAD6A70-EE8E-4AD7-A35A-6D1833BC141B</title>
    <desc>Created with sketchtool.</desc>
    <defs>
        <path d="M10.0795027,7.61575179 L8.93115945,6.46740857 C8.78110119,6.31735031 8.78110119,6.0740578 8.93115945,5.92399954 C9.08121771,5.77394128 9.32451022,5.77394128 9.47456848,5.92399954 L11.2788644,7.72829549 C11.4289227,7.87835375 11.4289227,8.12164625 11.2788644,8.27170451 L9.47456848,10.0760005 C9.32451022,10.2260587 9.08121771,10.2260587 8.93115945,10.0760005 C8.78110119,9.9259422 8.78110119,9.68264969 8.93115945,9.53259143 L10.0795027,8.38424821 L1.38424821,8.38424821 C1.17203378,8.38424821 1,8.21221443 1,8 C1,7.78778557 1.17203378,7.61575179 1.38424821,7.61575179 L10.0795027,7.61575179 Z M5.21002387,9.80429594 C5.21002387,9.59208152 5.38205765,9.42004773 5.59427208,9.42004773 C5.8064865,9.42004773 5.97852029,9.59208152 5.97852029,9.80429594 L5.97852029,13.4128878 C5.97852029,13.8652557 6.34476813,14.2315036 6.79713604,14.2315036 L13.4128878,14.2315036 C13.8652557,14.2315036 14.2315036,13.8652557 14.2315036,13.4128878 L14.2315036,2.58711217 C14.2315036,2.13474426 13.8652557,1.76849642 13.4128878,1.76849642 L6.79713604,1.76849642 C6.34476813,1.76849642 5.97852029,2.13474426 5.97852029,2.58711217 L5.97852029,6.19570406 C5.97852029,6.40791848 5.8064865,6.57995227 5.59427208,6.57995227 C5.38205765,6.57995227 5.21002387,6.40791848 5.21002387,6.19570406 L5.21002387,2.58711217 C5.21002387,1.71031541 5.92033927,1 6.79713604,1 L13.4128878,1 C14.2896846,1 15,1.71031541 15,2.58711217 L15,13.4128878 C15,14.2896846 14.2896846,15 13.4128878,15 L6.79713604,15 C5.92033927,15 5.21002387,14.2896846 5.21002387,13.4128878 L5.21002387,9.80429594 Z" id="path-1"></path>
    </defs>
    <g id="Symbols" stroke="none" stroke-width="1" fill="none" fill-rule="evenodd">
        <g id="ico/ico-16-login">
            <mask id="mask-2" fill="white">
                <use xlink:href="#path-1"></use>
            </mask>
            <use id="Stroke-6270" fill="#000000" fill-rule="nonzero" xlink:href="#path-1"></use>
            <g id="colors/brand-black" mask="url(#mask-2)" fill="#333333">
                <rect id="Black-Color-Copy-3" x="0" y="0" width="16" height="16"></rect>
            </g>
        </g>
    </g>
</svg>