<?xml version="1.0" encoding="utf-8"?>
<!-- Generator: Adobe Illustrator 21.0.2, SVG Export Plug-In . SVG Version: 6.00 Build 0)  -->
<svg version="1.1" id="Layer_1" xmlns="http://www.w3.org/2000/svg" xmlns:xlink="http://www.w3.org/1999/xlink" x="0px" y="0px"
	 width="475.1px" height="152.7px" viewBox="0 0 475.1 152.7" style="enable-background:new 0 0 475.1 152.7;" xml:space="preserve"
	>
<style type="text/css">
	.st0{fill:#D35243;}
	.st1{fill:none;}
</style>
<path class="st0" d="M53.3,10c9,0,11.9,6.5,14.3,13c1,2.7,24.5,67,25.2,69c0.2,0.5,0.1,1.4-0.8,1.7c-0.8,0.3-13,5.1-13.7,5.3
	c-0.7,0.3-1.4-0.1-1.7-0.8c-0.3-0.7-5.3-14.7-5.9-16.3c-1.7,0-33.1,0-34.8,0c-0.6,1.6-5.7,15.6-5.9,16.3c-0.2,0.6-1,1.1-1.7,0.8
	c-0.7-0.3-13-5-13.7-5.3c-0.7-0.3-1-1.1-0.8-1.7c0.9-2.4,24-65.7,25.2-69C41.3,16.6,44.2,10,53.3,10z M12,125.1
	c-0.7,0-1.3,0.6-1.3,1.4v15c0,0.7,0.6,1.3,1.3,1.3h82.6c0.7,0,1.3-0.6,1.3-1.3v-15c0-0.7-0.6-1.4-1.3-1.4H12 M53.2,31L41.4,66.3
	h23.7L53.3,31H53.2z M360.6,82.9c0,4-2.2,6.6-6.3,6.6c-1.6,0-2.9,0-5-0.6V76.8c0.9-0.2,2.8-0.5,5-0.4
	C358.4,76.6,360.6,78.5,360.6,82.9z M368.9,82.3c0-7.4-4.3-12.5-13.5-12.5c-2.2,0-3.8,0.2-6.2,0.8l0-10.7c1.5-0.2,4.1-0.4,6.9-0.4
	c2.7,0,6.1,0.1,9.1,0.5l0.2-6.2c-3.4-0.8-8.3-1.2-12.1-1.2c-3.8,0-9.6,0.9-12.4,1.7l0,39.4c4.3,1.6,8.6,2.3,12.9,2.3
	C363.8,96,368.9,90.7,368.9,82.3z M274,80.1c0,5.5-2.2,9-5.8,9c-1.5,0-2.3-0.1-4-0.6V72c1.9-0.9,2.9-0.9,4.4-0.9
	C272.2,71.1,274,74.1,274,80.1 M246.5,80.3c0-6,1.8-9.2,5.4-9.2c1.5,0,2.5,0,4.4,0.9v16.5c-1.7,0.6-2.5,0.6-4,0.6
	C248.2,89.2,246.5,85.8,246.5,80.3 M264.2,105V94.3c1,0.6,3,1.5,6.3,1.5c6.7,0,11.6-5.5,11.6-15.6c0-10.9-4.9-15.6-12.9-15.6
	c-2,0-3.4,0.2-5,1V52.7h-7.8v12.8c-1.6-0.8-3-1-5-1c-8,0-12.9,4.9-12.9,15.7c0,10.1,4.4,15.5,11.6,15.5c3.4,0,5.3-0.9,6.3-1.5V105
	H264.2 M204.7,95.2V66.4c-4.3-1.3-7.6-1.8-12-1.8c-4.3,0-7.6,0.6-11.9,1.8v14.8c0,4-0.1,5.2-0.5,6.5c-0.4,1.1-1,2.5-2.6,3.6l2.1,4.6
	c6.3-1.8,8.7-4.5,8.7-13.3V71.7c2.1-0.3,2.5-0.4,4.2-0.4c1.7,0,2,0.1,4.1,0.4v23.5H204.7z M301.5,88.9c-1.7,0.6-2.9,0.7-4.2,0.7
	c-2.8,0-4.4-1.1-4.4-4c0-3,2-4,5.9-4c0.9,0,1.9,0.1,2.3,0.3v2.2C301.1,86.4,301.3,87.9,301.5,88.9z M311.5,92.4
	c-2.1-3.2-2.6-5-2.6-9v-8.1c0-4.4-0.5-6-1.7-7.5c-1.6-2.2-4.3-3.2-9.2-3.2c-3.5,0-6.9,0.4-10.1,1.2l1.2,5.8c2.2-0.3,4.5-0.6,6.2-0.6
	c5.2,0,5.8,0.8,5.8,4.7v1.5c-1.2-0.3-2.5-0.5-4-0.5c-7.9,0-12,3.8-12,10.2c0,5.9,4.4,9.2,9.8,9.2c2,0,4.1-0.4,5.8-1
	c1-0.4,1.4-0.7,2.7-1.5c0.8,1.2,2.3,2.3,3,2.5L311.5,92.4z M388.3,88.9c-1.7,0.6-2.9,0.7-4.2,0.7c-2.8,0-4.4-1.1-4.4-4
	c0-3,2-4,5.9-4c0.9,0,1.9,0.1,2.3,0.3v2.2C387.9,86.4,388,87.9,388.3,88.9z M398.3,92.4c-2.1-3.2-2.6-5-2.6-9v-8.1
	c0-4.4-0.5-6-1.6-7.5c-1.6-2.2-4.3-3.2-9.2-3.2c-3.5,0-6.9,0.4-10.1,1.2l1.2,5.8c2.2-0.3,4.5-0.6,6.2-0.6c5.2,0,5.8,0.8,5.8,4.7v1.5
	c-1.2-0.3-2.5-0.5-4-0.5c-7.9,0-12,3.8-12,10.2c0,5.9,4.4,9.2,9.8,9.2c2,0,4.1-0.4,5.8-1c1-0.4,1.4-0.7,2.7-1.5
	c0.8,1.2,2.4,2.3,3,2.5L398.3,92.4z M227,84.9c0,3-1,5-4.8,5c-1.3,0-1.8,0-3.4-0.5v-8.6c2-0.4,2.2-0.5,3.4-0.5
	C225.8,80.3,227,82.1,227,84.9z M210.9,65.1l0,28.6c3.7,1.6,7.8,2.3,11.5,2.3c8.3,0,12.8-4.3,12.8-11.4c0-6.4-4-10.4-11.3-10.4
	c-1.9,0-3,0.2-5,0.7v-9.8H210.9z M427,95.2V65.3h-7.9v11.3h-8.9V65.3h-7.9v29.9h7.9V83h8.9v12.2H427z M459.3,95.2
	c0,0-4.3-9.2-5.3-11.2c-1.2-2.3-2.3-4-4.7-4.5v-0.1c1.6-0.3,2.9-1.3,4.3-4.3c1.3-2.9,1.7-3.6,2.5-4.2c0.8-0.7,1.8-0.4,1.8-0.4
	l0.4-5.4c-1.1-0.1-2.4-0.2-3.7-0.1c-2.1,0.1-3.2,0.7-4.3,1.8c-0.8,0.8-1.4,2-2.1,3.4c-0.7,1.5-1.3,2.7-2.1,4.3
	c-0.8,1.6-1.1,2.3-3.2,2.3h-1.3V65.3h-7.9v29.9h7.9V83l1.1,0c2.2,0,2.6,0.6,3.8,2.9c1.4,2.8,4.1,9.3,4.1,9.3H459.3z M166.2,95.2h9.1
	l-13.7-41.8c-1.4-0.5-3.2-0.8-5.1-0.8c-2.1,0-2.8,0.3-4.4,0.8l-14.5,41.8h8.7c0,0,1.2-3.7,2.6-8.2h15
	C165.1,91.6,166.2,95.2,166.2,95.2z M151,80c0,0,2.5-8.4,2.9-9.7c1-3.4,2.5-8.8,2.5-8.8h0.2c0,0,1.4,5.6,2.3,8.7
	c0.4,1.2,2.7,9.7,2.7,9.7H151z M324.9,75.3c-2.8,0-5,2.3-5,5c0,2.8,2.3,5,5,5c2.8,0,5-2.2,5-5C329.9,77.5,327.7,75.3,324.9,75.3z"/>
<rect x="-32" y="-32.6" class="st1" width="554" height="217.9"/>
</svg>
