<?xml version="1.0" encoding="utf-8"?>
<!-- Generator: Adobe Illustrator 21.0.2, SVG Export Plug-In . SVG Version: 6.00 Build 0)  -->
<svg version="1.1" id="Слой_1" xmlns="http://www.w3.org/2000/svg" xmlns:xlink="http://www.w3.org/1999/xlink" x="0px" y="0px"
	 width="16px" height="16px" viewBox="0 0 16 16" style="enable-background:new 0 0 16 16;" xml:space="preserve">
<style type="text/css">
	.st0{fill:#7846C3;}
</style>
<title>ico 16 mail</title>
<desc>Created with Sketch.</desc>
<path id="path-1_1_" class="st0" d="M13.4,12.2c0.7,0,0.9-0.2,0.9-0.8V4.6c0-0.6-0.2-0.8-0.9-0.8H2.6C1.9,3.8,1.7,4,1.7,4.6v6.8
	c0,0.6,0.2,0.8,0.9,0.8H13.4z M13.4,13.3H2.6c-1.3,0-2-0.7-2-1.9V4.6c0-1.2,0.7-1.9,2-1.9h10.9c1.3,0,2,0.7,2,1.9v6.8
	C15.4,12.6,14.7,13.3,13.4,13.3z M1.3,4.2c-0.2-0.2-0.2-0.5,0-0.7c0.2-0.2,0.5-0.2,0.7,0l5.8,5.8c0.1,0.1,0.2,0.1,0.3,0L14,3.4
	c0.2-0.2,0.5-0.2,0.7,0c0.2,0.2,0.2,0.5,0,0.7L8.9,10c-0.5,0.5-1.3,0.5-1.8,0L1.3,4.2z"/>
</svg>
