<?xml version="1.0" encoding="UTF-8"?>
<svg width="16px" height="16px" viewBox="0 0 16 16" version="1.1" xmlns="http://www.w3.org/2000/svg" xmlns:xlink="http://www.w3.org/1999/xlink">
    <!-- Generator: Sketch 48.2 (47327) - http://www.bohemiancoding.com/sketch -->
    <title>ico 16 mail</title>
    <desc>Created with Sketch.</desc>
    <defs>
        <path d="M13.1428571,12 C13.8011111,12 14,11.8115789 14,11.2 L14,4.8 C14,4.18842105 13.8011111,4 13.1428571,4 L2.85714286,4 C2.19888889,4 2,4.18842105 2,4.8 L2,11.2 C2,11.8115789 2.19888889,12 2.85714286,12 L13.1428571,12 Z M13.1428571,13 L2.85714286,13 C1.66206088,13 1,12.3803265 1,11.2 L1,4.8 C1,3.61967352 1.66206088,3 2.85714286,3 L13.1428571,3 C14.3379391,3 15,3.61967352 15,4.8 L15,11.2 C15,12.3803265 14.3379391,13 13.1428571,13 Z M1.64643179,4.36576605 C1.45117783,4.17049572 1.4511911,3.85391323 1.64646143,3.65865927 C1.84173176,3.46340531 2.15831425,3.46341858 2.35356821,3.65868891 L7.85761287,9.16319504 C7.93277404,9.23829208 8.05453707,9.23829208 8.12954731,9.16334591 L13.6464466,3.64644661 C13.8417088,3.45118446 14.1582912,3.45118446 14.3535534,3.64644661 C14.5488155,3.84170876 14.5488155,4.15829124 14.3535534,4.35355339 L8.83650316,9.87060355 C8.37088685,10.3358226 7.61642425,10.3358226 7.1506422,9.87043787 L1.64643179,4.36576605 Z" id="path-1"></path>
    </defs>
    <g id="ico-16-mail" stroke="none" stroke-width="1" fill="none" fill-rule="evenodd">
        <mask id="mask-2" fill="white">
            <use xlink:href="#path-1"></use>
        </mask>
        <use id="Stroke-199" fill="#8F8C93" fill-rule="nonzero" xlink:href="#path-1"></use>
        <g id="colors/brand-black" mask="url(#mask-2)" fill="#8F8C93">
            <rect id="Black-Color-Copy-3" x="0" y="0" width="16" height="16"></rect>
        </g>
    </g>
</svg>