<?xml version="1.0" encoding="utf-8"?>
<!-- Generator: Adobe Illustrator 21.0.2, SVG Export Plug-In . SVG Version: 6.00 Build 0)  -->
<svg version="1.1"
	 id="svg3409" xmlns:cc="http://creativecommons.org/ns#" xmlns:dc="http://purl.org/dc/elements/1.1/" xmlns:rdf="http://www.w3.org/1999/02/22-rdf-syntax-ns#" xmlns:svg="http://www.w3.org/2000/svg"
	 xmlns="http://www.w3.org/2000/svg" xmlns:xlink="http://www.w3.org/1999/xlink" x="0px" y="0px" width="300px" height="233.2px"
	 viewBox="0 0 300 233.2" style="enable-background:new 0 0 300 233.2;" xml:space="preserve">
<style type="text/css">
	.st0{fill:#FFFFFF;}
	.st1{fill:#FF5F00;}
	.st2{fill:#EB001B;}
	.st3{fill:#F79E1B;}
</style>
<g>
	<g id="g15" transform="translate(-502.86126,-41.013507)">
		<path id="XMLID_1775_" class="st0" d="M558.1,272.7v-15.3c0-5.9-3.6-9.7-9.7-9.7c-3.1,0-6.4,1-8.7,4.3c-1.8-2.8-4.3-4.3-8.2-4.3
			c-2.6,0-5.1,0.8-7.2,3.6v-3.1H519v24.6h5.4v-13.6c0-4.3,2.3-6.4,5.9-6.4s5.4,2.3,5.4,6.4v13.6h5.4v-13.6c0-4.3,2.6-6.4,5.9-6.4
			c3.6,0,5.4,2.3,5.4,6.4v13.6H558.1z M637.6,248.2h-8.7v-7.4h-5.4v7.4h-4.9v4.9h4.9v11.3c0,5.6,2.3,9,8.4,9c2.3,0,4.9-0.8,6.7-1.8
			l-1.5-4.6c-1.5,1-3.3,1.3-4.6,1.3c-2.6,0-3.6-1.5-3.6-4.1v-11h8.7V248.2z M683.2,247.7c-3.1,0-5.1,1.5-6.4,3.6v-3.1h-5.4v24.6h5.4
			v-13.8c0-4.1,1.8-6.4,5.1-6.4c1,0,2.3,0.3,3.3,0.5l1.5-5.1C685.7,247.7,684.2,247.7,683.2,247.7L683.2,247.7z M614.4,250.2
			c-2.6-1.8-6.1-2.6-10-2.6c-6.1,0-10.2,3.1-10.2,7.9c0,4.1,3.1,6.4,8.4,7.2l2.6,0.3c2.8,0.5,4.3,1.3,4.3,2.6c0,1.8-2,3.1-5.6,3.1
			c-3.6,0-6.4-1.3-8.2-2.6l-2.6,4.1c2.8,2,6.7,3.1,10.5,3.1c7.2,0,11.3-3.3,11.3-7.9c0-4.3-3.3-6.7-8.4-7.4l-2.6-0.3
			c-2.3-0.3-4.1-0.8-4.1-2.3c0-1.8,1.8-2.8,4.6-2.8c3.1,0,6.1,1.3,7.7,2L614.4,250.2L614.4,250.2z M757.1,247.7
			c-3.1,0-5.1,1.5-6.4,3.6v-3.1h-5.4v24.6h5.4v-13.8c0-4.1,1.8-6.4,5.1-6.4c1,0,2.3,0.3,3.3,0.5l1.5-5.1
			C759.7,247.7,758.1,247.7,757.1,247.7L757.1,247.7z M688.5,260.5c0,7.4,5.1,12.8,13,12.8c3.6,0,6.1-0.8,8.7-2.8l-2.6-4.3
			c-2,1.5-4.1,2.3-6.4,2.3c-4.3,0-7.4-3.1-7.4-7.9c0-4.6,3.1-7.7,7.4-7.9c2.3,0,4.3,0.8,6.4,2.3l2.6-4.3c-2.6-2-5.1-2.8-8.7-2.8
			C693.7,247.7,688.5,253,688.5,260.5L688.5,260.5L688.5,260.5z M738.2,260.5v-12.3h-5.4v3.1c-1.8-2.3-4.3-3.6-7.7-3.6
			c-6.9,0-12.3,5.4-12.3,12.8c0,7.4,5.4,12.8,12.3,12.8c3.6,0,6.1-1.3,7.7-3.6v3.1h5.4V260.5L738.2,260.5z M718.5,260.5
			c0-4.3,2.8-7.9,7.4-7.9c4.3,0,7.4,3.3,7.4,7.9c0,4.3-3.1,7.9-7.4,7.9C721.3,268.1,718.5,264.8,718.5,260.5L718.5,260.5z
			 M654.3,247.7c-7.2,0-12.3,5.1-12.3,12.8c0,7.7,5.1,12.8,12.5,12.8c3.6,0,7.2-1,10-3.3l-2.6-3.8c-2,1.5-4.6,2.6-7.2,2.6
			c-3.3,0-6.7-1.5-7.4-5.9h18.2c0-0.8,0-1.3,0-2C665.8,252.8,661.2,247.7,654.3,247.7L654.3,247.7L654.3,247.7z M654.3,252.3
			c3.3,0,5.6,2,6.1,5.9h-12.8C648.1,254.8,650.4,252.3,654.3,252.3L654.3,252.3z M787.5,260.5v-22h-5.4v12.8
			c-1.8-2.3-4.3-3.6-7.7-3.6c-6.9,0-12.3,5.4-12.3,12.8c0,7.4,5.4,12.8,12.3,12.8c3.6,0,6.1-1.3,7.7-3.6v3.1h5.4V260.5L787.5,260.5z
			 M767.8,260.5c0-4.3,2.8-7.9,7.4-7.9c4.3,0,7.4,3.3,7.4,7.9c0,4.3-3.1,7.9-7.4,7.9C770.7,268.1,767.8,264.8,767.8,260.5
			L767.8,260.5z M588.3,260.5v-12.3h-5.4v3.1c-1.8-2.3-4.3-3.6-7.7-3.6c-6.9,0-12.3,5.4-12.3,12.8c0,7.4,5.4,12.8,12.3,12.8
			c3.6,0,6.1-1.3,7.7-3.6v3.1h5.4V260.5L588.3,260.5z M568.3,260.5c0-4.3,2.8-7.9,7.4-7.9c4.3,0,7.4,3.3,7.4,7.9
			c0,4.3-3.1,7.9-7.4,7.9C571.1,268.1,568.3,264.8,568.3,260.5z"/>
	</g>
	<g id="XMLID_328_" transform="translate(-502.86126,-41.013507)">
		<rect id="rect19" x="612.6" y="61.7" class="st1" width="80.6" height="144.8"/>
		<path id="XMLID_330_" class="st2" d="M617.7,134.1c0-29.4,13.8-55.5,35-72.4C637.1,49.4,617.4,42,595.9,42
			c-50.9,0-92.1,41.2-92.1,92.1s41.2,92.1,92.1,92.1c21.5,0,41.2-7.4,56.8-19.7C631.5,189.9,617.7,163.5,617.7,134.1z"/>
		<path id="path22" class="st3" d="M801.9,134.1c0,50.9-41.2,92.1-92.1,92.1c-21.5,0-41.2-7.4-56.8-19.7c21.5-16.9,35-43,35-72.4
			s-13.8-55.5-35-72.4C668.6,49.4,688.3,42,709.8,42C760.7,42,801.9,83.5,801.9,134.1z"/>
	</g>
</g>
</svg>
