<?xml version="1.0" encoding="utf-8"?>
<!-- Generator: Adobe Illustrator 21.0.2, SVG Export Plug-In . SVG Version: 6.00 Build 0)  -->
<svg version="1.1"
	 id="Layer_1" xmlns:cc="http://creativecommons.org/ns#" xmlns:dc="http://purl.org/dc/elements/1.1/" xmlns:rdf="http://www.w3.org/1999/02/22-rdf-syntax-ns#" xmlns:svg="http://www.w3.org/2000/svg"
	 xmlns="http://www.w3.org/2000/svg" xmlns:xlink="http://www.w3.org/1999/xlink" x="0px" y="0px" width="49px" height="14px"
	 viewBox="0 0 49 14" style="enable-background:new 0 0 49 14;" xml:space="preserve">
<style type="text/css">
	.st0{fill:#FFFFFF;}
</style>
<path id="path10" class="st0" d="M43.5,0h-9.3c0.5,3.1,3.5,6,6.8,6h7.4c0.1-0.3,0.1-0.7,0.1-1C48.5,2.2,46.3,0,43.5,0z"/>
<path id="path12" class="st0" d="M35,6.5V14h4.5v-4h4c2.2,0,4.1-1.5,4.7-3.5H35z"/>
<path id="path14" class="st0" d="M19,0v14h4c0,0,1,0,1.5-1C27.2,7.6,28,6,28,6h0.5v8H33V0h-4c0,0-1,0.1-1.5,1C25.2,5.6,24,8,24,8
	h-0.5V0H19z"/>
<path id="path16" class="st0" d="M0,14V0h4.5c0,0,1.3,0,2,2c1.8,5.3,2,6,2,6s0.4-1.3,2-6c0.7-2,2-2,2-2H17v14h-4.5V6.5H12L9.5,14h-2
	L5,6.5H4.5V14H0z"/>
</svg>
