<?xml version="1.0" encoding="utf-8"?>
<!-- Generator: Adobe Illustrator 21.0.2, SVG Export Plug-In . SVG Version: 6.00 Build 0)  -->
<svg version="1.1" id="Capa_1" xmlns="http://www.w3.org/2000/svg" xmlns:xlink="http://www.w3.org/1999/xlink" x="0px" y="0px"
	 width="110px" height="90px" viewBox="0 0 110 90" style="enable-background:new 0 0 110 90;" xml:space="preserve">
<style type="text/css">
	.st0{fill:#777777;}
</style>
<path class="st0" d="M109,85.9L91.9,68.8c4.6-5.3,7.4-12.2,7.4-19.7c0-2.7-0.4-5.3-1-7.8l3.1-8.6v-0.3c0-2.9-1.8-5-4.2-5h-5.9V16.9
	c0-2.5-2.1-4.6-4.6-4.6H45.1L36.7,0.5H5.1c-2.5,0-4.6,2.1-4.6,4.6v73.4h0c0,0.9,0.3,1.9,0.9,2.6c0.8,1.1,2.1,1.7,3.4,1.7H80
	c1.9,0,3.7-1.3,4.1-3l2.2-6.1c0.9-0.6,1.7-1.3,2.5-2L106,88.9c0.4,0.4,1,0.6,1.5,0.6s1.1-0.2,1.5-0.6C109.8,88,109.8,86.7,109,85.9z
	 M97.9,32.1l-1.5,4.2c-0.9-2-2.1-3.9-3.4-5.6h4.1C97.7,30.7,97.9,31.7,97.9,32.1z M3.9,5.1c0-0.7,0.6-1.2,1.2-1.2H35l8.4,11.8h43.3
	c0.7,0,1.2,0.6,1.2,1.2v8.7C82.7,21.5,76.2,19,69.2,19c-8.1,0-15.4,3.2-20.8,8.4H21.9c-0.2,0-0.5,0-0.7,0.1c-1.6,0.3-3,1.5-3.4,3
	L3.9,68.4V5.1z M80.9,78.7c-0.1,0.4-0.5,0.7-0.9,0.7H4.9c-0.4,0-0.6-0.2-0.8-0.4c-0.1-0.1-0.3-0.4-0.2-0.7L21,31.4
	c0.1-0.4,0.5-0.7,0.9-0.7h23.5c-3.9,5.1-6.3,11.4-6.3,18.3c0,16.6,13.5,30,30,30c4.5,0,8.8-1,12.7-2.8L80.9,78.7z M69.2,74.9
	c-14.2,0-25.8-11.6-25.8-25.8s11.6-25.8,25.8-25.8C83.4,23.2,95,34.8,95,49.1S83.4,74.9,69.2,74.9z"/>
</svg>
