<?xml version="1.0" encoding="UTF-8"?>
<svg width="24px" height="24px" viewBox="0 0 24 24" version="1.1" xmlns="http://www.w3.org/2000/svg" xmlns:xlink="http://www.w3.org/1999/xlink">
    <!-- Generator: sketchtool 49 (51002) - http://www.bohemiancoding.com/sketch -->
    <title>22D84C1D-FD33-4BD3-914D-DB5E2CA99BEE</title>
    <desc>Created with sketchtool.</desc>
    <defs>
        <path d="M8,17.727 C8,17.3251424 7.67485763,17 7.27323364,16.9999999 L6.203,17.0005 C4.66326493,17.0005 4,15.2523294 4,11.9995 C4,8.91680944 4.91738115,6.99909926 6.49935317,7.00050042 L7.273,6.9995 C7.67469921,6.9995 8,6.67401605 8,6.272 L8,2.727 C8,2.32543815 7.67465344,2 7.273,2 L6.93165265,1.99999998 C4.08467965,2.00086915 2,6.12187213 2,12 C2,18.3899806 3.37732914,22.0004001 6,22 L7.27263127,22.0000001 C7.67455703,21.9997037 8,21.6740775 8,21.2725 L8,17.727 Z M9,17.727 L9,21.2725 C9,22.2261134 8.22725206,22.9992964 7.273,23 L6.00007628,23 C2.56202561,23.0005245 1,18.9059565 1,12 C1,5.6411172 3.34723476,1.00109424 6.9315,1 L7.273,1 C8.22700122,1 9,1.77321641 9,2.727 L9,6.272 C9,7.22617483 8.22711001,7.9995 7.27364683,7.99949958 L6.49955752,8.0004998 C5.67048224,7.99976611 5,9.40135433 5,11.9995 C5,14.735276 5.48003249,16.0005 6.20276636,16.0005001 L7.273,16 C8.22714237,16 9,16.7728576 9,17.727 Z M22.5,11.99995 C22.7761424,11.99995 23,12.2238076 23,12.49995 C23,12.7760924 22.7761424,12.99995 22.5,12.99995 L10.5,12.99995 C10.2238576,12.99995 10,12.7760924 10,12.49995 C10,12.2238076 10.2238576,11.99995 10.5,11.99995 L22.5,11.99995 Z M10.8535534,12.8535034 C10.6582912,13.0487655 10.3417088,13.0487655 10.1464466,12.8535034 C9.95118446,12.6582412 9.95118446,12.3416588 10.1464466,12.1463966 L13.1464466,9.14639661 C13.3417088,8.95113446 13.6582912,8.95113446 13.8535534,9.14639661 C14.0488155,9.34165876 14.0488155,9.65824124 13.8535534,9.85350339 L10.8535534,12.8535034 Z M10.1464466,12.8535034 C9.95118446,12.6582412 9.95118446,12.3416588 10.1464466,12.1463966 C10.3417088,11.9511345 10.6582912,11.9511345 10.8535534,12.1463966 L13.8535534,15.1463966 C14.0488155,15.3416588 14.0488155,15.6582412 13.8535534,15.8535034 C13.6582912,16.0487655 13.3417088,16.0487655 13.1464466,15.8535034 L10.1464466,12.8535034 Z" id="path-1"></path>
    </defs>
    <g id="Symbols" stroke="none" stroke-width="1" fill="none" fill-rule="evenodd">
        <g id="ico/ico-24-phone-incoming">
            <mask id="mask-2" fill="white">
                <use xlink:href="#path-1"></use>
            </mask>
            <use id="Stroke-200" fill="#7846C3" fill-rule="nonzero" xlink:href="#path-1"></use>
            <g id="colors/brand-black" mask="url(#mask-2)" fill="#7846C3">
                <rect id="Black-Color-Copy-3" x="0" y="0" width="24" height="24"></rect>
            </g>
        </g>
    </g>
</svg>