<?xml version="1.0" encoding="UTF-8"?>
<svg width="16px" height="16px" viewBox="0 0 16 16" version="1.1" xmlns="http://www.w3.org/2000/svg" xmlns:xlink="http://www.w3.org/1999/xlink">
    <!-- Generator: Sketch 48.2 (47327) - http://www.bohemiancoding.com/sketch -->
    <title>ico 16 phone</title>
    <desc>Created with Sketch.</desc>
    <defs>
        <path d="M11.2934039,10.305482 L10.7119918,10.8865674 C9.93816711,11.6603921 7.97536241,10.9265734 6.52437192,9.47523531 C5.07354039,8.02405611 4.33997142,6.06162974 5.11377233,5.28834784 L5.69458191,4.70753867 C5.80481633,4.59705765 5.80481633,4.41889546 5.69495042,4.30902956 L3.40174238,2.01582141 C3.29194928,1.9059055 3.11388702,1.9059055 3.00378659,2.01600592 L2.33444089,2.68535163 C1.17872471,3.84133521 2.54562516,7.35123832 5.59736326,10.4029764 C8.64937772,13.4549909 12.1588967,14.8219308 13.3148693,13.6656908 L13.9840071,12.9962264 C14.0941075,12.886126 14.0941075,12.7083904 13.9839836,12.5983894 L11.6913012,10.3053803 C11.5812,10.1952888 11.4034711,10.1952918 11.2934039,10.305482 Z M14.643825,11.938226 C15.1186808,12.4125512 15.1186808,13.1815577 14.6440901,13.6561483 L13.9749905,14.3255746 C12.3060911,15.99486 8.31456101,14.4401792 4.93736076,11.0629789 C1.56050509,7.68612324 0.00591068929,3.69426288 1.67440022,2.02538731 L2.3437841,1.35600343 C2.81845534,0.88133219 3.58778851,0.88133219 4.06192928,1.35600343 L6.35495291,3.64902706 C6.8292053,4.12327944 6.8292053,4.89185931 6.35495291,5.36717225 L5.7736641,5.94846102 C5.50623075,6.215715 6.05608556,7.68667357 7.18445347,8.81531188 C8.31303768,9.94416647 9.78432783,10.4942264 10.0520821,10.2264721 L10.6333097,9.64557128 C11.1076349,9.17071552 11.8766414,9.17071552 12.3513126,9.64538676 C12.3513231,9.64539721 13.1154939,10.409677 14.643825,11.938226 Z" id="path-1"></path>
    </defs>
    <g id="ico-16-phone" stroke="none" stroke-width="1" fill="none" fill-rule="evenodd">
        <mask id="mask-2" fill="#7846C3">
            <use xlink:href="#path-1"></use>
        </mask>
        <use id="Stroke-208" fill="#7846C3" fill-rule="nonzero" xlink:href="#path-1"></use>
        <g id="colors/brand-black" mask="url(#mask-2)" fill="#7846C3">
            <rect id="Black-Color-Copy-3" x="0" y="0" width="16" height="16"></rect>
        </g>
    </g>
</svg>