<?xml version="1.0" encoding="utf-8"?>
<!-- Generator: Adobe Illustrator 21.0.2, SVG Export Plug-In . SVG Version: 6.00 Build 0)  -->
<svg version="1.1" id="Слой_1" xmlns="http://www.w3.org/2000/svg" xmlns:xlink="http://www.w3.org/1999/xlink" x="0px" y="0px"
	 width="16px" height="16px" viewBox="0 0 16 16" style="enable-background:new 0 0 16 16;" xml:space="preserve">
<style type="text/css">
	.st0{fill:#666666;}
</style>
<title>ico 16 photo</title>
<desc>Created with Sketch.</desc>
<g>
	<path id="path-1" class="st0" d="M8,4.8c2,0,3.6,1.6,3.6,3.6S10,12,8,12s-3.6-1.6-3.6-3.6S6,4.8,8,4.8z M8,5.8
		C6.6,5.8,5.4,7,5.4,8.4S6.6,11,8,11s2.6-1.2,2.6-2.6S9.4,5.8,8,5.8z M6.2,3L5.3,4C5.2,4.1,5,4.2,4.9,4.2H2.6C2.3,4.2,2,4.5,2,4.8
		v7.5C2,12.7,2.3,13,2.6,13h10.7c0.3,0,0.6-0.3,0.6-0.6V4.8c0-0.4-0.3-0.6-0.6-0.6h-2.3c-0.1,0-0.3-0.1-0.4-0.2L9.8,3H6.2z
		 M11.3,3.2h2c0.9,0,1.6,0.7,1.6,1.7v7.5c0,0.9-0.7,1.7-1.6,1.7H2.6C1.7,14,1,13.3,1,12.3V4.8c0-0.9,0.7-1.7,1.6-1.7h2l0.9-1
		C5.7,2.1,5.8,2,5.9,2h4.1c0.1,0,0.3,0.1,0.4,0.2L11.3,3.2z"/>
</g>
</svg>
