<?xml version="1.0" encoding="utf-8"?>
<!-- Generator: Adobe Illustrator 21.0.2, SVG Export Plug-In . SVG Version: 6.00 Build 0)  -->
<svg version="1.1" id="Слой_1" xmlns="http://www.w3.org/2000/svg" xmlns:xlink="http://www.w3.org/1999/xlink" x="0px" y="0px"
	 width="48px" height="48px" viewBox="0 0 48 48" enable-background="new 0 0 48 48" xml:space="preserve">
<title>ico 48 pre-presenter-increase</title>
<desc>Created with Sketch.</desc>
<g>
	<path id="path-1" fill="#7846C3" d="M26,16c0-4.7,2.5-8,7-8c4.5,0,7,3.3,7,8c0,4.7-2.5,8-7,8C28.5,24,26,20.7,26,16z M28,16
		c0,3.7,1.8,6,5,6c3.2,0,5-2.3,5-6c0-3.7-1.8-6-5-6C29.8,10,28,12.3,28,16z M24,33.9L7.4,32.8c-1.9,0-3.4-1.5-3.4-3.4
		C4,27.5,5.5,26,7.4,26H33c9.6,0,13,2.5,13,10v9c0,0.6-0.4,1-1,1s-1-0.4-1-1v-9c0-6.2-2.4-8-11-8H7.4C6.6,28,6,28.6,6,29.4
		c0,0.8,0.6,1.4,1.5,1.4L25.1,32c0.5,0,0.9,0.5,0.9,1v12c0,0.6-0.4,1-1,1s-1-0.4-1-1V33.9z M38,37c0-0.6,0.4-1,1-1s1,0.4,1,1v8
		c0,0.6-0.4,1-1,1s-1-0.4-1-1V37z M4,18h17c0.6,0,1,0.4,1,1s-0.4,1-1,1H3c-0.6,0-1-0.4-1-1V3c0-0.6,0.4-1,1-1s1,0.4,1,1V18z M15,9.6
		l5.3-5.3c0.4-0.4,1-0.4,1.4,0c0.4,0.4,0.4,1,0,1.4l-6,6c-0.4,0.4-1,0.4-1.4,0L13,10.4l-5.3,5.3c-0.4,0.4-1,0.4-1.4,0
		c-0.4-0.4-0.4-1,0-1.4l6-6c0.4-0.4,1-0.4,1.4,0L15,9.6z M20,6h-5c-0.6,0-1-0.4-1-1s0.4-1,1-1h6c0.6,0,1,0.4,1,1v6c0,0.6-0.4,1-1,1
		s-1-0.4-1-1V6z"/>
</g>
</svg>
