<?xml version="1.0" encoding="utf-8"?>
<!-- Generator: Adobe Illustrator 21.0.2, SVG Export Plug-In . SVG Version: 6.00 Build 0)  -->
<svg version="1.1" id="Capa_1" xmlns="http://www.w3.org/2000/svg" xmlns:xlink="http://www.w3.org/1999/xlink" x="0px" y="0px"
	 width="458.7px" height="458.7px" viewBox="0 0 458.7 458.7" enable-background="new 0 0 458.7 458.7" xml:space="preserve">
<g>
	<g>
		<g>
			<path fill="#7846C3" d="M276.6,104.2c20.4,0,37.1-16.7,37.1-37.1S297,30,276.6,30c-20.4,0-37.1,16.7-37.1,37.1
				S256.2,104.2,276.6,104.2z"/>
			<path fill="#7846C3" d="M378.6,243.2v-37.1c-34.3,0-63.9-18.5-80.6-45.4l-17.6-29.5c-6.5-11.1-18.5-17.6-31.5-17.6
				c-4.6,0-9.3,1-13.9,2.8l-97.3,39.9v87.1h37.1v-62.1l32.4-12.9l-28.8,149.2l-90.8-17.6l-7.4,36.1c0,0,129.7,25,129.7,26l17.6-81.6
				l39.9,37.1v111.2h37.1v-140l-38.1-38l11.1-55.6C301.6,224.7,337.7,243.2,378.6,243.2z"/>
		</g>
	</g>
</g>
</svg>
