<?xml version="1.0" encoding="utf-8"?>
<!-- Generator: Adobe Illustrator 21.0.2, SVG Export Plug-In . SVG Version: 6.00 Build 0)  -->
<svg version="1.1" id="Слой_1" xmlns="http://www.w3.org/2000/svg" xmlns:xlink="http://www.w3.org/1999/xlink" x="0px" y="0px"
	 width="16px" height="16px" viewBox="0 0 16 16" style="enable-background:new 0 0 16 16;" xml:space="preserve">
<style type="text/css">
	.st0{fill:#FFFFFF;}
	.st1{fill:#333333;}
</style>
<g>
	<path id="path-1" class="st0" d="M8.3,4c0.3,0,0.5,0.2,0.5,0.5S8.6,5,8.3,5h-7C1.3,5,1,5.3,1,5.3v8.3l0.3,0.3h9.4l0.3-0.3V8.8
		c0-0.3,0.2-0.5,0.5-0.5S12,8.6,12,8.8v4.8c0,0.6-0.7,1.3-1.3,1.3H1.3C0.7,15,0,14.2,0,13.7V5.3C0,4.8,0.7,4,1.3,4H8.3z M6.5,12
		c0,0.3-0.2,0.5-0.5,0.5S5.5,12.3,5.5,12c0-4.6,3.6-7.4,8.1-7.4H15c0.3,0,0.5,0.2,0.5,0.5S15.3,5.6,15,5.6h-1.4
		C9.7,5.6,6.5,7.9,6.5,12z M13.1,3.3c-0.2-0.2-0.2-0.5,0-0.7s0.5-0.2,0.7,0l2.1,2.1c0.2,0.2,0.2,0.5,0,0.7l-2.1,2.1
		c-0.2,0.2-0.5,0.2-0.7,0s-0.2-0.5,0-0.7L14.8,5L13.1,3.3z"/>
</g>
<title>ico 16 share</title>
<desc>Created with Sketch.</desc>
<g id="Stroke-14285">
	<path id="path-1_1_" class="st1" d="M8.3,4c0.3,0,0.5,0.2,0.5,0.5S8.6,5,8.3,5h-7C1.3,5,1,5.3,1,5.3v8.3l0.3,0.3h9.4l0.3-0.3V8.8
		c0-0.3,0.2-0.5,0.5-0.5S12,8.6,12,8.8v4.8c0,0.6-0.7,1.3-1.3,1.3H1.3C0.7,15,0,14.2,0,13.7V5.3C0,4.8,0.7,4,1.3,4H8.3z M6.5,12
		c0,0.3-0.2,0.5-0.5,0.5S5.5,12.3,5.5,12c0-4.6,3.6-7.4,8.1-7.4H15c0.3,0,0.5,0.2,0.5,0.5S15.3,5.6,15,5.6h-1.4
		C9.7,5.6,6.5,7.9,6.5,12z M13.1,3.3c-0.2-0.2-0.2-0.5,0-0.7s0.5-0.2,0.7,0l2.1,2.1c0.2,0.2,0.2,0.5,0,0.7l-2.1,2.1
		c-0.2,0.2-0.5,0.2-0.7,0s-0.2-0.5,0-0.7L14.8,5L13.1,3.3z"/>
</g>
</svg>
