<?xml version="1.0" encoding="utf-8"?>
<!-- Generator: Adobe Illustrator 21.0.2, SVG Export Plug-In . SVG Version: 6.00 Build 0)  -->
<svg version="1.1" id="Layer_1" xmlns="http://www.w3.org/2000/svg" xmlns:xlink="http://www.w3.org/1999/xlink" x="0px" y="0px"
	 width="54px" height="54px" viewBox="0 0 54 54" style="enable-background:new 0 0 54 54;" xml:space="preserve">
<style type="text/css">
	.st0{fill:#7846C3;}
</style>
<g>
	<path class="st0" d="M47.7,10.9c0-0.3-0.1-0.6-0.4-0.9l-9.7-9.7c0,0,0,0,0,0C37.4,0.1,37.1,0,36.7,0H9.9C8.4,0,7.2,1.2,7.2,2.7
		v48.7c0,1.5,1.2,2.7,2.7,2.7H45c1.5,0,2.7-1.2,2.7-2.7L47.7,10.9C47.7,10.9,47.7,10.9,47.7,10.9z M38,4.3l5.4,5.4h-5.2
		c-0.1,0-0.1-0.1-0.1-0.1V4.3z M45.2,51.3L45.2,51.3c0,0.1-0.1,0.1-0.1,0.1H9.9c-0.1,0-0.1-0.1-0.1-0.1V2.7c0-0.1,0.1-0.1,0.1-0.1
		h25.6v7c0,1.5,1.2,2.7,2.7,2.7h7V51.3z"/>
	<g>
		<g>
			<path class="st0" d="M31.3,29.5L31.3,29.5c-0.2-0.1-0.3-0.1-0.5-0.2c-0.2-0.1-0.3-0.1-0.5-0.2c-0.1,0-0.2-0.1-0.4-0.1
				c-0.2-0.1-0.4-0.1-0.6-0.2c-0.1,0-0.1,0-0.2,0l0,0c-0.1,0-0.2,0-0.4-0.1l0,0c0,0,0,0,0,0l0,0c-0.1,0-0.2,0-0.3,0l-0.4,0
				c-0.4,0-0.9,0-1.3,0l-0.1,0l-0.1,0l-0.1,0c-0.1,0-0.3,0-0.4,0.1l0,0c-0.1,0-0.2,0-0.3,0c-0.1,0-0.2,0-0.3,0.1
				c-0.2,0-0.4,0.1-0.6,0.1c-0.1,0-0.3,0.1-0.4,0.1l-0.1,0c-0.3,0.1-0.6,0.2-0.8,0.3l-0.1,0l0,0c-3.2,1.5-5.3,4.8-5.3,8.3
				c0,0.1,0,0.2,0,0.2l0,0.6h18.4l0-0.6c0-0.1,0-0.2,0-0.2C36.7,34.3,34.6,31,31.3,29.5z M19.1,37.8c0-3.2,1.9-6.1,4.8-7.4l0.1,0
				l0,0c0.2-0.1,0.5-0.2,0.7-0.3l0.1,0c0.1,0,0.3-0.1,0.4-0.1c0.2,0,0.3-0.1,0.5-0.1c0.1,0,0.2,0,0.3-0.1c0.1,0,0.1,0,0.2,0l0,0
				c0.1,0,0.3,0,0.4-0.1l0.3,0c0.4,0,0.8,0,1.2,0l0.3,0c0.1,0,0.1,0,0.2,0l0.1,0c0.1,0,0.2,0,0.3,0.1l0.1,0c0.1,0,0.1,0,0.2,0
				c0.2,0,0.4,0.1,0.5,0.1c0.1,0,0.2,0.1,0.3,0.1c0.1,0,0.3,0.1,0.4,0.2c0.1,0.1,0.3,0.1,0.4,0.2l0,0c2.9,1.3,4.8,4.3,4.9,7.5
				L19.1,37.8L19.1,37.8z M25.2,27.5c0.1,0,0.1,0.1,0.2,0.1l0.1,0.1c0.1,0,0.1,0,0.2,0.1c0.5,0.2,1.1,0.3,1.7,0.3l0,0
				c0.2,0,0.4,0,0.6,0c0.1,0,0.1,0,0.2,0l0.1,0c0.1,0,0.2,0,0.2,0c0.1,0,0.1,0,0.2,0l0.2,0c0.1,0,0.2,0,0.2-0.1c0,0,0.1,0,0.1,0
				l0.1,0c0.1,0,0.2-0.1,0.3-0.1c0,0,0.1,0,0.1,0l0,0c0.1-0.1,0.2-0.1,0.4-0.2l0.1,0c0.1-0.1,0.3-0.2,0.4-0.2c0.1,0,0.1-0.1,0.2-0.2
				l0.2-0.2c1.3-1.1,2.1-2.7,2.1-4.4l0,0c0-3.2-2.6-5.8-5.8-5.8c-3,0-5.6,2.4-5.8,5.4l0,0.1c0,0.1,0,0.2,0,0.3
				C21.7,24.5,23.1,26.6,25.2,27.5z M22.6,22L22.6,22c0.2-2.6,2.3-4.6,4.9-4.6c2.7,0,4.9,2.2,4.9,4.8l0,0c0,1.4-0.6,2.8-1.8,3.7
				l-0.2,0.2c0,0-0.1,0.1-0.2,0.1c-0.1,0.1-0.2,0.1-0.3,0.2l-0.1,0c-0.1,0.1-0.2,0.1-0.3,0.1l-0.1,0.1c-0.1,0-0.1,0.1-0.2,0.1
				L29,26.8c0,0-0.1,0-0.1,0c-0.1,0-0.1,0-0.2,0l-0.2,0c0,0-0.1,0-0.1,0c-0.1,0-0.1,0-0.2,0l-0.2,0c0,0-0.1,0-0.1,0
				c-0.2,0-0.3,0-0.5,0l0,0h0c-0.5,0-1-0.1-1.4-0.2c0,0-0.1,0-0.1,0l-0.2-0.1c-0.1,0-0.1,0-0.2-0.1c-1.8-0.8-3-2.5-3-4.5
				C22.6,22.1,22.6,22,22.6,22z"/>
			<path class="st0" d="M37.4,39.5h-20l-0.1-1.3c0-0.1,0-0.2,0-0.3c0-3.8,2.2-7.3,5.5-9l0,0l0.3-0.1c0.3-0.1,0.6-0.3,0.9-0.4l0.1,0
				c0.2-0.1,0.3-0.1,0.5-0.1c0.1,0,0.1,0,0.2,0c-2.4-1-3.9-3.4-3.9-6c0-0.1,0-0.2,0-0.3l0-0.1c0.2-3.4,3.1-6.1,6.5-6.1
				c3.6,0,6.6,2.9,6.6,6.6l0,0.1c0,1.9-0.9,3.7-2.4,5l0,0l-0.2,0.2c-0.1,0.1-0.2,0.1-0.2,0.2c-0.2,0.1-0.3,0.2-0.5,0.3l-0.1,0.1
				c-0.1,0.1-0.3,0.1-0.4,0.2l0,0c0,0-0.1,0-0.1,0c0,0,0.1,0,0.1,0c0.1,0,0.3,0.1,0.4,0.1c0.2,0.1,0.4,0.1,0.5,0.2
				c0.1,0.1,0.3,0.1,0.4,0.2l0.1,0c3.6,1.6,5.9,5.2,5.9,9.1c0,0.1,0,0.2,0,0.3L37.4,39.5z M19,37.9h0.1v-0.1l-0.1,0
				C19,37.8,19,37.9,19,37.9C19,37.9,19,37.9,19,37.9z M19.9,37h15c-0.3-2.6-2-4.9-4.4-6l0,0c-0.1-0.1-0.2-0.1-0.4-0.1
				c-0.1-0.1-0.3-0.1-0.4-0.1c-0.1,0-0.2-0.1-0.3-0.1c-0.2,0-0.3-0.1-0.5-0.1c0,0-0.1,0-0.2,0l-0.1,0c-0.1,0-0.2,0-0.3,0l-0.1,0
				c-0.1,0-0.1,0-0.2,0l-0.3,0c-0.4,0-0.7,0-1.1,0l-0.3,0c-0.1,0-0.2,0-0.3,0l0,0c-0.1,0-0.1,0-0.2,0l0,0c-0.1,0-0.2,0-0.2,0
				c-0.1,0-0.3,0.1-0.4,0.1c-0.1,0-0.2,0.1-0.4,0.1l-0.1,0c-0.2,0.1-0.3,0.1-0.5,0.2l0,0l-0.2,0.1C21.8,32.2,20.2,34.4,19.9,37z
				 M27.4,18.1c-2.1,0-3.9,1.7-4.1,3.8l0,0.1c0,0.1,0,0.1,0,0.2c0,1.6,1,3.1,2.5,3.8c0,0,0.1,0,0.1,0l0.2,0.1c0,0,0,0,0,0
				c0.4,0.1,0.8,0.2,1.2,0.2l0,0c0.1,0,0.3,0,0.4,0c0,0,0.1,0,0.1,0l0.2,0c0,0,0.1,0,0.1,0c0,0,0,0,0,0l0.3-0.1c0,0,0.1,0,0.1,0
				l0.2-0.1c0,0,0.1,0,0.1,0l0.1-0.1c0.1,0,0.2-0.1,0.2-0.1l0.1,0c0.1-0.1,0.2-0.1,0.3-0.2c0,0,0.1,0,0.1-0.1l0,0l0.2-0.2
				c0.9-0.8,1.5-1.9,1.5-3.1l0-0.1C31.5,19.9,29.7,18.1,27.4,18.1z"/>
		</g>
	</g>
</g>
</svg>
