<?xml version="1.0" encoding="utf-8"?>
<!-- Generator: Adobe Illustrator 21.0.2, SVG Export Plug-In . SVG Version: 6.00 Build 0)  -->
<svg version="1.1" id="Capa_1" xmlns="http://www.w3.org/2000/svg" xmlns:xlink="http://www.w3.org/1999/xlink" x="0px" y="0px"
	 width="50px" height="50px" viewBox="0 0 50 50" style="enable-background:new 0 0 50 50;" xml:space="preserve">
<style type="text/css">
	.st0{fill:#7846C3;}
</style>
<g>
	<g>
		<circle class="st0" cx="43.9" cy="7.4" r="1.4"/>
		<path class="st0" d="M43.9,8.8c-0.8,0-1.4-0.6-1.4-1.4S43.1,6,43.9,6c0.8,0,1.4,0.6,1.4,1.4S44.7,8.8,43.9,8.8z M43.9,6
			c-0.8,0-1.4,0.6-1.4,1.4s0.6,1.4,1.4,1.4s1.4-0.6,1.4-1.4S44.7,6,43.9,6z"/>
	</g>
	<g>
		<circle class="st0" cx="39.7" cy="7.4" r="1.4"/>
		<path class="st0" d="M39.7,8.8c-0.8,0-1.4-0.6-1.4-1.4S38.9,6,39.7,6s1.4,0.6,1.4,1.4S40.5,8.8,39.7,8.8z M39.7,6
			c-0.8,0-1.4,0.6-1.4,1.4s0.6,1.4,1.4,1.4s1.4-0.6,1.4-1.4S40.5,6,39.7,6z"/>
	</g>
	<g>
		<circle class="st0" cx="35.6" cy="7.4" r="1.4"/>
		<path class="st0" d="M35.6,8.8c-0.8,0-1.4-0.6-1.4-1.4S34.8,6,35.6,6C36.3,6,37,6.6,37,7.4S36.3,8.8,35.6,8.8z M35.6,6
			c-0.8,0-1.4,0.6-1.4,1.4s0.6,1.4,1.4,1.4c0.8,0,1.4-0.6,1.4-1.4S36.3,6,35.6,6z"/>
	</g>
	<path class="st0" d="M45.1,0.7H4.9C2.2,0.7,0,2.9,0,5.6v38.7c0,2.7,2.2,4.9,4.9,4.9h40.2c2.7,0,4.9-2.2,4.9-4.9V5.6
		C50,2.9,47.8,0.7,45.1,0.7z M48.2,43.9c0,2-1.7,3.7-3.7,3.7H5.6c-2.1,0-3.7-1.7-3.7-3.7V14c0-0.1,0.1-0.3,0.3-0.3h45.7
		c0.2,0,0.3,0.1,0.3,0.3V43.9z M48.2,11.4c0,0.3-0.2,0.5-0.4,0.5H2.4c-0.3,0-0.5-0.3-0.5-0.6V6.5c0-2.1,1.4-3.9,3.1-3.9h40.1
		c1.7,0,3.1,1.7,3.1,3.9V11.4z"/>
	<g>
		<path class="st0" d="M21,37.5l-6.9-6.9c-0.4-0.4-0.4-1.1,0-1.5l0,0c0.4-0.4,1.1-0.4,1.5,0l6.9,6.9c0.4,0.4,0.4,1.1,0,1.5v0
			C22.1,37.9,21.4,37.9,21,37.5z"/>
		<path class="st0" d="M21,36l13.3-13.3c0.4-0.4,1.1-0.4,1.5,0l0,0c0.4,0.4,0.4,1.1,0,1.5L22.5,37.5c-0.4,0.4-1.1,0.4-1.5,0l0,0
			C20.6,37.1,20.6,36.4,21,36z"/>
	</g>
</g>
</svg>
