<?xml version="1.0" encoding="utf-8"?>
<!-- Generator: Adobe Illustrator 21.0.2, SVG Export Plug-In . SVG Version: 6.00 Build 0)  -->
<svg version="1.1" id="Слой_1" xmlns="http://www.w3.org/2000/svg" xmlns:xlink="http://www.w3.org/1999/xlink" x="0px" y="0px"
	 width="208px" height="90px" viewBox="0 0 208 90" style="enable-background:new 0 0 208 90;" xml:space="preserve">
<style type="text/css">
	.st0{fill:#516AA6;}
	.st1{fill:#DD9D4E;}
</style>
<g>
	<path class="st0" d="M85.9,47.7l-9.5,25.7l-1-5.2c-2.4-6.4-7.5-13.1-13.5-15.8l8.7,33l10.3,0l15.3-37.6H85.9L85.9,47.7z"/>
	<polygon class="st0" points="94,85.4 100.1,47.7 109.8,47.7 103.8,85.4 94,85.4 	"/>
	<path class="st0" d="M139.1,48.6c-1.9-0.8-5-1.6-8.7-1.6c-9.6,0-16.4,5.1-16.4,12.4c-0.1,5.4,4.8,8.4,8.5,10.2
		c3.8,1.8,5.1,3,5.1,4.7c0,2.5-3,3.7-5.8,3.7c-3.9,0-6-0.6-9.2-2l-1.3-0.6l-1.4,8.4c2.3,1,6.5,2,10.8,2c10.2,0,16.9-5.1,16.9-12.9
		c0-4.3-2.6-7.6-8.2-10.2c-3.4-1.7-5.5-2.9-5.5-4.7c0-1.6,1.8-3.2,5.6-3.2c3.2-0.1,5.5,0.7,7.3,1.4l0.9,0.4L139.1,48.6L139.1,48.6z"
		/>
	<path class="st0" d="M164,47.7h-7.5c-2.3,0-4.1,0.7-5.1,3.1l-14.4,34.5h10.2c0,0,1.7-4.6,2-5.7c1.1,0,11,0,12.5,0
		c0.3,1.3,1.2,5.6,1.2,5.6h9L164,47.7L164,47.7z M152,72c0.8-2.2,3.9-10.5,3.9-10.5c-0.1,0.1,0.8-2.2,1.3-3.6l0.6,3.2
		c0,0,1.9,9,2.3,10.9C158.6,72,153.9,72,152,72L152,72z"/>
	<path class="st1" d="M67.5,47.7H51.8l-0.1,0.6C63.9,51.5,72,59.2,75.3,68.2l-3.4-17.3C71.3,48.5,69.6,47.8,67.5,47.7L67.5,47.7z"/>
	<polygon class="st0" points="22.4,38.6 16.2,38.6 9,6.3 15.9,5.2 20.8,30.4 33.2,5.5 39.8,5.5 22.4,38.6 	"/>
	<path class="st0" d="M54.6,28.1H39.8c-0.4,4.5,1.7,6.4,5.2,6.4c3,0,5.6-1.1,8.4-2.9l0,4.5c-2.7,1.7-5.9,2.8-9.6,2.8
		c-6.4,0-10.7-3.7-9.4-12c1.2-7.5,6.3-12,12.4-12c6.9,0,9.2,5.2,8.2,11.7C54.8,27.2,54.7,27.7,54.6,28.1L54.6,28.1z M45.9,18.9
		c-2.3,0-4.4,1.8-5.4,5.6h9.2C49.8,20.9,48.7,18.9,45.9,18.9L45.9,18.9z"/>
	<path class="st0" d="M64.3,25.2l-2,13.2h-5.7l3.5-23.1h4.9l0,4.6c1.9-2.7,4.6-4.9,8.2-5.1l0,5.7C69.5,20.9,66.3,22.8,64.3,25.2
		L64.3,25.2z"/>
	<path class="st0" d="M73.1,38.5l3.5-23.1h5.7l-3.5,23.1H73.1L73.1,38.5z M80.1,11.5c-1.9,0-3.2-1.3-2.9-3.2c0.3-2,2-3.3,4-3.3
		C83,5,84.3,6.3,84,8.3C83.7,10.2,82,11.5,80.1,11.5L80.1,11.5z"/>
	<path class="st0" d="M98.2,9.1c-2,0-3.1,0.9-3.5,2.9l-0.5,3.4h4.4l0,4.7h-5.1l-2.8,18.4H85l2.8-18.4h-3.3l0.7-4.7h3.3l0.6-4
		c0.8-5.1,4.3-7,9.1-7c1,0,1.8,0.1,2.3,0.2l0,4.7C100,9.2,99.2,9.1,98.2,9.1L98.2,9.1z"/>
	<path class="st0" d="M98.3,38.5l3.5-23.1h5.7L104,38.5H98.3L98.3,38.5z M105.3,11.5c-1.9,0-3.2-1.3-2.9-3.2c0.3-2,2-3.3,4-3.3
		c1.9,0,3.2,1.4,2.9,3.3C108.9,10.2,107.2,11.5,105.3,11.5L105.3,11.5z"/>
	<path class="st0" d="M129.8,28.1H115c-0.4,4.5,1.7,6.4,5.2,6.4c3,0,5.6-1.1,8.4-2.9l0,4.5c-2.7,1.7-5.9,2.8-9.6,2.8
		c-6.4,0-10.7-3.7-9.4-12c1.2-7.5,6.3-12,12.4-12c6.9,0,9.2,5.2,8.2,11.7C130,27.2,129.8,27.7,129.8,28.1L129.8,28.1z M121.1,18.9
		c-2.3,0-4.4,1.8-5.4,5.6h9.2C125,20.9,123.8,18.9,121.1,18.9L121.1,18.9z"/>
	<path class="st0" d="M146.7,38.5l0-3.2c-1.9,2-4.4,3.7-7.6,3.7c-4.8,0-8.1-3.6-6.9-11.4c1.3-8.6,6.6-12.4,12-12.4
		c2.2,0,3.9,0.4,5.2,0.9l1.7-11.1L157,4l-5.3,34.5H146.7L146.7,38.5z M148.7,20.8c-1.3-0.7-2.4-1-4.3-1c-3,0-5.6,2.4-6.4,7.5
		c-0.7,4.5,0.9,6.6,3.4,6.6c2.1,0,3.9-1.2,5.7-3.2L148.7,20.8L148.7,20.8z"/>
	<path class="st0" d="M169.2,38.7c-2.7,0-4.9-0.4-7-1.2L166,13l4.4-0.7L168.8,23c1.3-1.2,3.1-2.3,5.3-2.3c3.7,0,6.2,2.7,5.3,8.6
		C178.4,35.7,174.4,38.7,169.2,38.7L169.2,38.7z M172.4,24.5c-1.4,0-2.9,1-4.2,2.3l-1.2,7.9c0.9,0.3,1.4,0.5,2.7,0.5
		c2.7,0,4.7-1.7,5.3-5.6C175.5,26.1,174.4,24.5,172.4,24.5L172.4,24.5z"/>
	<path class="st0" d="M189.6,39.4c-2.2,4.3-4.4,5.6-7.8,5.6c-0.8,0-1.2-0.1-1.6-0.2l0-3.6c0.6,0.1,1.2,0.3,2,0.3
		c1.3,0,2.4-0.6,3.1-1.8l0.6-1.2l-3.7-17.2l4.6-0.6l2.1,12.4l5.8-12.2h4.3L189.6,39.4L189.6,39.4z"/>
</g>
</svg>
