<?xml version="1.0" encoding="utf-8"?>
<!-- Generator: Adobe Illustrator 21.0.2, SVG Export Plug-In . SVG Version: 6.00 Build 0)  -->
<svg version="1.1" id="Слой_1" xmlns="http://www.w3.org/2000/svg" xmlns:xlink="http://www.w3.org/1999/xlink" x="0px" y="0px"
	 width="48px" height="48px" viewBox="0 0 48 48" enable-background="new 0 0 48 48" xml:space="preserve">
<title>ico 48 tim-clock</title>
<desc>Created with Sketch.</desc>
<g id="Stroke-492">
	<path id="path-1_1_" fill="#7846C3" d="M3,24C3,12.4,12.4,3,24,3s21,9.4,21,21s-9.4,21-21,21S3,35.6,3,24z M5,24
		c0,10.5,8.5,19,19,19s19-8.5,19-19S34.5,5,24,5S5,13.5,5,24z M23,14c0-0.6,0.4-1,1-1s1,0.4,1,1v10c0,0.6-0.4,1-1,1s-1-0.4-1-1V14z
		 M23.3,24.7c-0.4-0.4-0.4-1,0-1.4c0.4-0.4,1-0.4,1.4,0l8,8c0.4,0.4,0.4,1,0,1.4c-0.4,0.4-1,0.4-1.4,0L23.3,24.7z M23,8
		c0-0.6,0.4-1,1-1s1,0.4,1,1v2c0,0.6-0.4,1-1,1s-1-0.4-1-1V8z M25,40c0,0.6-0.4,1-1,1s-1-0.4-1-1v-2c0-0.6,0.4-1,1-1s1,0.4,1,1V40z
		 M8,25c-0.6,0-1-0.4-1-1s0.4-1,1-1h2c0.6,0,1,0.4,1,1s-0.4,1-1,1H8z M40,23c0.6,0,1,0.4,1,1s-0.4,1-1,1h-2c-0.6,0-1-0.4-1-1
		s0.4-1,1-1H40z M15.1,10.6c-0.3-0.5-0.1-1.1,0.4-1.4s1.1-0.1,1.4,0.4l1,1.7c0.3,0.5,0.1,1.1-0.4,1.4s-1.1,0.1-1.4-0.4L15.1,10.6z
		 M32.9,37.4c0.3,0.5,0.1,1.1-0.4,1.4c-0.5,0.3-1.1,0.1-1.4-0.4l-1-1.7c-0.3-0.5-0.1-1.1,0.4-1.4s1.1-0.1,1.4,0.4L32.9,37.4z
		 M10.6,32.9c-0.5,0.3-1.1,0.1-1.4-0.4C9,32,9.2,31.4,9.6,31.1l1.7-1c0.5-0.3,1.1-0.1,1.4,0.4s0.1,1.1-0.4,1.4L10.6,32.9z
		 M37.4,15.1c0.5-0.3,1.1-0.1,1.4,0.4c0.3,0.5,0.1,1.1-0.4,1.4l-1.7,1c-0.5,0.3-1.1,0.1-1.4-0.4s-0.1-1.1,0.4-1.4L37.4,15.1z
		 M9.6,16.9C9.2,16.6,9,16,9.3,15.5c0.3-0.5,0.9-0.6,1.4-0.4l1.7,1c0.5,0.3,0.6,0.9,0.4,1.4s-0.9,0.6-1.4,0.4L9.6,16.9z M38.4,31.1
		c0.5,0.3,0.6,0.9,0.4,1.4c-0.3,0.5-0.9,0.6-1.4,0.4l-1.7-1c-0.5-0.3-0.6-0.9-0.4-1.4s0.9-0.6,1.4-0.4L38.4,31.1z M16.9,38.4
		c-0.3,0.5-0.9,0.6-1.4,0.4s-0.6-0.9-0.4-1.4l1-1.7c0.3-0.5,0.9-0.6,1.4-0.4s0.6,0.9,0.4,1.4L16.9,38.4z M31.1,9.6
		C31.4,9.2,32,9,32.5,9.3c0.5,0.3,0.6,0.9,0.4,1.4l-1,1.7c-0.3,0.5-0.9,0.6-1.4,0.4s-0.6-0.9-0.4-1.4L31.1,9.6z"/>
</g>
</svg>
