<?xml version="1.0" encoding="utf-8"?>
<!-- Generator: Adobe Illustrator 21.0.2, SVG Export Plug-In . SVG Version: 6.00 Build 0)  -->
<svg version="1.1" id="Слой_1" xmlns="http://www.w3.org/2000/svg" xmlns:xlink="http://www.w3.org/1999/xlink" x="0px" y="0px"
	 width="24px" height="24px" viewBox="0 0 24 24" style="enable-background:new 0 0 24 24;" xml:space="preserve">
<style type="text/css">
	.st0{fill:#7846C3;}
</style>
<title>ico 24 wallet solid</title>
<desc>Created with Sketch.</desc>
<g id="Fill-213">
	<path id="path-1_1_" class="st0" d="M17,14c-0.6,0-1-0.4-1-1s0.4-1,1-1s1,0.4,1,1S17.6,14,17,14L17,14z M3.5,5C2.9,5,2.4,5.2,2,5.5
		v0C2,4.7,2.7,4,3.5,4h15C19.3,4,20,4.7,20,5.5v0C19.6,5.2,19.1,5,18.5,5H3.5z M23,8.5c0-1.2-0.9-2.3-2-2.5c0-0.3,0-0.5,0-0.5
		C21,4.1,19.9,3,18.5,3h-15C2.1,3,1,4.1,1,5.5v13C1,19.9,2.1,21,3.5,21h15c1.4,0,2.5-1.1,2.5-2.5V17c-0.2,0-0.3,0-0.5,0H17
		c-2.2,0-4-1.8-4-4s1.8-4,4-4h3.5C20.8,9,21,8.8,21,8.5c0,0,0-0.7,0-1.4c0.6,0.2,1,0.8,1,1.4c0,0.8-0.7,1.5-1.5,1.5H17
		c-1.7,0-3,1.3-3,3s1.3,3,3,3h3.5c1.4,0,2.5-1.1,2.5-2.5V8.5z"/>
</g>
<g>
	<path id="path-1" class="st0" d="M17,14c-0.6,0-1-0.4-1-1s0.4-1,1-1s1,0.4,1,1S17.6,14,17,14L17,14z M3.5,5C2.9,5,2.4,5.2,2,5.5v0
		C2,4.7,2.7,4,3.5,4h15C19.3,4,20,4.7,20,5.5v0C19.6,5.2,19.1,5,18.5,5H3.5z M23,8.5c0-1.2-0.9-2.3-2-2.5c0-0.3,0-0.5,0-0.5
		C21,4.1,19.9,3,18.5,3h-15C2.1,3,1,4.1,1,5.5v13C1,19.9,2.1,21,3.5,21h15c1.4,0,2.5-1.1,2.5-2.5V17c-0.2,0-0.3,0-0.5,0H17
		c-2.2,0-4-1.8-4-4s1.8-4,4-4h3.5C20.8,9,21,8.8,21,8.5c0,0,0-0.7,0-1.4c0.6,0.2,1,0.8,1,1.4c0,0.8-0.7,1.5-1.5,1.5H17
		c-1.7,0-3,1.3-3,3s1.3,3,3,3h3.5c1.4,0,2.5-1.1,2.5-2.5V8.5z"/>
</g>
</svg>
