<?xml version="1.0" encoding="utf-8"?>
<!-- Generator: Adobe Illustrator 21.0.2, SVG Export Plug-In . SVG Version: 6.00 Build 0)  -->
<svg version="1.1" id="Слой_1" xmlns="http://www.w3.org/2000/svg" xmlns:xlink="http://www.w3.org/1999/xlink" x="0px" y="0px"
	 width="24px" height="24px" viewBox="0 0 24 24" style="enable-background:new 0 0 24 24;" xml:space="preserve">
<style type="text/css">
	.st0{fill:#333333;}
</style>
<title>ico 24 wallet</title>
<desc>Created with Sketch.</desc>
<g id="Stroke-272">
	<path id="path-1_1_" class="st0" d="M20,15.5c0-0.3,0.2-0.5,0.5-0.5s0.5,0.2,0.5,0.5v3c0,1.3-1.2,2.5-2.5,2.5h-15
		C2.2,21,1,19.8,1,18.5v-13C1,4.2,2.2,3,3.5,3h15C19.8,3,21,4.2,21,5.5V7c0,0.3-0.2,0.5-0.5,0.5S20,7.3,20,7V5.5
		C20,4.7,19.3,4,18.5,4h-15C2.7,4,2,4.7,2,5.5v13C2,19.3,2.7,20,3.5,20h15c0.8,0,1.5-0.7,1.5-1.5V15.5z M18,13c0,0.6-0.4,1-1,1
		c-0.6,0-1-0.4-1-1s0.4-1,1-1C17.6,12,18,12.4,18,13z M21,10.5c0,0.3-0.2,0.5-0.5,0.5S20,10.8,20,10.5v-3C20,6.7,19.3,6,18.5,6h-15
		C3.2,6,3,5.8,3,5.5S3.2,5,3.5,5h15C19.8,5,21,6.2,21,7.5V10.5z M20.5,11H17c-1.1,0-2,0.9-2,2s0.9,2,2,2h3.5c0.8,0,1.5-0.7,1.5-1.5
		v-3C21.6,10.8,21.1,11,20.5,11z M23,8.9v4.6c0,1.4-1.1,2.5-2.5,2.5H17c-1.7,0-3-1.3-3-3s1.3-3,3-3h3.5c0.8,0,1.5-0.7,1.5-1.5
		S21.3,7,20.5,7C20.2,7,20,6.8,20,6.5S20.2,6,20.5,6C21.9,6,23,7.1,23,8.5c0,0.1,0,0.2,0,0.3C23,8.8,23,8.8,23,8.9z"/>
</g>
</svg>
