<?xml version="1.0" encoding="utf-8"?>
<!-- Generator: Adobe Illustrator 21.0.2, SVG Export Plug-In . SVG Version: 6.00 Build 0)  -->
<svg version="1.1" id="Слой_1" xmlns="http://www.w3.org/2000/svg" xmlns:xlink="http://www.w3.org/1999/xlink" x="0px" y="0px"
	 width="115px" height="24px" viewBox="0 0 115 24" style="enable-background:new 0 0 115 24;" xml:space="preserve">
<style type="text/css">
	.st0{fill:#FFFFFF;}
	.st1{fill-rule:evenodd;clip-rule:evenodd;fill:#FFFFFF;}
</style>
<g>
	<path class="st0" d="M43.8,11.1h8.1v1.6h-3.2v8.2h-1.7v-8.2h-3.2V11.1z"/>
	<path class="st0" d="M56.5,20.3c-0.6,0.5-1.5,0.8-2.4,0.8c-2,0-3.4-1.3-3.4-3.3c0-1.8,1.3-3.3,3.3-3.3c1.6,0,3,1.2,3,2.9
		c0,0.4,0,0.6-0.1,0.9h-4.6c0.1,1,0.9,1.5,1.9,1.5c0.8,0,1.4-0.3,1.8-0.6L56.5,20.3z M52.3,17.1h3.1c0-0.8-0.5-1.4-1.4-1.4
		C53,15.8,52.5,16.3,52.3,17.1z"/>
	<path class="st0" d="M64.2,20c-0.5,0.7-1.5,1.1-2.5,1.1c-2.1,0-3.4-1.3-3.4-3.3c0-1.8,1.4-3.3,3.3-3.3c1,0,2,0.3,2.5,0.9l-0.8,1.3
		c-0.5-0.5-1-0.6-1.6-0.6c-0.9,0-1.8,0.7-1.8,1.8c0,1.1,0.9,1.8,1.8,1.8c0.7,0,1.2-0.3,1.6-0.8L64.2,20z"/>
	<path class="st0" d="M65.3,11.1h1.6v4.1c0.4-0.4,1.1-0.7,1.8-0.7c1.5,0,2.6,0.8,2.6,2.8v3.7h-1.6v-3.5c0-0.9-0.5-1.5-1.4-1.5
		c-0.5,0-1,0.2-1.4,0.6v4.3h-1.6V11.1z"/>
	<path class="st0" d="M73,14.6h1.6v0.6c0.4-0.4,1.1-0.7,1.8-0.7c1.5,0,2.6,0.7,2.6,2.7v3.7h-1.6v-3.4c0-1-0.5-1.5-1.4-1.5
		c-0.5,0-1,0.2-1.4,0.6v4.3H73V14.6z"/>
	<path class="st0" d="M83.7,14.4c2.1,0,3.4,1.4,3.4,3.3s-1.4,3.3-3.4,3.3c-2.1,0-3.4-1.4-3.4-3.3S81.6,14.4,83.7,14.4z M83.7,19.5
		c1,0,1.7-0.7,1.7-1.8c0-1.1-0.7-1.8-1.7-1.8c-1,0-1.7,0.7-1.7,1.8C82,18.8,82.7,19.5,83.7,19.5z"/>
	<path class="st0" d="M88.5,11.1h1.6v7.4c0,0.7,0.2,1,0.5,1c0.3,0,0.5-0.1,0.7-0.3l0.3,1.2C91.3,20.8,90.8,21,90,21
		c-1,0-1.5-0.6-1.5-1.9V11.1z"/>
	<path class="st0" d="M96.1,14.4c2.1,0,3.4,1.4,3.4,3.3s-1.4,3.3-3.4,3.3c-2.1,0-3.4-1.4-3.4-3.3S94,14.4,96.1,14.4z M96.1,19.5
		c1,0,1.7-0.7,1.7-1.8c0-1.1-0.7-1.8-1.7-1.8c-1,0-1.7,0.7-1.7,1.8C94.4,18.8,95.1,19.5,96.1,19.5z"/>
	<path class="st0" d="M102.2,19.8c-0.1-0.1-0.1-0.3-0.1-0.4c0-0.2,0-0.3,0.1-0.5c-1-0.4-1.5-1.2-1.5-2.1c0-1.3,1-2.4,2.7-2.4
		c0.6,0,1.2,0.2,1.6,0.5l1.9-0.4l0.1,1.3L106,16c0.1,0.3,0.2,0.5,0.2,0.8c0,1.3-1.1,2.3-2.7,2.3h-0.1c0,0.1,0,0.2,0,0.2
		c0,0.1,0,0.2,0.1,0.3h0.1c1.8,0,3.3,0.6,3.3,2.1c0,1.4-1.4,2.1-3.3,2.1c-1.8,0-3.3-0.6-3.3-2.1C100.1,20.7,101,20.1,102.2,19.8z
		 M103.4,22.5c1.1,0,1.8-0.3,1.8-0.8c0-0.5-0.6-0.8-1.8-0.8c-1.2,0-1.8,0.3-1.8,0.8C101.7,22.2,102.3,22.5,103.4,22.5z M103.4,17.8
		c0.7,0,1.2-0.4,1.2-1c0-0.6-0.4-1.1-1.2-1.1c-0.7,0-1.2,0.5-1.2,1.1C102.2,17.4,102.7,17.8,103.4,17.8z"/>
	<path class="st0" d="M112.5,20.9c-0.9,2.3-1.5,2.8-2.4,2.8c-0.6,0-1-0.2-1.4-0.5l0.5-1.2c0.2,0.1,0.4,0.2,0.7,0.2
		c0.4,0,0.7-0.3,1-1l0.1-0.3l-2.9-6.3h1.9l1.5,3.5c0.1,0.3,0.2,0.6,0.3,0.9c0.1-0.3,0.1-0.6,0.2-0.9l1.1-3.4h1.8L112.5,20.9z"/>
	<g>
		<path class="st0" d="M31.4,11h1.5l4.2,9.9h-1.8l-1-2.5H30l-1,2.5h-1.7L31.4,11z M30.6,16.8h2.9l-1.4-3.5L30.6,16.8z"/>
	</g>
	<g>
		<path class="st0" d="M35.8,14.5l0.6-0.8c0.3,0.5,0.8,0.8,1.4,0.8c0.7,0,1-0.4,1-0.9c0-0.6-0.5-0.9-1.2-0.9h-0.5v-1.1h0.4
			c0.5,0,1-0.3,1-0.9c0-0.5-0.3-0.8-0.8-0.8c-0.5,0-0.9,0.2-1.2,0.7L36,9.9c0.4-0.7,1-1,1.9-1c1.1,0,1.9,0.6,1.9,1.6
			c0,0.7-0.3,1.2-1,1.5v0c0.8,0.1,1.2,0.8,1.2,1.5c0,1.2-0.9,1.9-2.1,1.9C36.9,15.5,36.2,15.1,35.8,14.5z"/>
	</g>
	<path class="st1" d="M10.6,14.9c1,0,1.9,0.8,1.9,1.9c0,1.1-1,2-2.1,1.9l-2.6,4.6c0,0.1-0.1,0.2-0.2,0.2c-0.1,0.1-0.4,0.1-0.4,0.1
		H1.9c-0.8,0-1.3-1-0.9-1.6L9.5,7.2c0.5-0.9,1.4-0.8,1.8-0.1l7.7,13.5c0.8,0,1.5,0.6,1.5,1.5c0,0.8-0.7,1.5-1.5,1.5
		c-0.8,0-1.5-0.7-1.5-1.5c0-0.5,0.2-0.9,0.6-1.2c0,0-6.8-11.9-7.4-12.9c-0.2-0.3-0.5-0.3-0.8,0C9.6,8.8,4.6,17.5,2,22
		c-0.2,0.3-0.1,0.7,0.3,0.7c0.4,0,3.7,0,4.4,0c0.5,0,0.5-0.2,0.7-0.4c0.2-0.3,1.4-2.5,2.2-3.9c-0.5-0.3-0.9-0.9-0.9-1.6
		C8.7,15.7,9.6,14.9,10.6,14.9L10.6,14.9z M19.1,21.3c0.4,0,0.8,0.3,0.8,0.8c0,0.4-0.3,0.8-0.8,0.8c-0.4,0-0.8-0.3-0.8-0.8
		C18.4,21.7,18.7,21.3,19.1,21.3L19.1,21.3z M10.6,15.6c0.6,0,1.1,0.5,1.1,1.1c0,0.6-0.5,1.1-1.1,1.1c-0.6,0-1.1-0.5-1.1-1.1
		C9.5,16.1,10,15.6,10.6,15.6L10.6,15.6z M10.6,15.6"/>
	<path class="st1" d="M21.8,20.3L13.6,6C13.9,5.7,14,5.4,14,5c0-0.8-0.7-1.5-1.5-1.5c-0.8,0-1.5,0.7-1.5,1.5c0,0.8,0.7,1.5,1.5,1.5
		c0.1,0,0.2,0,0.3,0L21,20.7c0.1,0.2,0.4,0.3,0.6,0.2C21.8,20.7,21.8,20.5,21.8,20.3L21.8,20.3z M12.6,4.3c0.4,0,0.8,0.3,0.8,0.8
		c0,0.4-0.3,0.8-0.8,0.8c-0.4,0-0.8-0.3-0.8-0.8C11.8,4.6,12.1,4.3,12.6,4.3L12.6,4.3z M12.6,4.3"/>
	<path class="st1" d="M22.2,15.5c0.8,0,1.5,0.7,1.5,1.5c0,0.8-0.7,1.5-1.5,1.5c-0.8,0-1.5-0.7-1.5-1.5c0-0.4,0.2-0.7,0.4-1L13.1,1.5
		c0,0-0.1-0.2,0-0.3c0-0.1,0.1-0.3,0.2-0.3c0.1,0,0.2-0.1,0.2,0c0.2,0,0.3,0.1,0.3,0.2l8.1,14.4C22,15.5,22.1,15.5,22.2,15.5
		L22.2,15.5z M22.2,16.1c0.4,0,0.8,0.3,0.8,0.8c0,0.4-0.3,0.8-0.8,0.8s-0.8-0.3-0.8-0.8C21.5,16.5,21.8,16.1,22.2,16.1z"/>
</g>
</svg>
