<?xml version="1.0" encoding="utf-8"?>
<!-- Generator: Adobe Illustrator 21.0.2, SVG Export Plug-In . SVG Version: 6.00 Build 0)  -->
<svg version="1.1" id="Layer_1" xmlns="http://www.w3.org/2000/svg" xmlns:xlink="http://www.w3.org/1999/xlink" x="0px" y="0px"
	 width="579.3px" height="575px" viewBox="0 0 579.3 575" style="enable-background:new 0 0 579.3 575;" xml:space="preserve">
<style type="text/css">
	.st0{fill:#F0B551;}
	.st1{fill:#EDC654;}
	.st2{fill:#EFDC81;}
	.st3{fill:#F4EFEF;}
</style>
<g>
	<polygon class="st0" points="37.6,373 257.6,501 257.6,261.4 37.6,133 	"/>
</g>
<g>
	<polygon class="st1" points="257.6,501 477.6,373 477.6,133 257.6,261.4 	"/>
</g>
<g>
	<polygon class="st2" points="477.6,133 259.2,5 38.8,133 259.2,261.4 	"/>
</g>
<g>
	<polygon class="st3" points="167.6,57.8 385.6,182.2 385.6,422.6 345.6,445.8 345.6,207.4 127.2,79.8 	"/>
</g>
<g>
	<path d="M255.6,504.2c-0.8,0-1.2,0-2-0.4l-220-128c-1.2-0.8-2-2-2-3.6v-240c0-1.6,0.8-2.8,2-3.6s2.8-0.8,4,0l220,128
		c1.2,0.8,2,2,2,3.6v240c0,1.6-0.8,2.8-2,3.6C256.8,503.8,256.4,504.2,255.6,504.2z M39.6,369.8l212,123.6V263l-212-123.6
		C39.6,139.4,39.6,369.8,39.6,369.8z"/>
</g>
<g>
	<path d="M256,504.2c-1.2,0-2.8-0.8-3.6-2c-1.2-2-0.4-4.4,1.6-5.6l217.6-126.8V139.4L259.2,263.8c-2,1.2-4.4,0.4-5.6-1.6
		c-1.2-2-0.4-4.4,1.6-5.6l218.4-128c1.2-0.8,2.8-0.8,4,0s2,2,2,3.6v240c0,1.6-0.8,2.8-2,3.6L258,503.8
		C257.6,503.8,256.8,504.2,256,504.2z"/>
</g>
<g>
	<path d="M35.6,136.2c-1.2,0-2.8-0.8-3.6-2c-1.2-2-0.4-4.4,1.6-5.6l223.6-128c1.2-0.8,2.8-0.8,4,0l216.4,128c2,1.2,2.4,3.6,1.6,5.6
		c-1.2,2-3.6,2.4-5.6,1.6L259.2,9L37.6,135.8C36.8,136.2,36.4,136.2,35.6,136.2z"/>
</g>
<g>
	<path d="M343.3,208.6c-0.9,0-1.3,0-2.2-0.4l-213-124.1c-2.2-1.3-2.6-3.9-1.7-6.1s3.9-2.6,6.1-1.7l212.9,124.1
		c2.2,1.3,2.6,3.9,1.7,6.1C346.3,207.7,345,208.6,343.3,208.6z"/>
</g>
<g>
	<path d="M384.4,187.8c-0.8,0-1.2,0-2-0.4l-215.2-126c-2-1.2-2.4-3.6-1.6-5.6c1.2-2,3.6-2.4,5.6-1.6l215.2,126
		c2,1.2,2.4,3.6,1.6,5.6C387.2,187,386,187.8,384.4,187.8z"/>
</g>
<g>
	<path d="M343.6,448.6c-2.4,0-4-1.6-4-4v-232c0-2.4,1.6-4,4-4s4,1.6,4,4v232C347.6,447,346,448.6,343.6,448.6z"/>
</g>
<g>
	<path d="M383.6,425.3c-2.4,0-4-1.7-4-4.3V184.9c0-2.6,1.6-4.3,4-4.3s4,1.7,4,4.3V421C387.6,423.6,386,425.3,383.6,425.3z"/>
</g>
<g>
	<g>
		<rect x="109.9" y="360.4" transform="matrix(0.5019 -0.8649 0.8649 0.5019 -345.3435 330.6598)" width="9" height="209.5"/>
	</g>
	<g>
		<g>
			<polygon points="25.8,429.2 27.6,414.9 39.2,406.2 5.2,401.8 			"/>
		</g>
	</g>
	<g>
		<g>
			<path d="M223.7,528.7c-10.7-1.9-25-2.6-35.2-0.6l13.9-11.7l3.2-17.9C209.1,508.3,216.8,520.3,223.7,528.7z"/>
		</g>
	</g>
</g>
<g>
	<g>
		<rect x="292" y="462" transform="matrix(0.865 -0.5017 0.5017 0.865 -180.2472 262.974)" width="213.4" height="9"/>
	</g>
	<g>
		<g>
			<polygon points="475.6,406.5 487.1,415.2 488.9,429.6 509.6,402.2 			"/>
		</g>
	</g>
	<g>
		<g>
			<path d="M287.6,531c6.9-8.4,14.7-20.4,18-30.3l3.2,17.9l13.9,11.7C312.5,528.4,298.3,529.1,287.6,531z"/>
		</g>
	</g>
</g>
<g>
	<g>
		<rect x="513.1" y="144.5" width="9" height="194.4"/>
	</g>
	<g>
		<g>
			<polygon points="504.2,154.6 517.6,148.9 530.9,154.6 517.6,123 			"/>
		</g>
	</g>
	<g>
		<g>
			<path d="M517.6,360.7c-3.8-10.2-10.3-22.9-17.1-30.8l17.1,6.2l17.1-6.2C527.8,337.8,521.4,350.4,517.6,360.7z"/>
		</g>
	</g>
</g>
<g>
	<path d="M373.2,496.3l18.2,31.3l3.1-1.7l6.7,12.2l-3.5,2.1l-5.2-8.2l-22,12.8l4.6,8.6l-3.5,2.1l-7.3-11.8l2.6-1.6
		c-0.1-3.1-0.3-6.4-1-9.7c-1.2-4.7-3.4-9.7-6.9-15.7l-5.2-8.9L373.2,496.3z M363.9,515.6c3.3,5.6,5.5,10.6,6.5,15.3
		c0.7,2.9,1,5.8,1,8.3l15.4-9l-16-27.5L360,509L363.9,515.6z"/>
	<path d="M407.1,489.8l14.6,25.1l-4.5,2.6L404.7,496l-8.6,5l3.8,6.5c4.1,7,6.2,12.2,4.2,16.2c-0.7,1.7-1.7,3.1-4.1,4.5l-2.6-3.3
		c0.8-0.7,1.6-1.6,1.9-2.5c1.3-3.1-0.5-6.7-3.7-12.3l-5.9-10.1L407.1,489.8z"/>
	<path d="M418.7,483l6.2,10.6c2.3,4,3.7,6.5,5.6,10.2l0.2,0c-0.3-3.9-0.4-6.2-0.5-10.1l0.3-17.5l5.3-3.1l14.6,25.1l-4.4,2.5
		l-6.2-10.6c-2.4-4.1-3.5-6.3-5.7-10.4l-0.2,0.1c0.3,4.2,0.4,6.8,0.4,10.2c-0.1,5.3-0.1,11.7-0.2,17.7l-5.2,3.1l-14.6-25.1
		L418.7,483z"/>
	<path d="M447.7,466.1l5.9,10.1l11.9-6.9l-5.9-10.1l4.5-2.6l14.6,25.1l-4.5,2.6l-6.6-11.4l-11.9,6.9l6.6,11.4l-4.5,2.6l-14.6-25.1
		L447.7,466.1z"/>
	<path d="M500.1,469.2l-2.2-3l-0.2,0.1c-0.3,2.8-1.9,6.1-5.5,8.2c-5.1,3-9.8,0.9-11.9-2.7c-3.5-6.1-0.1-12.5,9.6-18.1l-0.3-0.5
		c-1.2-2.1-4-5.5-9.1-2.5c-2.3,1.4-4.3,3.5-5.4,5.7l-2.8-2.4c1.3-2.6,3.8-5.2,6.9-7c7.7-4.5,12.6-0.3,15.5,4.7l5.5,9.4
		c1.3,2.2,2.6,4.2,3.9,5.8L500.1,469.2z M491.9,456.8c-5,2.8-10.2,7-7.3,11.8c1.7,3,4.5,3.2,6.8,1.8c3.3-1.9,4.1-5.2,3.6-7.7
		c-0.1-0.6-0.3-1.1-0.6-1.6L491.9,456.8z"/>
</g>
<g>
	<path d="M31.8,437.3l-18.2,31.1l11.3,6.6l18.2-31.1l4.5,2.6l-18.2,31.1l11.3,6.6l18.2-31.1l4.5,2.6l-20.5,34.9l-36-21.1l20.5-34.9
		L31.8,437.3z"/>
	<path d="M69.5,472.6l-6.2,10.6c-2.3,4-3.8,6.4-6.1,9.9l0.1,0.1c3.3-2.2,5.2-3.4,8.6-5.3l15.4-8.4l5.3,3.1l-14.7,25l-4.3-2.5
		l6.2-10.6c2.4-4.1,3.7-6.2,6.3-10.1l-0.2-0.1c-3.5,2.3-5.8,3.6-8.7,5.3c-4.7,2.5-10.2,5.7-15.5,8.5l-5.2-3.1l14.7-25L69.5,472.6z"
		/>
	<path d="M89.2,495.1c1.9-3.2,3.3-5.9,4.6-8.3l4.1,2.4l-2.3,4.4l0.1,0.1c3.7-2,7.7-2,11.8,0.4c6.1,3.6,7.6,11.3,3.1,19
		c-5.3,9-13.4,10.2-19.3,6.8c-3.3-1.9-5.4-5.1-5.4-8.5l-0.1-0.1l-8,13.6l-4.5-2.6L89.2,495.1z M89.7,504.4c-0.4,0.7-0.7,1.4-0.9,2
		c-1,3.6,0.4,7.4,3.7,9.3c4.8,2.8,9.9,0.5,13.3-5.2c2.9-5,2.8-10.9-2-13.7c-3.1-1.8-7.3-1.3-10.2,1.6c-0.5,0.5-1,1.1-1.4,1.7
		L89.7,504.4z"/>
	<path d="M127.6,506.7l-6.2,10.6c-2.3,4-3.8,6.4-6.1,9.9l0.1,0.1c3.3-2.2,5.2-3.4,8.6-5.3l15.4-8.4l5.3,3.1L130,541.7l-4.3-2.5
		l6.2-10.6c2.4-4.1,3.7-6.1,6.3-10.1l-0.2-0.1c-3.5,2.3-5.8,3.7-8.7,5.3c-4.7,2.5-10.2,5.7-15.5,8.5l-5.2-3.1l14.7-25L127.6,506.7z"
		/>
	<path d="M156.5,523.6l-5.9,10.1l11.9,7l5.9-10.1l4.5,2.6l-14.7,25.1l-4.5-2.6l6.6-11.3l-11.9-7l-6.6,11.3l-4.5-2.6l14.7-25.1
		L156.5,523.6z"/>
	<path d="M179.5,570.8l1.5-3.4l-0.2-0.1c-2.6,1.1-6.3,1.3-9.8-0.8c-5.1-3-5.6-8.1-3.4-11.7c3.6-6.1,10.9-6.2,20.5-0.5l0.3-0.5
		c1.2-2.1,2.8-6.1-2.3-9.1c-2.3-1.4-5.2-2.1-7.6-2l0.7-3.6c2.9-0.1,6.4,0.7,9.5,2.6c7.7,4.5,6.5,10.8,3.5,15.8l-5.5,9.4
		c-1.3,2.2-2.4,4.4-3.1,6.2L179.5,570.8z M186.3,557.6c-4.9-3-11.1-5.4-13.9-0.6c-1.7,2.9-0.6,5.5,1.7,6.9c3.3,1.9,6.5,1.1,8.5-0.6
		c0.4-0.4,0.8-0.8,1.1-1.3L186.3,557.6z"/>
</g>
<g>
	<path d="M539.4,326.9c-0.5-2.3-0.8-5.9-0.8-9.5c0-5.2,0.9-8.6,2.9-11.1c1.6-2.1,4-3.4,7.1-3.4c3.9,0,7.3,2.6,8.9,6.8h0.1
		c1-3.8,4.1-8.3,10.1-8.3c3.5,0,6.1,1.4,8.1,3.4c2.6,2.8,3.8,7.4,3.8,14c0,3.6-0.2,6.4-0.5,8.1H539.4z M556,321.7v-4.7
		c0-5.5-2.9-8.8-6.8-8.8c-4.7,0-6.6,3.6-6.6,8.9c0,2.4,0.2,3.8,0.4,4.6H556z M575.4,321.7c0.2-1,0.2-2.5,0.2-4.4
		c0-5.4-2-10.4-7.9-10.4c-5.5,0-7.8,4.7-7.8,10.4v4.3H575.4z"/>
	<path d="M550.3,263.3h29v5.2h-29V263.3z M550.3,289.5h9.9c-0.2-1.1-0.4-2.8-0.4-4.7c0-6.2,2.6-12.5,9.7-12.5c3.1,0,5.2,1.1,6.7,3
		c2.7,3.2,3.4,7.9,3.4,11.7c0,2.9-0.2,5.6-0.4,7.8h-28.9V289.5z M575.7,289.5c0.1-1,0.2-2.2,0.2-3.7c0-4-1.7-8.4-6.2-8.4
		c-4.7,0-6.1,4.2-6.1,8.2c0,1.5,0.1,2.8,0.3,3.9H575.7z"/>
	<path d="M578.3,234c0.7,1.4,1.7,4.4,1.7,8.3c0,8.8-5.9,14.5-14.8,14.5c-8.9,0-15.4-6.1-15.4-15.6c0-3.1,0.8-5.9,1.5-7.3l4.1,1.2
		c-0.7,1.3-1.4,3.2-1.4,6.1c0,6.7,4.9,10.3,11,10.3c6.7,0,10.9-4.3,10.9-10.1c0-3-0.8-5-1.4-6.5L578.3,234z"/>
	<path d="M564.6,201.9c10.7,0,15.4,7.4,15.4,14.5c0,7.9-5.8,13.9-14.9,13.9c-9.7,0-15.4-6.4-15.4-14.4
		C549.6,207.5,555.7,201.9,564.6,201.9z M564.9,224.9c6.4,0,11.2-3.7,11.2-8.8c0-5-4.7-8.8-11.3-8.8c-4.9,0-11.2,2.5-11.2,8.7
		C553.6,222.2,559.4,224.9,564.9,224.9z"/>
	<path d="M550.3,176.1h4.2v9.1h24.8v5.2h-24.8v9.1h-4.2V176.1z"/>
	<path d="M579.3,155.8l-3.7,0.4v0.2c2.3,1.6,4.3,4.7,4.3,8.9c0,5.9-4.1,8.9-8.3,8.9c-7,0-10.9-6.2-10.8-17.5h-0.6
		c-2.4,0-6.7,0.7-6.7,6.6c0,2.7,0.8,5.5,2.2,7.6l-3.5,1.2c-1.6-2.4-2.6-5.9-2.6-9.5c0-8.9,6.1-11,11.9-11h10.9c2.5,0,5-0.1,7-0.5
		V155.8z M564.5,156.6c-0.1,5.8,0.9,12.3,6.5,12.3c3.4,0,5-2.3,5-5c0-3.8-2.4-6.2-4.9-7c-0.5-0.2-1.1-0.3-1.7-0.3H564.5z"/>
</g>
</svg>
