<?xml version="1.0" encoding="utf-8"?>
<!-- Generator: Adobe Illustrator 21.0.2, SVG Export Plug-In . SVG Version: 6.00 Build 0)  -->
<svg version="1.1" id="Слой_1" xmlns="http://www.w3.org/2000/svg" xmlns:xlink="http://www.w3.org/1999/xlink" x="0px" y="0px"
	 width="224.5px" height="73px" viewBox="0 0 224.5 73" style="enable-background:new 0 0 224.5 73;" xml:space="preserve">
<style type="text/css">
	.st0{fill:url(#SVGID_1_);}
	.st1{fill:#0A408B;}
	.st2{enable-background:new    ;}
</style>
<g>
	
		<radialGradient id="SVGID_1_" cx="28.6" cy="47" r="22.4685" gradientTransform="matrix(1 0 0 -1 0 74)" gradientUnits="userSpaceOnUse">
		<stop  offset="0" style="stop-color:#E2521B"/>
		<stop  offset="1" style="stop-color:#DF421C"/>
	</radialGradient>
	<path class="st0" d="M28.6,52.7l-17.3-22c-2-2.5-1.9-6.1,0.1-8.6L28.6,1.3l17.2,20.8c2,2.5,2.1,6.1,0.1,8.6L28.6,52.7z M16.9,26.5
		l11.7,14.9l11.7-14.9L28.6,12.3L16.9,26.5z"/>
</g>
<path class="st1" d="M51.1,31.6l-4.8,6c1,2.4,1.6,5,1.6,7.7c0,10.7-8.7,19.4-19.4,19.4S9.2,56,9.2,45.3c0-2.7,0.6-5.3,1.6-7.7
	l-4.8-6c-2.4,4-3.8,8.7-3.8,13.7c0,14.6,11.8,26.4,26.4,26.4S55,59.8,55,45.3C55,40.3,53.6,35.6,51.1,31.6z"/>
<path class="st1" d="M202.4,18.5c-10.5,0-19,8.5-19,19s8.5,19,19,19s19-8.5,19-19S212.9,18.5,202.4,18.5z M202.4,50.5
	c-7.2,0-13-5.8-13-13s5.8-13,13-13s13,5.8,13,13S209.6,50.5,202.4,50.5z"/>
<path class="st1" d="M88.9,18.5c-7.2,0-13.5,4-16.7,10h7.4c2.4-2.5,5.7-4,9.4-4c5.9,0,10.9,4,12.5,9.4H84.3v6h17.4
	c-1.1,6-6.4,10.6-12.8,10.6c-3.7,0-7-1.5-9.4-4h-7.4c3.2,6,9.5,10,16.7,10c10.5,0,19-8.5,19-19S99.4,18.5,88.9,18.5z"/>
<path class="st1" d="M173.8,46.5c-2.4,2.5-5.7,4-9.4,4c-7.2,0-13-5.8-13-13s5.8-13,13-13c3.7,0,7,1.5,9.4,4h7.4
	c-3.2-6-9.5-10-16.7-10c-10.5,0-19,8.5-19,19s8.5,19,19,19c7.2,0,13.5-4,16.7-10H173.8z"/>
<polygon class="st1" points="143.2,55.1 129.7,19.2 126.5,19.2 123.3,19.2 109.8,55.1 116,55.1 126.5,27.3 136.9,55.1 "/>
<g class="st2">
	<path class="st1" d="M79.7,62.8c-0.6,0-1.3,0.2-2.1,0.5l-0.5-1.2c0.8-0.4,1.7-0.6,2.6-0.6c1.3,0,2.3,0.4,3,1.2s1.1,1.8,1.1,3.2
		c0,1.4-0.4,2.5-1.1,3.3s-1.7,1.2-3.1,1.2c-0.9,0-1.7-0.1-2.4-0.4v-1.2c0.4,0.1,0.8,0.2,1.1,0.3s0.7,0.1,1.1,0.1
		c0.9,0,1.6-0.2,2-0.7s0.7-1.1,0.7-2h-4v-1.2h3.9c-0.1-0.8-0.3-1.4-0.8-1.8S80.5,62.8,79.7,62.8z"/>
	<path class="st1" d="M99.5,70.3h-1.4v-3.9h-3.9v3.9h-1.4v-8.6h1.4v3.5h3.9v-3.5h1.4V70.3z"/>
	<path class="st1" d="M113.7,70.3h-4.8v-8.6h4.8v1.2h-3.4v2.3h3.2v1.2h-3.2v2.7h3.4V70.3z"/>
	<path class="st1" d="M128.3,64.3c0,0.9-0.3,1.6-0.9,2.1S126,67,124.9,67H124v3.2h-1.4v-8.6h2.5c1.1,0,1.9,0.2,2.4,0.7
		S128.3,63.4,128.3,64.3z M124,65.9h0.7c0.7,0,1.2-0.1,1.6-0.4s0.5-0.6,0.5-1.2c0-0.5-0.2-0.9-0.5-1.1s-0.8-0.4-1.4-0.4h-1V65.9z"/>
	<path class="st1" d="M142.2,61.7v1.2h-3.7v7.4h-1.4v-8.6H142.2z"/>
	<path class="st1" d="M158.3,66c0,1.4-0.3,2.5-1,3.3s-1.7,1.2-3,1.2c-1.3,0-2.3-0.4-3-1.2s-1-1.9-1-3.3s0.3-2.5,1-3.3s1.7-1.1,3-1.1
		c1.3,0,2.3,0.4,3,1.2S158.3,64.6,158.3,66z M151.7,66c0,1.1,0.2,1.9,0.6,2.4s1.1,0.8,1.9,0.8c0.8,0,1.5-0.3,1.9-0.8
		s0.6-1.3,0.6-2.4c0-1.1-0.2-1.8-0.6-2.4s-1-0.8-1.9-0.8c-0.8,0-1.5,0.3-1.9,0.8S151.7,64.9,151.7,66z"/>
	<path class="st1" d="M170.8,62.8c-0.8,0-1.4,0.3-1.9,0.9s-0.7,1.4-0.7,2.4c0,1.1,0.2,1.8,0.7,2.4s1.1,0.8,1.9,0.8
		c0.4,0,0.7,0,1.1-0.1s0.7-0.2,1.1-0.3V70c-0.7,0.3-1.4,0.4-2.3,0.4c-1.3,0-2.2-0.4-2.9-1.1s-1-1.8-1-3.3c0-0.9,0.2-1.7,0.5-2.3
		s0.8-1.2,1.4-1.5s1.3-0.5,2.2-0.5c0.9,0,1.7,0.2,2.4,0.6l-0.5,1.2c-0.3-0.1-0.6-0.3-0.9-0.4S171.2,62.8,170.8,62.8z"/>
	<path class="st1" d="M187.7,67.7c0,1.7-1.1,2.6-3.3,2.6h-2.5v-8.6h5.2v1.2h-3.8v2.3h1C186.6,65.2,187.7,66,187.7,67.7z M183.3,69.1
		h1c0.7,0,1.2-0.1,1.5-0.3s0.5-0.6,0.5-1.1c0-0.5-0.2-0.8-0.5-1s-0.9-0.3-1.6-0.3h-0.8V69.1z"/>
	<path class="st1" d="M202.2,67.7c0,0.8-0.3,1.5-0.8,1.9s-1.4,0.7-2.4,0.7h-2.4v-8.6h1.4v3.5h1c1.1,0,1.9,0.2,2.4,0.6
		S202.2,66.9,202.2,67.7z M197.9,69.1h1c0.6,0,1.1-0.1,1.4-0.3s0.5-0.6,0.5-1.1c0-0.5-0.2-0.8-0.5-1s-0.8-0.3-1.6-0.3h-0.8V69.1z
		 M204.8,70.3h-1.4v-8.6h1.4V70.3z"/>
	<path class="st1" d="M217.1,70.3h-1.4v-7.4h-2.5v-1.2h6.4v1.2h-2.5V70.3z"/>
</g>
</svg>
