<?xml version="1.0" encoding="utf-8"?>
<!-- Generator: Adobe Illustrator 21.0.2, SVG Export Plug-In . SVG Version: 6.00 Build 0)  -->
<svg version="1.1" id="Слой_1" xmlns="http://www.w3.org/2000/svg" xmlns:xlink="http://www.w3.org/1999/xlink" x="0px" y="0px"
	 width="280px" height="89px" viewBox="0 0 280 89" style="enable-background:new 0 0 280 89;" xml:space="preserve">
<style type="text/css">
	.st0{fill:#000200;}
	.st1{fill:#FF0000;}
</style>
<g>
	<g>
		<path class="st0" d="M9.9,48.5c-1.1,1.2-1.7,2.7-1.7,4.6v4.4h9.2v3.2H8.2v27.4h-4V60.8h-4v-3.2h4v-4c0-2.1,0.4-3.9,1.3-5.5
			c0.9-1.6,2.1-2.8,3.5-3.6c1.5-0.8,3.1-1.3,4.8-1.3c2,0,3.8,0.5,5.5,1.4l-1,3.2c-1.4-0.8-2.8-1.1-4.2-1.1
			C12.5,46.8,11.1,47.4,9.9,48.5z M26.9,48.7c0.5,0.5,0.8,1.2,0.8,2c0,0.8-0.3,1.5-0.8,2c-0.5,0.6-1.2,0.8-2,0.8
			c-0.8,0-1.5-0.3-2-0.8c-0.5-0.6-0.8-1.2-0.8-2c0-0.8,0.3-1.5,0.8-2s1.2-0.8,2-0.8C25.7,47.9,26.4,48.1,26.9,48.7z M22.9,56.7h4
			v31.4h-4V56.7z"/>
		<path class="st0" d="M62.7,59.9c2.1,2.2,3.2,5.2,3.2,9v19.3h-4.1V69.8c0-3-0.8-5.3-2.5-7c-1.6-1.7-3.9-2.5-6.8-2.5
			c-3.2,0-5.8,1-7.8,3c-1.9,2-3.1,4.6-3.3,7.9v16.9h-4V56.7h4v7.3c1.1-2.4,2.7-4.3,4.8-5.5c2.1-1.2,4.6-1.9,7.6-1.9
			C57.6,56.6,60.5,57.7,62.7,59.9z"/>
		<path class="st1" d="M78.5,84c0.5,0.5,0.8,1.2,0.8,1.9c0,0.8-0.3,1.4-0.8,2c-0.5,0.5-1.2,0.8-1.9,0.8c-0.8,0-1.4-0.3-1.9-0.8
			c-0.5-0.5-0.8-1.2-0.8-2c0-0.8,0.2-1.4,0.8-1.9c0.5-0.5,1.1-0.8,1.9-0.8C77.3,83.2,78,83.5,78.5,84z"/>
		<path class="st0" d="M106,86.2c-2.6,1.6-5.2,2.3-8,2.3c-2.8,0-5-0.8-6.8-2.4c-1.8-1.6-2.6-4-2.6-7.2V63.1h-4.5L84,57.4h4.6v-8.8
			h7.7v8.8h9.2v5.7h-9.2v14.5c0,1.5,0.3,2.5,0.8,3.2c0.6,0.6,1.4,0.9,2.5,0.9c1.2,0,2.7-0.4,4.6-1.3L106,86.2z"/>
		<path class="st0" d="M138,60.2c2.6,2.9,3.9,7,3.9,12.3c0,1,0,1.8-0.1,2.3h-23.7c0.5,2.3,1.6,4.1,3.2,5.4c1.6,1.3,3.6,2,6,2
			c1.6,0,3.2-0.3,4.7-0.9s2.8-1.5,3.9-2.7l4.2,4.4c-1.6,1.8-3.5,3.1-5.8,4.1s-4.8,1.4-7.7,1.4c-3.3,0-6.2-0.7-8.7-2
			c-2.5-1.4-4.4-3.3-5.8-5.7c-1.4-2.5-2-5.3-2-8.5s0.7-6,2.1-8.5c1.4-2.5,3.3-4.4,5.8-5.8c2.5-1.4,5.3-2.1,8.5-2.1
			C131.6,55.8,135.4,57.3,138,60.2z M134.7,69.6c-0.1-2.4-0.9-4.2-2.3-5.6s-3.4-2.1-5.9-2.1c-2.3,0-4.2,0.7-5.7,2.1
			c-1.5,1.4-2.5,3.3-2.8,5.7H134.7z"/>
		<path class="st0" d="M168.7,88.2v-3.9c-1.1,1.4-2.6,2.5-4.3,3.2c-1.8,0.7-3.8,1.1-6.1,1.1c-2.2,0-4.2-0.4-5.9-1.3
			c-1.7-0.9-3-2-3.9-3.6c-0.9-1.5-1.4-3.2-1.4-5.1c0-3,1.1-5.3,3.2-7.1c2.1-1.7,5.1-2.6,9-2.6h9.4v-0.8c0-1.9-0.6-3.3-1.9-4.4
			c-1.2-1-3-1.6-5.4-1.6c-3,0-6.2,1-9.5,3l-2.8-5.4c2.5-1.4,4.8-2.4,6.9-3c2.1-0.6,4.5-0.9,7.2-0.9c4.2,0,7.4,1,9.7,3
			c2.3,2,3.5,4.8,3.5,8.4l0.1,21H168.7z M166,80.9c1.6-1.1,2.5-2.4,2.7-3.9v-2.9h-8.1c-2.1,0-3.6,0.3-4.6,0.9c-1,0.6-1.5,1.6-1.5,3
			c0,1.4,0.5,2.4,1.5,3.2c1,0.8,2.4,1.2,4.2,1.2C162.5,82.5,164.4,82,166,80.9z"/>
		<path class="st0" d="M235.8,59.1c2.1,2.2,3.1,5.2,3.1,9v20h-7.9V70.4c0-2.3-0.6-4.1-1.9-5.4s-3-2-5.1-2c-2.5,0.1-4.5,1-5.9,2.7
			c-1.5,1.7-2.2,3.9-2.2,6.5v15.8h-7.9V70.4c0-2.3-0.6-4.1-1.9-5.4c-1.2-1.3-2.9-2-5.1-2c-2.5,0.1-4.5,1-6,2.7s-2.2,3.9-2.2,6.5
			v15.8h-7.8V56.1h7.8V62c2.1-4.1,5.9-6.2,11.3-6.2c2.8,0,5.1,0.7,7,2c1.9,1.3,3.2,3.2,4,5.7c2-5,6-7.6,11.9-7.7
			C230.9,55.8,233.7,56.9,235.8,59.1z"/>
	</g>
	<path class="st1" d="M257.3,0.7c9.4,0.2,17,10.4,17,23c0,4.8-1.1,9.3-3,13l0,0l-9,17.7h-1.7l6-17.7l0,0c1.3-3.7,2-8.2,2-13
		C268.6,11,263.6,0.8,257.3,0.7L257.3,0.7c2.1,0.2,3.8,10.4,3.8,23c0,4.8-0.2,9.3-0.7,13l0,0l-2,17.7h-2.3l-2-17.7l0,0
		c-0.4-3.7-0.7-8.2-0.7-13C253.5,11,255.2,0.8,257.3,0.7L257.3,0.7c-6.3,0.2-11.3,10.4-11.3,23c0,4.8,0.7,9.3,2,13l0,0l6,17.7h-1.7
		l-9-17.7l0,0c-1.9-3.7-3-8.2-3-13C240.3,11,247.9,0.8,257.3,0.7L257.3,0.7c-12.6,0.2-22.7,10.4-22.7,23c0,4.8,1.5,9.3,4,13l0,0
		l13,19.3l0.5,4.6v7.4c0,0.9,0.8,1.7,1.7,1.7h3.4h0h3.4c0.9,0,1.7-0.8,1.7-1.7v-7.4l0.5-4.6l1.1-1.6l0,0l11.9-17.7l0,0
		c2.5-3.7,4-8.2,4-13C280,11,269.8,0.8,257.3,0.7z M252.7,60.5l-0.5-4.5h0.9h1.4h1.9h0.7v4.5H252.7z M257.5,60.5V56h0.7h1.9h1.4h0.9
		l-0.5,4.5H257.5z"/>
</g>
</svg>
