<?xml version="1.0" encoding="utf-8"?>
<!-- Generator: Adobe Illustrator 21.0.2, SVG Export Plug-In . SVG Version: 6.00 Build 0)  -->
<svg version="1.1" id="Layer_1" xmlns="http://www.w3.org/2000/svg" xmlns:xlink="http://www.w3.org/1999/xlink" x="0px" y="0px"
	 width="78.5px" height="70px" viewBox="0 0 78.5 70" style="enable-background:new 0 0 78.5 70;" xml:space="preserve">
<style type="text/css">
	.st0{fill:#383839;}
	.st1{fill:url(#SVGID_1_);}
</style>
<g>
	<g>
		<path class="st0" d="M4.4,69.8c-0.4,0-0.7-0.4-0.7-0.8V55.9c0-0.4,0.3-0.8,0.7-0.8s0.7,0.4,0.7,0.8V69C5.1,69.5,4.8,69.8,4.4,69.8
			z"/>
	</g>
	<path class="st0" d="M25.8,58.3c-1.5,0-2.8,0.8-3.2,1.7v-0.9c0-0.4-0.4-0.8-0.9-0.8c-0.4,0-0.9,0.4-0.9,0.8V69
		c0,0.4,0.4,0.8,0.9,0.8c0.4,0,0.9-0.4,0.9-0.8v-5.8c0-0.3,0.3-1,0.7-1.7c0.7-1.1,1.5-1.7,2.5-1.7c0.4,0,0.8-0.4,0.8-0.8
		C26.6,58.7,26.2,58.3,25.8,58.3z"/>
	<path class="st0" d="M38.7,68c-0.3-0.3-0.8-0.3-1.1,0c-0.3,0.3-1.1,0.4-1.7,0.2c-0.4-0.2-1.1-0.6-1.1-1.7v-6.6h2.6
		c0.4,0,0.8-0.4,0.8-0.8s-0.4-0.8-0.8-0.8h-2.6v-2.3c0-0.4-0.3-0.8-0.7-0.8c-0.4,0-0.7,0.4-0.7,0.8v2.3h-1.5c-0.4,0-0.8,0.4-0.8,0.8
		s0.4,0.8,0.8,0.8h1.5v6.6c0,1.4,0.8,2.6,2.1,3.1c0.4,0.2,0.9,0.3,1.3,0.3c0.8,0,1.5-0.3,2-0.8C39,68.8,39.1,68.3,38.7,68z"/>
	<path class="st0" d="M17.7,58.3c-0.4,0-0.7,0.4-0.7,0.8v0.7c-1.1-1-2.2-1.5-3.7-1.5c-3.2,0-5.8,2.6-5.8,5.8s2.6,5.8,5.8,5.8
		c1.5,0,2.6-0.6,3.7-1.5V69c0,0.4,0.2,0.8,0.7,0.8c0.4,0,0.7-0.4,0.7-0.8v-9.9C18.3,58.7,18.1,58.3,17.7,58.3z M13.3,68.2
		c-2.3,0-4.2-1.9-4.2-4.2c0-2.3,1.9-4.2,4.2-4.2c1.8,0,3.6,1.3,3.6,4.2C16.9,67,15.1,68.2,13.3,68.2z"/>
	<g>
		<path class="st0" d="M45.3,69.8c-3.2,0-5.8-2.6-5.8-5.8c0-3.2,2.6-5.8,5.8-5.8c2.8,0,5.2,2,5.7,4.7c0.1,0.4,0,0.9-0.3,1.3
			c-0.2,0.2-0.6,0.5-1.3,0.5c-0.9,0-6.4,0-8.2,0c0.4,1.9,2.1,3.4,4.1,3.4c0.9,0,1.8-0.3,2.6-0.9c0.3-0.3,0.8-0.2,1.1,0.1
			c0.3,0.3,0.2,0.8-0.1,1.1C47.9,69.4,46.6,69.8,45.3,69.8z M45.3,59.9c-2,0-3.7,1.5-4.1,3.4c1.7,0,7.3,0,8.2,0c0,0,0,0,0,0
			C49.1,61.3,47.4,59.9,45.3,59.9z"/>
	</g>
	<g>
		<path class="st0" d="M57.9,69.8c-3.2,0-5.8-2.6-5.8-5.8c0-3.2,2.6-5.8,5.8-5.8c1.5,0,2.9,0.6,4,1.6c0.3,0.3,0.3,0.8,0,1.1
			c-0.3,0.3-0.8,0.3-1.1,0c-0.8-0.8-1.8-1.2-2.9-1.2c-2.3,0-4.2,1.9-4.2,4.2c0,2.3,1.9,4.2,4.2,4.2c1.2,0,2.4-0.5,3.2-1.5
			c0.3-0.3,0.8-0.4,1.1-0.1c0.3,0.3,0.4,0.8,0.1,1.1C61.2,69.1,59.6,69.8,57.9,69.8z"/>
	</g>
	<path class="st0" d="M74.8,66.8c0-0.9,0-1.9,0-2.8c0-3.4-2-5.8-5-5.8c-1.6,0-3.3,0.7-4.2,1.8V56c0-0.4-0.4-0.8-0.8-0.8
		S64,55.5,64,56V69c0,0.4,0.4,0.8,0.8,0.8s0.8-0.4,0.8-0.8v-5c0-2.3,1.9-4.2,4.2-4.2c1.6,0,3.4,1.1,3.4,4.2c0,0.9,0,1.9,0,2.8
		c0,0.8,0,1.6,0,2.2c0,0.4,0.4,0.8,0.8,0.8s0.8-0.4,0.8-0.8C74.8,68.4,74.8,67.7,74.8,66.8z"/>
	<g>
		<path class="st0" d="M28.7,69.9c-0.9,0-1.6-0.7-1.6-1.6s0.7-1.6,1.6-1.6c0.9,0,1.6,0.7,1.6,1.6S29.6,69.9,28.7,69.9z M28.7,68.3
			L28.7,68.3L28.7,68.3z"/>
	</g>
</g>
<linearGradient id="SVGID_1_" gradientUnits="userSpaceOnUse" x1="22.5478" y1="-362.4773" x2="56.8092" y2="-396.7386" gradientTransform="matrix(1 0 0 1 0 404)">
	<stop  offset="0" style="stop-color:#3AB485"/>
	<stop  offset="0.592" style="stop-color:#1F9CD8"/>
	<stop  offset="0.9944" style="stop-color:#005C97"/>
</linearGradient>
<path class="st1" d="M65.5,24.6c-0.1,0-0.2,0-0.3,0c-0.6,0-1.1-0.4-1.2-1c-1.2-4.9-3.7-9.4-7.3-13c-1-1-2-1.9-3.1-2.7
	c-0.6-0.4-0.7-1.2-0.3-1.7c0.4-0.6,1.2-0.7,1.7-0.3c1.2,0.9,2.3,1.9,3.4,2.9c3.9,3.9,6.7,8.8,7.9,14.1
	C66.6,23.7,66.2,24.4,65.5,24.6z M17,11c0.3,0,0.6-0.1,0.9-0.4c7.1-7.1,17.4-9.7,27-7c1.2,0.3,2.4,0.8,3.5,1.3
	c0.6,0.3,1.4,0,1.6-0.6c0.3-0.6,0-1.4-0.6-1.6c-1.2-0.5-2.5-1-3.8-1.4c-10.5-3-21.8-0.1-29.5,7.6c-0.5,0.5-0.5,1.3,0,1.8
	C16.3,10.9,16.6,11,17,11z M38.2,4.8c-0.7,0-1.3,0.5-1.3,1.2c0,0.7,0.5,1.3,1.2,1.3c5.8,0.2,11.2,2.6,15.3,6.7
	c8.9,8.9,8.9,23.4,0,32.2c-0.5,0.5-0.5,1.3,0,1.8c0.2,0.2,0.6,0.4,0.9,0.4s0.6-0.1,0.9-0.4c9.9-9.9,9.9-25.9,0-35.8
	C50.6,7.7,44.6,5.1,38.2,4.8z M21.2,14c2.3-2.3,4.9-4,7.8-5.1c0.6-0.2,1-1,0.7-1.6c-0.2-0.6-1-1-1.6-0.7c-3.3,1.3-6.2,3.2-8.7,5.7
	c-4.9,4.9-7.5,11.3-7.4,18.2c0,0.7,0.6,1.2,1.3,1.2h0c0.7,0,1.2-0.6,1.2-1.3C14.4,24.2,16.8,18.4,21.2,14z M57.9,29.7
	c0-0.7-0.6-1.2-1.3-1.2c-0.7,0-1.2,0.6-1.2,1.3c0.1,5-1.8,9.7-5.3,13.2c-4.8,4.8-11.8,6.5-18.2,4.5c-0.7-0.2-1.4,0.2-1.6,0.8
	s0.2,1.4,0.8,1.6c2,0.6,4.1,0.9,6.2,0.9c5.4,0,10.6-2.1,14.6-6C55.9,40.7,58,35.4,57.9,29.7z M55.9,25.9c0.1,0,0.3,0,0.4-0.1
	c0.6-0.2,1-1,0.7-1.6c-1.9-5-3.6-7-5.2-8.6c-8-8-21.1-8-29.2,0c-1.5,1.5-2.8,3.3-3.8,5.2c-0.3,0.6-0.1,1.4,0.5,1.7s1.4,0.1,1.7-0.5
	c0.9-1.7,2-3.2,3.3-4.5c7.1-7.1,18.6-7.1,25.6,0c1.1,1.1,2.8,2.8,4.7,7.8C54.9,25.6,55.4,25.9,55.9,25.9z M48.7,41.6
	c0.5-0.5,0.5-1.3,0-1.8c-0.5-0.5-1.3-0.5-1.8,0c-5.2,5.2-13.8,5.2-19,0c-0.5-0.5-1.3-0.5-1.8,0c-0.5,0.5-0.5,1.3,0,1.8
	c3.1,3.1,7.2,4.7,11.3,4.7C41.6,46.2,45.6,44.7,48.7,41.6z M49.8,22.9c-0.6,0.4-0.8,1.1-0.4,1.7c0.8,1.3,1.4,3.7,1.5,5
	c0,0.7,0.6,1.2,1.3,1.2c0,0,0,0,0.1,0c0.7,0,1.2-0.6,1.2-1.3c-0.1-1.6-0.9-4.5-1.9-6.1C51.1,22.7,50.4,22.6,49.8,22.9z M28,20.8
	c5.2-5.2,13.8-5.2,19,0c0.5,0.5,1.3,0.5,1.8,0c0.5-0.5,0.5-1.3,0-1.8c-6.2-6.2-16.3-6.2-22.5,0c-3.8,3.8-4.8,9.2-4.4,13l0,0.1
	c0.1,0.8-0.1,1.4-0.5,1.7c-0.4,0.3-1,0.4-1.4,0.2c-0.4-0.2-0.7-0.6-0.8-1.2c-0.2-2.5,0.1-4.3,0.6-6.6c0.1-0.7-0.3-1.3-1-1.5
	c-0.7-0.1-1.3,0.3-1.5,1c-0.5,2.4-0.8,4.6-0.6,7.3c0.1,1.5,1,2.7,2.3,3.3c0.5,0.2,1,0.3,1.5,0.3c0.9,0,1.7-0.3,2.4-0.8
	c1.2-0.9,1.7-2.4,1.5-4C24,28.6,24.8,24,28,20.8z M34.3,29.8c-0.2,1,0,2.1,0.6,3c0.6,0.9,1.5,1.5,2.5,1.8c0.3-0.7,0.8-1.2,1.5-1.6
	c1.9-1.3,4.5-0.7,5.8,1.2c1.3,1.9,0.7,4.5-1.2,5.8c-0.7,0.4-1.5,0.7-2.3,0.7c-0.3,0-0.6,0-0.9-0.1c-1.1-0.2-2-0.9-2.6-1.8
	c-0.3-0.5-0.6-1.1-0.6-1.7c0,0,0,0,0,0c-1.7-0.4-3.2-1.4-4.2-2.9c-1-1.5-1.3-3.2-0.9-4.9c0.4-1.6,1.8-3.7,4-4.4
	c1.5-0.4,4-0.4,6.8,2.6c0.6,0.4,1.2,0.1,1.6-0.2c0.5-0.5,0.7-1.4-0.2-2.3l0,0c-2.2-2.7-5.4-3.7-8.6-2.8c-3.2,0.9-5.6,3.5-6,6.7
	c-0.1,0.7-0.7,1.2-1.4,1.1c-0.7-0.1-1.2-0.7-1.1-1.4c0.6-4.1,3.6-7.5,7.8-8.7c4.2-1.2,8.3,0.1,11.2,3.6c1.8,2,1.4,4.4,0.2,5.7
	c-1.3,1.5-3.4,1.6-5,0.5L41,29.3c-1.1-1.2-2.8-2.4-4.5-2C35.4,27.7,34.5,28.9,34.3,29.8z M39.7,37.4c0.2,0.4,0.6,0.6,1.1,0.7
	c0.4,0.1,0.9,0,1.3-0.2c0.8-0.5,1-1.6,0.5-2.3c-0.3-0.5-0.9-0.7-1.4-0.7c-1,0-1.5,0.7-1.6,1.3C39.4,36.6,39.5,37,39.7,37.4z"/>
</svg>
