<?xml version="1.0" encoding="utf-8"?>
<!-- Generator: Adobe Illustrator 21.0.2, SVG Export Plug-In . SVG Version: 6.00 Build 0)  -->
<svg version="1.1" id="Слой_1" xmlns="http://www.w3.org/2000/svg" xmlns:xlink="http://www.w3.org/1999/xlink" x="0px" y="0px"
	 width="178px" height="121px" viewBox="0 0 178 121" enable-background="new 0 0 178 121" xml:space="preserve">
<g>
	<path fill="#EAC100" d="M175.7,63c-0.1-0.1-0.2-0.1-0.3-0.1c-0.1,0-0.2,0.1-0.3,0.1l0,0c-0.2,0.1-0.5,0.1-0.7,0.2
		c-3.3,1.3-5.9,3.6-8,6.9c-0.5,0.8-0.9,1.7-1.2,2.5c0.5-2.9,0.6-4,0.7-7.2c0-0.1,0-0.3,0-0.4c0-0.4,0-0.7,0.1-1
		c0.1-0.4,0.3-0.8,0.5-1.1c0.1-0.1,0.1-0.2,0.1-0.3c0,0,0.1,0,0.1-0.1c0.9-0.1,1.8-0.5,2.6-1.2c0.8-0.7,1.4-1.5,1.9-2.5
		c1.7-3.5,2.6-7.4,2.6-11.5c0-0.4,0-0.8-0.1-1.2c0-0.2,0-0.4-0.1-0.6c0-0.1-0.1-0.2-0.2-0.3c-0.1,0-0.2,0-0.3,0
		c-0.1,0-0.1,0.1-0.2,0.1c-0.1,0.1-0.2,0.1-0.2,0.1c-1.5,1.1-2.8,2.4-3.9,3.9c-1.8,2.5-2.8,5.4-3.1,8.6c0-0.4-0.1-0.7-0.1-1.1l0-0.1
		c-0.1-1.4-0.2-2.8-0.3-4.2c0-0.4-0.1-0.7-0.2-1c-0.1-0.6-0.2-1.2-0.1-1.9c0-0.1,0.1-0.3,0.1-0.4c0.1-0.4,0.5-0.9,1.2-1.5l0,0
		c0.2-0.2,1.5-1.4,2.3-3.7c0.7-2.3,0.7-4.8,0.6-6.6l0,0c-0.1-2.5-0.3-4.3-0.9-6c-0.1-0.2-0.2-0.4-0.2-0.7c0-0.1-0.1-0.2-0.1-0.4
		c0-0.1-0.1-0.2-0.2-0.2l-0.1,0c-0.1,0-0.2,0-0.2,0.1L167,31c-2.5,3.1-3.8,6.7-3.7,10.7c0,0.7,0.1,1.4,0.2,2.2
		c-0.6-2.2-1.4-4.4-2.3-6.5c0,0,0-0.1,0-0.1l0-0.3c0-0.4,0-0.8,0-1.3c0-0.1,0-0.2,0.1-0.3c0.1-0.2,0.3-0.3,0.4-0.5
		c0.3-0.3,0.5-0.6,0.7-1c0.7-1.1,1-2.5,1-4.3c0-2.1-0.3-4.2-1-6.9c-0.4-1.4-1-3.3-2-4.9c-0.1-0.1-0.2-0.2-0.2-0.3
		c0,0-0.1-0.1-0.1-0.2c-0.1-0.1-0.1-0.1-0.3-0.1c-0.1,0-0.2,0.1-0.3,0.2c-1.3,2.4-2,5-2,7.9c0,2.4,0.4,4.5,0.8,6.1
		c-1.2-2.2-2.5-4.3-4-6.3l0,0c0,0,0-0.1,0-0.1c-0.1-0.7-0.2-1.2-0.2-1.6c0,0,0,0,0.1-0.2c0.1-0.2,0.2-0.3,0.3-0.5
		c0.2-0.3,0.5-0.7,0.6-1.1c0.4-1.2,0.5-2.5,0.3-4.1c-0.5-3.5-2.1-6.7-4.7-9.7c-0.3-0.3-0.6-0.6-0.9-0.9L149.7,7
		c-0.1-0.1-0.3-0.2-0.4-0.4c-0.1-0.1-0.2-0.1-0.3-0.1c-0.1,0-0.2,0.1-0.2,0.2l-0.1,0.3c0,0.2-0.1,0.3-0.1,0.4
		c-0.4,2.1-0.3,4.4,0.1,7c0.4,2.5,1.2,4.7,2.5,6.6c-1.9-2.2-3.7-4.1-5.6-5.7c0,0,0,0,0-0.1c0.1-1.3-0.2-2.5-1-3.7
		c-1-1.6-2.5-2.8-4.3-3.6c-1.1-0.5-2.2-0.9-3.3-1.3c-0.5-0.2-1.1-0.4-1.6-0.6c-0.5-0.2-0.8-0.3-0.9-0.1c-0.2,0.2-0.1,0.3-0.1,0.5
		l0,0.1c0.7,2.3,1.6,4,2.7,5.5c2.1,2.6,4.6,3.9,7.6,4c0.1,0,0.2,0,0.2,0.1c0.4,0.3,0.7,0.6,1,0.8c0.9,0.8,1.7,1.6,2.6,2.5
		c-1.2-0.8-2.8-1.1-4.5-1c-0.9,0-1.9,0.2-2.8,0.3l0,0c-0.3,0-0.5,0.1-0.8,0.1c-0.6,0.1-1.2,0.2-1.7,0.3c-0.2,0-0.7,0.2-0.8,0.4
		c0,0.1,0,0.2,0,0.3c0,0.1,0.1,0.1,0.1,0.2c1.5,1.9,3.2,3.2,5.2,3.9c2.4,0.8,4.7,0.8,6.7-0.2c0.3-0.2,0.7-0.3,1.1-0.3
		c0.3,0,0.6,0.1,0.6,0.1c0.1,0,0.3,0.1,0.3,0.1c1.2,1.6,2.4,3.4,3.5,5.2c-0.9-0.9-2.2-1.5-3.8-1.9c-1.5-0.3-2.9-0.4-4.4-0.5l-0.5,0
		c-0.5,0-0.9-0.1-1.4-0.1l-0.8,0c-0.1,0-0.2,0-0.3,0.1c-0.1,0.1-0.1,0.2,0,0.3c0,0.1,0.1,0.2,0.1,0.3c1.5,2.5,3.3,4.3,5.4,5.4
		c2.1,1,4,1.3,5.9,0.9c0.2-0.1,0.5-0.1,0.7-0.1c0.8,0,1.4,0.2,1.5,0.5c1.1,2.2,2,4.4,2.8,6.7c-0.8-1.2-2-2.1-3.5-2.8
		c-1.5-0.7-3.1-1.4-4.6-2c-0.7-0.3-1.3-0.5-2-0.8c-0.1,0-0.2,0-0.3,0c-0.1,0.1-0.1,0.2-0.1,0.3c0,0.2,2.2,6.3,5.4,8.7
		c1.3,1,2.9,2,4.9,2c0.6,0,1.2,0.1,1.7,0.6c0.1,0.1,0.2,0.2,0.3,0.2c0.2,0.1,0.2,0.2,0.3,0.5c0.7,2.7,1.1,5.5,1.4,8.4
		c-0.1-0.3-0.2-0.6-0.3-0.9c-0.7-1.8-1.9-3.4-3.8-5c-1-0.8-2-1.6-2.9-2.4l0,0c-0.4-0.3-0.9-0.7-1.3-1c-0.1-0.1-0.2-0.1-0.3-0.2
		l-0.3-0.2c-0.1-0.1-0.2-0.1-0.4,0c-0.1,0.1-0.2,0.2-0.2,0.3c0,0.2,0,0.4,0,0.6l0,0.1c0,0.4,0,0.7,0.1,1c0.3,3.3,1.3,6,3,8.4
		c1,1.5,2.5,3.2,4.8,4.1c0.6,0.2,1,0.5,1.4,1.1c0.4,0.5,0.5,1,0.5,1.6c0,2.5-0.2,5-0.5,7.5c-0.1-0.7-0.2-1.4-0.5-2.1
		c-0.5-1.5-1.3-3-2.4-4.5c-0.9-1.3-1.9-2.6-2.9-3.9l-0.1-0.1c-0.4-0.5-0.8-1-1.1-1.5c-0.1-0.1-0.2-0.1-0.2-0.2c-0.1,0-0.2,0-0.3,0
		c-0.1,0-0.2,0.1-0.2,0.2l0,0c0,0,0,0.1,0,0.1c-0.7,3.9-0.3,7.4,1.2,10.8c0.7,1.6,1.7,3.5,3.4,4.8c0.8,0.6,1.4,1.4,1.7,2.4
		c0.1,0.2,0.1,0.3,0.1,0.3c-0.7,3-1.7,5.9-2.8,8.7c0.3-1.5,0.3-3-0.1-4.6c-0.5-2.2-1.3-4.4-2.1-6.3l-0.2-0.6
		c-0.3-0.9-0.7-1.7-1.1-2.7c0-0.1-0.2-0.2-0.3-0.2c-0.1,0-0.2,0.1-0.3,0.2l-0.1,0.2c-0.1,0.1-0.1,0.2-0.1,0.3
		c-1.5,3.4-2,6.8-1.5,10.2c0.4,2.5,1,4.2,2,5.7c0.5,0.8,1,1.6,1.1,2.7c0,0.2,0,0.4-0.1,0.6c-1.3,2.2-2.7,4.3-4.2,6.2c0,0,0,0,0,0
		c1.1-2,1.1-4.2,1-6.1c-0.1-1.6-0.3-3.2-0.5-4.8l0-0.1c-0.1-0.6-0.1-1.2-0.2-1.9c0-0.4-0.1-0.7-0.1-1.1l-0.1-0.5
		c0-0.1-0.1-0.2-0.2-0.2c-0.2-0.1-0.5,0-0.8,0.4c-2.1,2.5-3.4,5.3-3.9,8.4c-0.5,3.2-0.2,5.9,0.8,8.3c0,0.1,0,0.2,0,0.2l-0.1,1.4
		c0,0.1-0.1,0.2-0.1,0.3c-2.1,2-4.4,3.8-6.9,5.2c1.2-1.1,2-2.4,2.6-4.2c0.6-1.9,0.9-4,1.2-5.9l0-0.2c0.1-0.7,0.2-1.4,0.3-2.1
		l0.1-0.8c0-0.1,0-0.2-0.1-0.3c-0.1-0.1-0.2-0.1-0.3,0l-0.1,0c-0.1,0-0.2,0.1-0.3,0.1c-4.7,2.3-7.8,7.8-7.3,13
		c0.1,0.8,0,1.6-0.2,2.3c0,0.1-0.1,0.1-0.1,0.2c-2.2,0.9-4.3,1.6-6.5,2.1c-0.1,0-0.2,0.1-0.2,0.2c0,0.1,0,0.2,0.1,0.3
		c0.2,0.3,0.4,0.6,0.6,0.9c0.1,0.1,0.2,0.2,0.4,0.2c1.7-0.4,3.4-0.9,5-1.5c0.1-0.1,0.2-0.1,0.3-0.1c0.4,0,0.7,0.1,1.2,0.2
		c0.1,0,0.2,0.1,0.2,0.1c0.9,1.8,2.5,3,4.8,3.5c0.5,0.1,1,0.2,1.5,0.3c0.5,0.1,1.2,0.1,1.8,0.1c0.9,0,1.6-0.1,1.6-0.1
		c2-0.2,3.7-0.7,5.2-1.4c0.6-0.3,1.3-0.7,1.9-1.4c0.1-0.1,0.1-0.3,0-0.4c-1.5-1.4-3.1-2.3-4.8-3c-2.5-1-4.8-1.3-7-0.8
		c-0.3,0.1-0.7,0.1-1,0.2c2.1-1.2,4.1-2.7,6-4.4c0,0,0.1-0.1,0.1-0.1c0.3-0.1,0.7-0.1,1.1-0.1c0,0,0.1,0,0.1,0
		c1.1,1.3,2.6,1.9,4.5,1.9c0.1,0,0.2,0,0.3,0c2-0.1,4.1-0.6,6.1-1.7c1.5-0.8,3-1.6,4.2-3c0.3-0.3,0.5-0.6,0.7-0.9l0,0
		c0.1-0.1,0.2-0.3,0.3-0.4c0.1-0.1,0.1-0.2,0.1-0.2c0-0.1-0.1-0.2-0.2-0.2c0,0-0.5-0.3-1-0.5c-3.2-1.2-6.4-1.4-9.5-0.4
		c-1,0.3-2,0.8-2.9,1.5c1.7-2,3.3-4.2,4.7-6.5c0,0,0.1-0.1,0.1-0.1c0.1-0.1,0.3-0.2,0.4-0.2c0.2-0.1,0.5-0.3,0.7-0.4
		c0.2-0.1,0.2-0.1,0.4,0c0.3,0.2,0.6,0.3,0.9,0.3c1.6,0.4,3.2,0.2,5-0.6c1.6-0.8,2.9-2,4-3.2c1.6-1.7,2.7-3.3,3.3-4.9
		c0.1-0.3,0.2-0.7,0.3-1.1c0-0.2,0.1-0.3,0.1-0.5c0-0.2,0-0.3-0.2-0.4l-0.1,0c-0.7,0-6.5,0.1-10,3.4c-0.7,0.7-1.4,1.5-2,2.3
		c1.4-2.9,2.5-5.9,3.4-9.1l0,0c0,0,0-0.1,0-0.1l0.9-1.2c0,0,0,0,0.1,0c0,0,0,0,0.1,0l0.2,0c0.7,0,1.1,0,1.4,0c1.3-0.2,2.4-0.8,3.5-2
		c2.6-2.6,4.3-5.9,5.4-10c0.1-0.4,0.1-0.9,0.2-1.4c0-0.2,0-0.4,0.1-0.7C175.8,63.2,175.8,63.1,175.7,63z"/>
	<path fill="#EAC100" d="M46.7,110.9c-2.1-0.5-4.3-1.2-6.5-2.1c0,0-0.1-0.1-0.1-0.2c-0.2-0.8-0.3-1.5-0.2-2.3
		c0.4-5.2-2.7-10.7-7.3-13c-0.1-0.1-0.2-0.1-0.3-0.1l-0.1,0c-0.1,0-0.2,0-0.3,0c-0.1,0.1-0.1,0.2-0.1,0.3l0.1,0.8
		c0.1,0.7,0.2,1.4,0.3,2.1l0,0.2c0.3,2,0.6,4,1.2,5.9c0.5,1.8,1.4,3.1,2.6,4.2c-2.5-1.5-4.8-3.2-6.9-5.2c0,0-0.1-0.2-0.1-0.2
		l-0.1-1.4c0,0,0-0.2,0-0.2c1-2.4,1.3-5.1,0.8-8.3c-0.5-3.1-1.8-5.9-3.9-8.4c-0.2-0.3-0.5-0.4-0.6-0.4c0,0-0.1,0-0.1,0
		c-0.1,0-0.2,0.1-0.2,0.2l-0.1,0.5c0,0.4-0.1,0.7-0.1,1.1c-0.1,0.6-0.1,1.2-0.2,1.9l0,0.1c-0.2,1.6-0.4,3.2-0.5,4.8
		C24,92.8,24,95,25.1,97c0,0,0,0,0,0c-1.5-1.9-3-4-4.2-6.2c-0.1-0.2-0.1-0.4-0.1-0.6c0.1-1.1,0.6-1.9,1.1-2.7c1-1.5,1.6-3.2,2-5.7
		c0.5-3.4,0-6.9-1.5-10.2c0-0.1-0.1-0.2-0.1-0.3l-0.1-0.2c-0.1-0.1-0.2-0.2-0.3-0.2c-0.1,0-0.2,0.1-0.3,0.2
		c-0.4,0.9-0.7,1.8-1.1,2.7l-0.2,0.6c-0.7,1.9-1.6,4-2.1,6.3c-0.3,1.6-0.4,3.1-0.1,4.6c-1.2-2.8-2.1-5.7-2.8-8.7c0,0,0-0.1,0.1-0.3
		c0.3-0.9,1-1.8,1.7-2.4c1.7-1.3,2.7-3.2,3.4-4.8c1.5-3.3,1.9-6.8,1.2-10.8c0,0,0-0.1,0-0.1l0,0c0-0.1-0.1-0.2-0.2-0.2
		c-0.1,0-0.2,0-0.3,0c-0.1,0-0.2,0.1-0.2,0.2c-0.4,0.5-0.8,1-1.1,1.5l-0.1,0.1c-1,1.3-1.9,2.6-2.9,3.9c-1.1,1.5-1.9,3-2.4,4.5
		c-0.2,0.7-0.4,1.4-0.5,2.1c-0.3-2.4-0.5-4.9-0.5-7.5c0-0.6,0.1-1.1,0.5-1.6c0.4-0.6,0.8-0.9,1.4-1.1c2.3-0.8,3.8-2.6,4.8-4.1
		c1.7-2.4,2.6-5.1,3-8.4c0-0.3,0.1-0.7,0.1-1l0-0.1c0-0.2,0-0.4,0-0.6c0-0.1-0.1-0.2-0.2-0.3c-0.1-0.1-0.3,0-0.4,0l-0.3,0.2
		c-0.1,0.1-0.2,0.2-0.3,0.2c-0.4,0.4-0.9,0.7-1.3,1l0,0c-1,0.8-2,1.6-2.9,2.4c-1.9,1.6-3,3.2-3.8,5c-0.1,0.3-0.2,0.6-0.3,0.9
		c0.3-2.9,0.8-5.7,1.4-8.4c0.1-0.3,0.1-0.4,0.3-0.5c0.1,0,0.2-0.1,0.3-0.2c0.5-0.5,1.1-0.6,1.7-0.6c2,0,3.6-1,4.9-2
		c3.2-2.4,5.4-8.4,5.4-8.7c0-0.1-0.1-0.2-0.1-0.3c-0.1-0.1-0.2-0.1-0.3,0c-0.7,0.3-1.3,0.6-2,0.8c-1.5,0.6-3.1,1.3-4.6,2
		c-1.5,0.7-2.7,1.7-3.5,2.8c0.8-2.3,1.7-4.6,2.8-6.7c0.1-0.2,0.7-0.5,1.5-0.5c0.3,0,0.5,0,0.7,0.1c1.9,0.5,3.8,0.2,5.9-0.9
		c2.1-1.1,3.9-2.8,5.4-5.4c0,0,0.1-0.2,0.1-0.3c0-0.1,0-0.2,0-0.3c-0.1-0.1-0.2-0.1-0.3-0.1c0,0,0,0,0,0l-0.8,0
		c-0.5,0-0.9,0.1-1.4,0.1l-0.5,0c-1.4,0.1-2.9,0.1-4.4,0.5c-1.7,0.4-2.9,1-3.8,1.9c1.1-1.8,2.3-3.6,3.5-5.2c0,0,0.2-0.1,0.3-0.1
		c0.1,0,0.3-0.1,0.6-0.1c0.4,0,0.8,0.1,1.1,0.3c2,1,4.2,1,6.7,0.2c2-0.7,3.7-1.9,5.2-3.9c0-0.1,0.1-0.1,0.1-0.2c0-0.1,0-0.2,0-0.3
		c-0.1-0.2-0.6-0.4-0.8-0.4c-0.5-0.1-1.1-0.2-1.7-0.3c-0.3,0-0.5-0.1-0.8-0.1l0,0c-0.9-0.1-1.8-0.3-2.8-0.3c-1.7-0.1-3.2,0.3-4.5,1
		c0.8-0.9,1.7-1.7,2.6-2.5c0.3-0.2,0.6-0.5,1-0.8c0,0,0.1-0.1,0.2-0.1c3-0.1,5.5-1.4,7.6-4c1.2-1.4,2-3.2,2.7-5.5l0-0.1
		c0.1-0.2,0.1-0.4-0.1-0.5c-0.1-0.1-0.4-0.1-0.9,0.1c-0.5,0.2-1.1,0.4-1.6,0.6c-1.1,0.4-2.2,0.8-3.3,1.3c-1.8,0.8-3.3,2-4.3,3.6
		c-0.8,1.2-1.1,2.4-1,3.7c0,0,0,0,0,0.1c-1.9,1.6-3.7,3.5-5.6,5.7c1.2-1.9,2.1-4.1,2.5-6.6c0.4-2.6,0.4-4.8,0.1-7
		c0-0.1-0.1-0.3-0.1-0.4l-0.1-0.3c0-0.1-0.1-0.2-0.2-0.2c-0.1,0-0.2,0-0.3,0.1c-0.1,0.1-0.3,0.2-0.4,0.4l-0.1,0.1
		c-0.3,0.3-0.6,0.6-0.9,0.9c-2.7,3-4.2,6.2-4.7,9.7c-0.2,1.6-0.1,2.9,0.3,4.1c0.1,0.4,0.4,0.7,0.6,1.1c0.1,0.2,0.2,0.3,0.3,0.5
		c0.1,0.1,0.1,0.1,0.1,0.1c0,0.5-0.1,1-0.2,1.6c0,0,0,0-0.1,0.1l0,0c-1.5,2-2.8,4.1-4,6.3c0.5-1.6,0.9-3.7,0.8-6.1
		c0-2.9-0.7-5.5-2-7.9c-0.1-0.1-0.1-0.2-0.3-0.2c-0.1,0-0.2,0-0.3,0.1c0,0.1-0.1,0.1-0.1,0.2c-0.1,0.1-0.2,0.2-0.2,0.3
		c-1.1,1.7-1.6,3.5-2,4.9c-0.7,2.6-1,4.8-1,6.9c0,1.8,0.3,3.1,1,4.3c0.2,0.4,0.5,0.7,0.7,1c0.1,0.2,0.3,0.3,0.4,0.5
		c0.1,0.1,0.1,0.2,0.1,0.3c0,0.4,0,0.8,0,1.3l0,0.3c0,0,0,0.1,0,0.1c-0.9,2.1-1.6,4.2-2.3,6.5c0.1-0.8,0.1-1.5,0.2-2.2
		c0.1-4-1.2-7.7-3.7-10.7l-0.5-0.6c-0.1-0.1-0.2-0.1-0.2-0.1l-0.1,0c-0.1,0-0.2,0.1-0.2,0.2c0,0.1-0.1,0.2-0.1,0.4
		c-0.1,0.2-0.2,0.4-0.2,0.7c-0.5,1.7-0.8,3.6-0.9,6l0,0c0,1.8-0.1,4.2,0.6,6.6c0.7,2.3,2,3.5,2.2,3.7l0,0c0.7,0.6,1.1,1.2,1.2,1.5
		c0,0.1,0.1,0.3,0.1,0.4c0.2,0.6,0.1,1.2-0.1,1.9c-0.1,0.3-0.1,0.7-0.2,1c-0.1,1.4-0.2,2.8-0.3,4.2l0,0.1c0,0.4-0.1,0.7-0.1,1.1
		c-0.3-3.2-1.3-6-3.1-8.6C8.3,48,7,46.7,5.5,45.6c-0.1,0-0.1-0.1-0.2-0.1c0,0-0.1-0.1-0.2-0.1c-0.1-0.1-0.2-0.1-0.3,0
		c-0.1,0-0.2,0.1-0.2,0.3c0,0.2,0,0.4-0.1,0.6c0,0.4-0.1,0.8-0.1,1.2c0,4.1,0.9,8,2.6,11.5c0.5,1,1.1,1.8,1.9,2.5
		c0.8,0.7,1.6,1.1,2.6,1.2c0,0,0.1,0,0.1,0c0.1,0.1,0.1,0.2,0.2,0.3c0.2,0.4,0.4,0.7,0.5,1.1c0.1,0.3,0.1,0.7,0.1,1
		c0,0.1,0,0.3,0,0.4c0.1,3.2,0.2,4.3,0.7,7.2c-0.3-0.8-0.7-1.7-1.2-2.5c-2-3.3-4.6-5.6-8-6.9c-0.2-0.1-0.4-0.1-0.7-0.2l0,0
		C3,63,2.9,63,2.8,62.9c-0.1,0-0.2,0-0.3,0.1c-0.1,0.1-0.1,0.2-0.1,0.3c0,0.2,0,0.4,0.1,0.7c0,0.5,0.1,0.9,0.2,1.4
		c1.1,4.1,2.8,7.4,5.4,10c1.1,1.1,2.3,1.8,3.5,2c0.3,0.1,0.7,0.1,1.4,0l0.2,0c0,0,0.1,0,0.1,0c0.1,0,0.1,0,0.1,0.1l0.9,1.2
		c0,0,0,0.1,0,0.1l0,0c0.9,3.1,2.1,6.2,3.4,9.1c-0.6-0.8-1.3-1.6-2-2.3c-3.4-3.3-9.3-3.4-10-3.4l-0.1,0l-0.1,0
		c-0.2,0.1-0.2,0.2-0.2,0.4c0,0.2,0.1,0.3,0.1,0.5c0.1,0.3,0.2,0.7,0.3,1c0.7,1.6,1.7,3.2,3.3,4.9c1.1,1.2,2.4,2.4,4,3.2
		c1.8,0.8,3.4,1,5,0.6c0.3-0.1,0.6-0.2,0.9-0.3c0.2-0.1,0.2-0.1,0.4,0c0.2,0.2,0.5,0.3,0.7,0.4c0.1,0.1,0.3,0.2,0.4,0.2
		c0,0,0.1,0.1,0.1,0.1c1.4,2.3,3,4.5,4.7,6.5c-0.9-0.7-1.9-1.2-2.9-1.5c-3.1-1-6.3-0.9-9.5,0.4c-0.5,0.2-1,0.5-1,0.5
		c-0.1,0-0.1,0.1-0.1,0.2c0,0.1,0,0.2,0.1,0.2c0.1,0.1,0.2,0.3,0.3,0.4l0,0c0.2,0.3,0.5,0.6,0.7,0.9c1.2,1.3,2.8,2.2,4.2,3
		c2,1,4.1,1.6,6.1,1.7c0.1,0,0.2,0,0.3,0c1.9,0,3.3-0.6,4.5-1.9c0,0,0.1,0,0.1,0c0.4,0,0.8,0.1,1.1,0.1c0,0,0.1,0,0.1,0.1
		c1.9,1.7,3.9,3.1,6,4.4c-0.3-0.1-0.6-0.2-1-0.2c-2.2-0.4-4.5-0.2-7,0.8c-1.7,0.7-3.3,1.7-4.8,3c-0.1,0.1-0.1,0.3,0,0.4
		c0.5,0.7,1.3,1.1,1.9,1.4c1.5,0.7,3.2,1.2,5.2,1.4c0,0,0.7,0.1,1.6,0.1c0.7,0,1.3,0,1.8-0.1c0.5-0.1,1-0.1,1.5-0.3
		c2.3-0.6,3.9-1.7,4.8-3.5c0,0,0.1-0.1,0.2-0.1c0.4-0.1,0.8-0.2,1.2-0.2c0.1,0,0.2,0,0.3,0.1c1.6,0.6,3.3,1.1,5,1.5c0,0,0,0,0.1,0
		c0.1,0,0.2-0.1,0.3-0.2c0.2-0.3,0.4-0.6,0.6-0.9c0.1-0.1,0.1-0.2,0.1-0.3C46.9,111,46.9,110.9,46.7,110.9z"/>
</g>
</svg>
