<?xml version="1.0" encoding="utf-8"?>
<!-- Generator: Adobe Illustrator 21.0.2, SVG Export Plug-In . SVG Version: 6.00 Build 0)  -->
<svg version="1.1" xmlns="http://www.w3.org/2000/svg" xmlns:xlink="http://www.w3.org/1999/xlink" x="0px" y="0px" width="115.6px"
	 height="34.6px" viewBox="0 0 115.6 34.6" style="enable-background:new 0 0 115.6 34.6;" xml:space="preserve">
<g id="Слой_2">
	<rect x="-1056.3" y="121.3" style="fill:#FFFFFF;stroke:#E30613;stroke-miterlimit:10;" width="148.4" height="72.9"/>
</g>
<g id="Слой_1">
	<g>
		<path style="fill:#DC41EF;" d="M21.2,22.3c-0.7-1.3-1-3-1-4.8c0-3,0.6-5.3,2.3-6.6l0.1-1.1h0.1L5.8,0l1.9,1.1
			C4.2,5.6,2.2,11.4,2.2,17.6c0,6,1.9,11.4,5,15.9l13.6-7.9L21.2,22.3z"/>
		<path style="fill:none;" d="M7.7,1.1l0.9,0.5c-3.3,4.4-5.2,9.9-5.2,16c0,5.7,1.8,11,4.8,15.3l-0.9,0.6c-3.2-4.4-5-9.9-5-15.9
			C2.2,11.4,4.2,5.6,7.7,1.1z"/>
		<path style="fill:none;" d="M19,7.7l0.9,0.5c-1.8,2.5-3,5.8-3,9.4c0,3.3,1,6.4,2.5,8.8l-0.9,0.5c-1.7-2.5-2.8-5.8-2.8-9.3
			C15.7,13.8,17,10.3,19,7.7z"/>
		<path style="fill:none;" d="M10.5,2.7l0.9,0.5c-2.9,3.9-4.7,8.9-4.7,14.3c0,5.1,1.6,9.9,4.2,13.7L10,31.8
			C7.2,27.9,5.5,23,5.5,17.6C5.5,12,7.4,6.8,10.5,2.7z"/>
		<path style="fill:none;" d="M16.2,6l0.9,0.5c-2.2,2.9-3.6,6.8-3.6,11.1c0,3.9,1.2,7.5,3.1,10.4l-0.9,0.5c-2.1-3-3.4-6.8-3.4-10.9
			C12.3,13.2,13.8,9.1,16.2,6z"/>
		<path style="fill:none;" d="M13.3,4.4l1,0.6c-2.7,3.6-4.1,8-4.1,12.7c0,4.4,1.3,8.6,3.7,12l-1,0.6c-2.4-3.5-3.9-7.8-3.9-12.6
			C8.9,12.6,10.6,7.9,13.3,4.4z"/>
		<path style="fill:#63FBFE;" d="M2.2,17.6c0,6,1.9,11.4,5,15.9l-1.9,1.1C2,29.8,0,24,0,17.6C0,11,2.2,4.9,5.8,0l1.9,1.1
			C4.2,5.6,2.2,11.4,2.2,17.6z"/>
		<path style="fill:#5BB1CD;" d="M8.6,1.6l1.9,1.1c-3.1,4-5,9.2-5,14.9c0,5.4,1.7,10.3,4.5,14.2l-1.9,1.1c-3-4.3-4.8-9.6-4.8-15.3
			C3.4,11.6,5.3,6,8.6,1.6z"/>
		<path style="fill:#0F6297;" d="M4.6,25.6l-0.1-0.3l0,0c-0.7-2.4-1.1-5-1.1-7.7c0-3,0.5-5.9,1.4-8.6l2.9-7.9
			C4.2,5.6,2.2,11.4,2.2,17.6c0,6,1.9,11.4,5,15.9l-2.4-7.1C4.7,26.1,4.6,25.8,4.6,25.6z"/>
		<path style="fill:#598DB4;" d="M11.4,3.3l1.9,1.1c-2.7,3.6-4.4,8.2-4.4,13.3c0,4.8,1.5,9.1,3.9,12.6L11,31.3
			c-2.6-3.8-4.2-8.5-4.2-13.7C6.8,12.2,8.5,7.2,11.4,3.3z"/>
		<path style="fill:#1D4278;" d="M7.9,24.9l-0.1-0.2l0,0c-0.7-2.2-1-4.5-1-7c0-3.6,0.8-7,2.1-10l1.6-4.9c-3.1,4-5,9.2-5,14.9
			c0,5.4,1.7,10.3,4.5,14.2L7.9,25C7.9,25,7.9,24.9,7.9,24.9z"/>
		<path style="fill:#566D9C;" d="M14.3,4.9L16.2,6c-2.4,3.1-3.9,7.2-3.9,11.6c0,4.1,1.3,7.9,3.4,10.9l-1.9,1.1
			c-2.4-3.4-3.7-7.6-3.7-12C10.2,12.9,11.6,8.5,14.3,4.9z"/>
		<path style="fill:#3D256A;" d="M11,23.7l-0.2-0.8l0,0c-0.4-1.7-0.6-3.4-0.6-5.2c0-2.1,0.3-4.1,0.9-6.1l0-0.1l0.1-0.4
			c0-0.1,0.1-0.3,0.1-0.4l2-6.3c-2.7,3.6-4.4,8.2-4.4,13.3c0,4.8,1.5,9.1,3.9,12.6l-1.7-6.2C11.1,23.9,11,23.8,11,23.7z"/>
		<path style="fill:#54346F;" d="M17.1,6.6L19,7.7c-2,2.6-3.3,6.1-3.3,10c0,3.5,1.1,6.8,2.8,9.3L16.6,28c-1.9-2.9-3.1-6.5-3.1-10.4
			C13.5,13.4,14.9,9.5,17.1,6.6z"/>
		<path style="fill:#291E44;" d="M13.5,17.6c0-2.7,0.6-5.3,1.6-7.5L16.2,6c-2.4,3.1-3.9,7.2-3.9,11.6c0,4.1,1.3,7.9,3.4,10.9
			l-0.9-4.2C14,22.3,13.5,20,13.5,17.6z"/>
		<path style="fill:#33163B;" d="M16.9,17.6c0-2.4,0.5-4.7,1.4-6.7L19,7.7c-2,2.6-3.3,6.1-3.3,10c0,3.5,1.1,6.8,2.8,9.3L17.8,23
			C17.2,21.4,16.9,19.5,16.9,17.6z"/>
		<path style="fill:#DC41EF;" d="M113.5,17.6c0-6.3-2.1-12-5.5-16.5l-15.8,9.2c2.4,1.2,3.2,3.8,3.2,7.2c0,3-0.8,5.4-2.6,6.9
			l15.7,9.1C111.6,29.1,113.5,23.6,113.5,17.6z"/>
		<path style="fill:none;" d="M107.9,1.1L107,1.6c3.3,4.4,5.2,9.9,5.2,16c0,5.7-1.8,11-4.8,15.3l0.9,0.6c3.2-4.4,5-9.9,5-15.9
			C113.5,11.4,111.4,5.6,107.9,1.1z"/>
		<path style="fill:none;" d="M96.6,7.7l-0.9,0.5c1.8,2.5,3,5.8,3,9.4c0,3.3-1,6.4-2.5,8.8l0.9,0.5c1.7-2.5,2.8-5.8,2.8-9.3
			C99.9,13.8,98.6,10.3,96.6,7.7z"/>
		<path style="fill:none;" d="M105.1,2.7l-0.9,0.5c2.9,3.9,4.7,8.9,4.7,14.3c0,5.1-1.6,9.9-4.2,13.7l0.9,0.5
			c2.8-3.9,4.5-8.9,4.5-14.2C110.1,12,108.2,6.8,105.1,2.7z"/>
		<path style="fill:none;" d="M99.4,6l-0.9,0.5c2.2,2.9,3.6,6.8,3.6,11.1c0,3.9-1.2,7.5-3.1,10.4l0.9,0.5c2.1-3,3.4-6.8,3.4-10.9
			C103.3,13.2,101.8,9.1,99.4,6z"/>
		<path style="fill:none;" d="M102.3,4.4l-1,0.6c2.7,3.6,4.1,8,4.1,12.7c0,4.4-1.3,8.6-3.7,12l1,0.6c2.4-3.5,3.9-7.8,3.9-12.6
			C106.7,12.6,105,7.9,102.3,4.4z"/>
		<path style="fill:#63FBFE;" d="M113.5,17.6c0,6-1.9,11.4-5,15.9l1.9,1.1c3.3-4.7,5.3-10.6,5.3-17c0-6.6-2.2-12.8-5.8-17.6
			l-1.9,1.1C111.4,5.6,113.5,11.4,113.5,17.6z"/>
		<path style="fill:#5BB1CD;" d="M107,1.6l-1.9,1.1c3.1,4,5,9.2,5,14.9c0,5.4-1.7,10.3-4.5,14.2l1.9,1.1c3-4.3,4.8-9.6,4.8-15.3
			C112.2,11.6,110.3,6,107,1.6z"/>
		<path style="fill:#0F6297;" d="M107.9,1.1l2.9,7.9c0.9,2.7,1.4,5.6,1.4,8.6c0,2.7-0.4,5.2-1.1,7.7l0,0l-0.1,0.3
			c-0.1,0.3-0.2,0.5-0.3,0.8l-2.4,7.1c3.2-4.4,5-9.9,5-15.9C113.5,11.4,111.4,5.6,107.9,1.1z"/>
		<path style="fill:#598DB4;" d="M104.2,3.3l-1.9,1.1c2.7,3.6,4.4,8.2,4.4,13.3c0,4.8-1.5,9.1-3.9,12.6l1.9,1.1
			c2.6-3.8,4.2-8.5,4.2-13.7C108.8,12.2,107.1,7.2,104.2,3.3z"/>
		<path style="fill:#1D4278;" d="M105.1,2.7l1.6,4.9c1.4,3,2.1,6.4,2.1,10c0,2.4-0.4,4.8-1,7l0,0l-0.1,0.2c0,0,0,0.1,0,0.1l-2.1,6.8
			c2.8-3.9,4.5-8.9,4.5-14.2C110.1,12,108.2,6.8,105.1,2.7z"/>
		<path style="fill:#566D9C;" d="M101.3,4.9L99.4,6c2.4,3.1,3.9,7.2,3.9,11.6c0,4.1-1.3,7.9-3.4,10.9l1.9,1.1
			c2.4-3.4,3.7-7.6,3.7-12C105.5,12.9,104,8.5,101.3,4.9z"/>
		<path style="fill:#3D256A;" d="M102.3,4.4l2,6.3c0,0.1,0.1,0.3,0.1,0.4l0.1,0.4l0,0.1c0.6,1.9,0.9,4,0.9,6.1
			c0,1.8-0.2,3.5-0.6,5.2l0,0l-0.2,0.8c0,0.1-0.1,0.2-0.1,0.4l-1.7,6.2c2.4-3.5,3.9-7.8,3.9-12.6C106.7,12.6,105,7.9,102.3,4.4z"/>
		<path style="fill:#54346F;" d="M98.5,6.6l-1.9,1.1c2,2.6,3.3,6.1,3.3,10c0,3.5-1.1,6.8-2.8,9.3L99,28c1.9-2.9,3.1-6.5,3.1-10.4
			C102.1,13.4,100.7,9.5,98.5,6.6z"/>
		<path style="fill:#291E44;" d="M99.9,28.5c2.1-3,3.4-6.8,3.4-10.9c0-4.4-1.5-8.5-3.9-11.6l1.1,4.1c1,2.3,1.6,4.8,1.6,7.5
			c0,2.4-0.4,4.7-1.2,6.7L99.9,28.5z"/>
		<path style="fill:#541C5A;" d="M95.7,8.2l-1.9,1.1c1.6,2.1,2.7,5.1,2.7,8.3c0,2.9-0.9,5.6-2.2,7.7l1.9,1.1
			c1.6-2.4,2.5-5.5,2.5-8.8C98.7,14,97.5,10.6,95.7,8.2z"/>
		<path style="fill:#33163B;" d="M96.6,7.7l0.7,3.2c0.9,2,1.4,4.3,1.4,6.7c0,1.9-0.3,3.8-0.9,5.4l-0.7,3.9c1.7-2.5,2.8-5.8,2.8-9.3
			C99.9,13.8,98.6,10.3,96.6,7.7z"/>
		<path style="fill:#34173B;" d="M93.8,9.3l-1.7,1c2.3,1.2,3.2,3.8,3.2,7.3c0,2.9-0.8,5.4-2.6,6.9l1.5,0.9c1.4-2,2.2-4.8,2.2-7.7
			C96.5,14.4,95.5,11.4,93.8,9.3z"/>
		<path style="fill:#34173B;" d="M22.6,9.8L22.6,9.8l-0.9-0.5c-1.6,2.1-2.7,5.1-2.7,8.3c0,2.6,0.7,5.1,1.8,7L22.6,9.8z"/>
		<polygon style="fill:#FFFFFF;" points="103.5,14.3 103.8,12.3 101.7,14.8 		"/>
		<path style="fill:#1D1D1B;" d="M28.8,25.8l-3.8-11h-0.1v3.9l-0.5,6.9h-3.6l1.8-15.8h3.6L30,20.5l3.8-10.7h3.6l1.7,15.8h-3.6
			L35,18.6v-3.8h-0.1l-3.8,11H28.8z"/>
		<path style="fill:#541C5A;" d="M20.9,24.6c-1.1-2-1.8-4.4-1.8-7c0-3.2,1.1-6.2,2.7-8.3l-1.9-1.1c-1.8,2.5-3,5.8-3,9.4
			c0,3.3,1,6.4,2.5,8.8l1.4-0.8L20.9,24.6z"/>
		<polygon style="fill:#FFFFFF;" points="22.3,13 18.5,14.5 16.8,17.5 17.5,18.4 19.2,15.9 20.5,15.7 18.4,19.4 17.1,20.9 
			14.2,20.8 13.1,20.9 12.8,23.5 13.8,23.2 14.3,22.1 18.1,22.7 20.4,20.6 21.3,20.9 		"/>
		<path style="fill:#1D1D1B;" d="M41.6,25.6V9.8h10.4v3.1h-6.9V16H51v3.1h-5.9v3.3h7.2v3.1H41.6z"/>
		<path style="fill:#1D1D1B;" d="M67.1,9.8h13.7v3.6c-0.8-0.4-2.8-0.6-4-0.6h-1.1v12.8h-3.5V12.8h-1.1c-1.2,0-3.2,0.2-4,0.6V9.8z"/>
		<path style="fill:#1D1D1B;" d="M88.5,9.5c5.2,0,6.9,3.2,6.9,8.1c0,4.8-2.1,8.3-7.1,8.3c-5,0-7-3.4-7-8.3
			C81.3,12.6,84.1,9.5,88.5,9.5z M88.3,22.8c2.5,0,3.5-2.2,3.5-5.2c0-3.1-0.9-5.1-3.5-5.1c-2.3,0-3.5,2.1-3.5,4.9
			C84.8,20.6,85.8,22.8,88.3,22.8z"/>
		<g>
			<path style="fill:#FFFFFF;" d="M97.7,11.9c0.2,0.6,0.7,1.2,1.4,1.2c0.8,0,1.5-0.6,1.6-1.6c0-0.2,0-0.8,0-0.9l1.1-0.4l-0.1-0.4
				l-1.4,0c-0.3-0.3-0.7-0.5-1.2-0.5C97.2,9.6,97.4,11.4,97.7,11.9L97.7,11.9z"/>
			<path style="fill:#FFFFFF;" d="M104.3,12.2l-0.4,2.4l-2.3,0.7l0.4,0.3l-2,0.7l-0.5-2l-2.6-1.3l-1.9,1c0.3,1.1,0.4,2.3,0.4,3.7
				c0,1.3-0.1,2.4-0.5,3.5l0.9-0.6l2.2,0.9l1.4,3.7l0.2,0.8l2.5-0.4l-0.2-0.7l-1.3-0.2L99.4,20L97,18.4l1.5-2.1l0.4,1.6l3.9-1.6
				l0.4,0.4l2.7-3L104.3,12.2z"/>
		</g>
		<g>
			<path style="fill:#1D1D1B;" d="M65.9,24.6c-1.4,0.7-3,1.2-4.9,1.2c-5,0-7.6-2.7-7.6-7.9c0-5,3-8.4,7.9-8.4c1.8,0,3,0.2,4.5,0.9
				l-0.5,4c-1.1-1.4-2.5-1.9-3.9-1.9c-2.7,0-4.4,1.8-4.4,5.2c0,3.2,1.7,5,4.4,5c2.7,0,4.5-1.8,4.5-1.8V24.6z"/>
		</g>
	</g>
</g>
</svg>
