<?xml version="1.0" encoding="utf-8"?>
<!-- Generator: Adobe Illustrator 21.0.2, SVG Export Plug-In . SVG Version: 6.00 Build 0)  -->
<svg version="1.1" id="Слой_1" xmlns="http://www.w3.org/2000/svg" xmlns:xlink="http://www.w3.org/1999/xlink" x="0px" y="0px"
	 width="44px" height="32px" viewBox="0 0 44 32" style="enable-background:new 0 0 44 32;" xml:space="preserve">
<style type="text/css">
	.st0{fill:none;}
	.st1{fill:#FFFFFF;}
</style>
<path class="st0" d="M28.5,19.9c0-0.5-0.4-1-1-1s-1,0.5-1,1s0.4,1,1,1S28.5,20.5,28.5,19.9z"/>
<path class="st0" d="M23.6,28.4c0-0.8-0.7-1.5-1.5-1.5s-1.5,0.6-1.5,1.5c0,0.8,0.7,1.5,1.5,1.5S23.6,29.2,23.6,28.4z"/>
<path class="st1" d="M25.4,28.4c0-1.9-1.5-3.4-3.3-3.4c-0.4,0-0.8,0.1-1.2,0.2l-5.4-7c-0.3-0.4-1.2-0.8-1.9,0.1
	c-1.1,2.6-2.1,4.7-3.1,7.1c-0.4,0.9-1,0.9-1.8,0.9c-1.6,0-5,0-5,0c-0.5,0-0.8-0.6-0.6-1c3.2-7.2,6.4-14.4,9.6-21.6
	c0.1-0.3,0.5-0.5,0.9-0.3c0.2-0.1,0.3,0,0.4,0.1l7.6,10.2c0.3,0.4,0.7,0.4,1.1,0l7.5-10.2c0.1-0.1,0.2-0.2,0.4-0.3
	c0.3-0.2,0.7,0,0.9,0.3c3.2,7.2,6.4,14.4,9.6,21.6c0.3,0.8-0.4,1.1-0.6,1c-1.3,0-4,0-5.8,0c-0.6,0-0.8,0-1.2-0.2
	c-0.8-0.4-2.9-3.2-3.9-4.7c0.3-0.4,0.4-0.9,0.4-1.4c0-1.4-1.1-2.5-2.5-2.5S25,18.4,25,19.8s1.1,2.5,2.5,2.5c0.1,0.2,0.3,0.2,0.5,0.1
	c1.2,1.6,3.8,4.9,4.4,5.4c0.3,0.2,0.8,0.3,0.9,0.3h8.2c1.3-0.1,2.1-1.3,1.7-2.4c-3.5-7.9-7-16.1-10.5-24.2c-0.7-1.6-2.3-1.4-2.9-0.4
	l-7.7,10.3L14.5,1.1c-0.7-1-2.3-1.1-2.9,0.4L0.9,25.8c-0.5,1.1,0.4,2.5,1.7,2.4h7.6c0.4,0,1.3-0.1,1.5-0.7l3.2-7.2l4.6,6
	c-0.4,0.6-0.7,1.3-0.7,2.1c0,1.9,1.5,3.4,3.3,3.4S25.4,30.3,25.4,28.4z M26.5,19.9c0-0.5,0.4-1,1-1s1,0.5,1,1c0,0.6-0.4,1-1,1
	S26.5,20.4,26.5,19.9z M20.6,28.4c0-0.9,0.7-1.5,1.5-1.5s1.5,0.7,1.5,1.5s-0.7,1.5-1.5,1.5S20.6,29.2,20.6,28.4z"/>
<path class="st0" d="M40.5,26.1c-1.3,0-4,0-5.8,0"/>
</svg>
