<?xml version="1.0" encoding="utf-8"?>
<!-- Generator: Adobe Illustrator 21.0.2, SVG Export Plug-In . SVG Version: 6.00 Build 0)  -->
<!DOCTYPE svg PUBLIC "-//W3C//DTD SVG 1.1//EN" "http://www.w3.org/Graphics/SVG/1.1/DTD/svg11.dtd" [
	<!ENTITY st0 "fill:none;">
	<!ENTITY st1 "fill:#FFFFFF;">
]>
<svg version="1.1" id="Слой_1" xmlns="http://www.w3.org/2000/svg" xmlns:xlink="http://www.w3.org/1999/xlink" x="0px" y="0px"
	 width="136px" height="32px" viewBox="0 0 136 32" style="enable-background:new 0 0 136 32;" xml:space="preserve">
<g>
	<path style="&st0;" d="M27.9,19.9c0-0.5-0.4-1-1-1s-1,0.5-1,1s0.4,1,1,1S27.9,20.5,27.9,19.9z"/>
	<path style="&st0;" d="M23,28.4c0-0.8-0.7-1.5-1.5-1.5S20,27.5,20,28.4c0,0.8,0.7,1.5,1.5,1.5S23,29.2,23,28.4z"/>
	<path style="&st0;" d="M127.2,11c-1.4,0-2.6,0.5-3.5,1.4s-1.4,2-1.4,3.6c0,1.4,0.5,2.5,1.7,3.6c0.8,0.9,2,1.4,3.3,1.4
		c1.4,0,2.7-0.5,3.5-1.4c0.8-0.9,1.3-2.2,1.3-3.6s-0.5-2.7-1.4-3.6C129.7,11.5,128.6,11,127.2,11z"/>
	<path style="&st1;" d="M24.8,28.4c0-1.9-1.5-3.4-3.3-3.4c-0.4,0-0.8,0.1-1.2,0.2l-5.4-7c-0.3-0.4-1.2-0.8-1.9,0.1
		c-1.1,2.6-2.1,4.7-3.1,7.1c-0.4,0.9-1,0.9-1.8,0.9c-1.6,0-5,0-5,0c-0.5,0-0.8-0.6-0.6-1c3.2-7.2,6.4-14.4,9.6-21.6
		c0.1-0.3,0.5-0.5,0.9-0.3c0.2-0.1,0.3,0,0.4,0.1L21,13.7c0.3,0.4,0.7,0.4,1.1,0l7.5-10.2c0.1-0.1,0.2-0.2,0.4-0.3
		c0.3-0.2,0.7,0,0.9,0.3c3.2,7.2,6.4,14.4,9.6,21.6c0.3,0.8-0.4,1.1-0.6,1c-1.3,0-4,0-5.8,0c-0.6,0-0.8,0-1.2-0.2
		c-0.8-0.4-2.9-3.2-3.9-4.7c0.3-0.4,0.4-0.9,0.4-1.4c0-1.4-1.1-2.5-2.5-2.5s-2.5,1.1-2.5,2.5s1.1,2.5,2.5,2.5
		c0.1,0.2,0.3,0.2,0.5,0.1c1.2,1.6,3.8,4.9,4.4,5.4c0.3,0.2,0.8,0.3,0.9,0.3h8.2c1.3-0.1,2.1-1.3,1.7-2.4c-3.5-7.9-7-16.1-10.5-24.2
		c-0.7-1.6-2.3-1.4-2.9-0.4l-7.7,10.3L13.9,1.1c-0.7-1-2.3-1.1-2.9,0.4L0.3,25.8c-0.5,1.1,0.4,2.5,1.7,2.4h7.6
		c0.4,0,1.3-0.1,1.5-0.7l3.2-7.2l4.6,6c-0.4,0.6-0.7,1.3-0.7,2.1c0,1.9,1.5,3.4,3.3,3.4S24.8,30.3,24.8,28.4z M25.9,19.9
		c0-0.5,0.4-1,1-1s1,0.5,1,1c0,0.6-0.4,1-1,1S25.9,20.4,25.9,19.9z M20,28.4c0-0.9,0.7-1.5,1.5-1.5s1.5,0.7,1.5,1.5
		s-0.7,1.5-1.5,1.5S20,29.2,20,28.4z"/>
	<path style="&st0;" d="M39.9,26.1c-1.3,0-4,0-5.8,0"/>
	<path style="&st1;" d="M133.5,9.6c-1.6-1.6-3.8-2.4-6.3-2.4s-4.7,0.8-6.3,2.5c-1.8,1.7-2.5,3.7-2.5,6.3c0,2.7,0.8,4.7,2.5,6.3
		c1.7,1.6,3.8,2.4,6.3,2.4s4.6-0.8,6.3-2.5c1.7-1.6,2.5-3.8,2.5-6.3C136,13.2,135.2,11.2,133.5,9.6z M130.8,19.6
		c-0.8,0.9-2.1,1.4-3.5,1.4c-1.3,0-2.5-0.5-3.3-1.4c-1.2-1.1-1.7-2.2-1.7-3.6c0-1.6,0.5-2.7,1.4-3.6c0.9-0.9,2.1-1.4,3.5-1.4
		s2.5,0.5,3.5,1.4c0.9,0.9,1.4,2.2,1.4,3.6S131.6,18.7,130.8,19.6z"/>
	<polygon style="&st1;" points="74.3,17.7 79.7,17.7 79.7,14.1 74.3,14.1 74.3,11.1 80.3,11.1 80.3,7.4 70.5,7.4 70.5,24.3 
		80.6,24.3 80.6,20.7 74.3,20.7 	"/>
	<polygon style="&st1;" points="55.5,14.5 50.6,7.4 46.8,7.4 46.8,24.3 50.6,24.3 50.6,13.8 55.2,20.3 55.7,20.3 60.3,13.7 
		60.3,24.4 64,24.4 64,7.4 60.4,7.4 	"/>
	<polygon style="&st1;" points="102,11 107,11 107,11.1 107,24.4 110.8,24.4 110.8,11.1 115.7,11.1 115.7,7.4 102,7.4 	"/>
	<path style="&st1;" d="M94,21c-1.4,0-2.7-0.5-3.6-1.4S89,17.4,89,16c0-1.6,0.5-2.8,1.3-3.8c0.9-0.9,2.1-1.3,3.3-1.3
		c1.1,0,2.2,0.3,3.3,1.1l1.7-2.8c-1.1-1.1-3-1.7-5.1-1.7c-2.7,0-4.9,0.8-6.3,2.5c-1.6,1.6-2.2,3.8-2.2,6.3c0,2.7,0.8,4.7,2.4,6.3
		C89,24.2,91,25,93.7,25c1.1,0,2.2-0.2,3.2-0.5c0.9-0.3,1.7-0.8,2.2-1.4l-1.4-3.3C96.6,20.5,95.5,21,94,21z"/>
</g>
</svg>
