<?xml version="1.0" encoding="utf-8"?>
<!-- Generator: Adobe Illustrator 21.0.2, SVG Export Plug-In . SVG Version: 6.00 Build 0)  -->
<svg version="1.1" id="order_x5F_complited" xmlns="http://www.w3.org/2000/svg" xmlns:xlink="http://www.w3.org/1999/xlink"
	 x="0px" y="0px" width="480px" height="344px" viewBox="0 0 480 344" style="enable-background:new 0 0 480 344;"
	 xml:space="preserve">
<style type="text/css">
	.st0{display:none;opacity:0.51;}
	.st1{display:inline;fill:#ECF0FE;}
	.st2{display:inline;}
	.st3{fill:#ECF0FE;}
	.st4{opacity:0.51;fill:#ECF0FE;enable-background:new    ;}
	.st5{opacity:0.25;}
	.st6{fill:#D8E2FE;}
	.st7{opacity:0.5;}
	.st8{fill:#D9E2FE;}
	.st9{fill:#FFFFFF;}
	.st10{opacity:0.26;}
	.st11{opacity:0.66;}
	.st12{opacity:0.6;}
	.st13{fill:#BAC6FD;}
	.st14{fill:#F2F2F2;}
	.st15{opacity:0.31;fill:#7743C0;enable-background:new    ;}
	.st16{opacity:0.31;fill:#3277FC;enable-background:new    ;}
	.st17{fill:#DECAFD;}
	.st18{opacity:0.21;fill:#3277FC;enable-background:new    ;}
	.st19{display:none;fill:#383340;}
	.st20{fill:#EC8A8F;}
	.st21{fill:#7743C0;}
	.st22{fill:#5462E4;}
	.st23{fill:#3277FC;}
	.st24{fill:#CC7998;}
	.st25{fill:#383340;}
	.st26{clip-path:url(#SVGID_2_);fill:#7743C0;}
	.st27{opacity:0.45;clip-path:url(#SVGID_4_);fill:url(#SVGID_5_);enable-background:new    ;}
	.st28{clip-path:url(#SVGID_7_);fill:#EC8A8F;}
	.st29{opacity:0.23;clip-path:url(#SVGID_9_);fill:#7743C0;enable-background:new    ;}
	.st30{fill:#8F5D66;}
	.st31{opacity:0.23;fill:#7743C0;enable-background:new    ;}
	.st32{fill:#603B92;}
	.st33{fill:#F3F1F6;}
	.st34{fill:url(#SVGID_10_);}
</style>
<g id="clouds">
	<g class="st0">
		<path class="st1" d="M6.1,139.2c6.9-8,19.7-3.9,23.9-15.6c4.4-12.3-8.4-17,5-29.6c10.2-9.6,87.7-21.2,88.8-2.8
			c0.5,9-18.4,6.5-13.9,18.8c3.8,10.4,23.1,4.4,27.7,13.7c0.9,1.7-0.1,3.8-1.9,4.4c-3.5,1.2-6.7,2.7-9.8,4.6
			c-2.4,1.5-1.9,5.2,0.8,5.9c0.1,0,0.2,0.1,0.2,0.1c11,0.2,22.9,10.6,3.2,12.7C107.3,153.7-17.7,166.4,6.1,139.2z"/>
		<g class="st2">
			<path class="st3" d="M7.1,140.2c6.1-6.4,16.7-4.8,22.1-12.1c2.2-3,3.3-6.8,3.2-10.5s-1.8-7.1-2.2-10.8
				c-1.5-15,21.2-18.3,31.5-20.3c14.7-2.9,30.2-4.8,45.2-3.1c4.4,0.5,10.9,1.2,14,4.8c5.1,5.8-4.9,8.7-8.5,11
				c-4.9,3.1-6.3,8.7-2.8,13.6c4.2,5.8,12.8,5.4,19.1,6.9c2,0.5,4,1.1,5.6,2.4c3.9,3.2-1.8,5.5-4.5,6.7c-3.1,1.5-8.2,3.5-6.9,7.9
				c1.9,6.3,13,2,15.8,8.2c2.1,4.8-11.6,5.2-15.2,5.5c-5.1,0.5-10.3,1-15.4,1.4c-14.2,1.2-28.4,2.2-42.6,2.7
				c-15.3,0.5-31,1-46.1-1.6C12.7,151.9-0.3,149,7.1,140.2c1.2-1.5-0.9-3.6-2.1-2.1c-16.5,19.4,32.5,19.6,40.8,19.7
				c28,0.3,56.2-1.9,84-5c4.1-0.5,15.1-2.1,11.9-8.9c-1.2-2.5-4.1-4.1-6.4-5.1c-1.6-0.7-3.2-1.2-4.9-1.5c-0.2,0-2.2-0.2-2.3-0.3
				c-4.3-3.4,5.4-6.6,6.5-7c7.8-3.1,4.8-9.9-1.9-12.4c-5.6-2.1-25.2-1.9-21.6-12.6c2-6,11.9-5.1,14.1-11.4c1.5-4.2-1.5-8-5-9.9
				c-5.2-2.8-11.6-3.4-17.3-3.7c-8.3-0.5-16.7,0.1-24.9,1c-9,1-17.9,2.5-26.7,4.8c-5.5,1.4-11.9,3-16.4,6.5
				c-3.5,2.8-6.8,7.2-7.3,11.8c-0.5,4.6,2.1,8.8,2.2,13.4c0.5,15.1-16.6,12.3-24.4,20.5C3.7,139.5,5.8,141.6,7.1,140.2z"/>
		</g>
	</g>
	<g class="st0">
		<path class="st1" d="M473.2,146.8c-4.6-6.3-15-2.1-18.2-7.7c-4.5-7.8,3.7-12.6-7-19.6c-8.1-5.3-62.5-3.8-60.9,8.8
			c0.7,6.2,13.4,2.2,11.8,11.2c-1.3,7.5-15.2,5.8-17.3,12.7c-0.4,1.3,0.5,2.6,1.8,2.8c2.5,0.4,4.9,1,7.3,1.9
			c1.8,0.7,1.9,3.3,0.1,4.1c-0.1,0-0.1,0.1-0.2,0.1c-4.8,0.9-9.3,4.7-8.4,7.1c0.6,1.8,6.1,1.9,7.8,2c11.8,0.2,82.6,1.1,85-16.5
			C475.3,151.6,474.7,148.8,473.2,146.8z"/>
		<g class="st2">
			<path class="st3" d="M474.3,145.7c-1.7-2-3.8-3.2-6.3-3.9c-3.2-0.8-7.3-0.3-10.2-2.1c-5.5-3.5-0.8-12.2-4.1-17.1
				c-4.8-7.2-14.8-7.3-22.5-7.5c-10.9-0.4-22.3,0.2-32.9,3c-4.7,1.2-14.6,4.4-12.5,11.2c1.3,4,5.9,3.9,9.1,5.4
				c4,1.8,2.7,6.1-0.6,8.1c-2.6,1.5-5.7,2.1-8.4,3.4c-3,1.4-8.4,5.5-4.8,9.1c1.8,1.8,10.3,1.4,7.1,4.9c-0.8,0.9-3.1,1.4-4,2.1
				c-1.1,0.8-2.2,1.8-2.8,3c-3.8,7.6,11.7,6.3,15.9,6.3c10.3,0,20.6-0.2,30.9-1c10.5-0.7,59.4-3.3,46.5-24.7c-1-1.6-3.6-0.1-2.6,1.5
				c10.4,17.1-34.6,19.5-42.8,20.1c-9.3,0.7-18.6,1-28,1c-3.1,0-6.1,0-9.2,0c-1.2,0-2.4,0-3.5-0.1c-1.9-0.1-3.6,0.2-3.9-1.6
				c-0.5-2.6,4.1-3.5,5.8-4.3c2.5-1.2,4.7-3.9,2-6.5c-2.1-1.9-10.6-2.1-7.4-6.1c1.5-1.9,5.7-2.5,7.9-3.3c3.4-1.3,6.8-3.2,7.5-7.1
				c0.7-3.4-0.8-6-3.9-7.5c-2.5-1.2-9.6-1.6-7.4-5.9c1.4-2.7,5.9-4,8.5-4.8c9.2-2.8,19.2-3.4,28.8-3.4c7.6,0,25.3-1.1,26.1,10
				c0.4,4.8-1.4,9.9,2.9,13.6c4.9,4.2,12.5,1,17,6.3C473.4,149.3,475.5,147.2,474.3,145.7z"/>
		</g>
	</g>
	<path class="st4" d="M369.4,154.1c0-9.4,8.2-13.9,16.8-13.9c8.1,0,9.2-14,18.9-14c8,0,19,0,26.8,0c19.3,0,17.4,9.4,25.1,9.4
		c8.6,0,13.1,5.4,13.1,11c0,6-5,11.7-13.3,11.7c-8,0-8.4,0-17.4,0c-10.5,0-8.5,7.6-21.8,7.6c-12.1,0-21.4,0-30.8,0
		C377.6,165.9,369.4,162.5,369.4,154.1z"/>
	<path class="st4" d="M98.6,88.6c-13.5,0-11.4,5.4-19.9,5.4c-9.9,0-7.3,0-16.9,0c-13.3,0-11.2,16.6-22.1,16.6c-10.5,0-22,3.8-22,14
		c0,10.1,11.7,10.7,21.8,10.7c9,0,14.9,0,22.8,0c9.3,0,12.9,6.7,28.8,6.7c14.1,0,17.7,0,26.5,0c9.6,0,20.7-8.1,20.7-20.7
		c0-12.3-4.8-12.5-12.5-12.5c-6.2,0-8.8-4.2-12.8-10.5C109.8,93.2,105.1,88.6,98.6,88.6z"/>
	<path class="st4" d="M234.6,41.5c7.9,0,16.5-3.1,16.5-10.2c0-4.5,7.4-11.7,13.4-11.7s21.1,0,29.8,0c9.4,0,18.2,17.8,25.1,17.8
		c14.1,0,19.6,5.7,19.6,14.7c0,8.4-5,13.1-19,13.1c-9.7,0-19.7,10.4-28.9,10.4c-13.5,0-17.2-0.1-35.4-0.1
		c-12.8,0-11.7-11.4-19.9-11.4c-6,0-17.5-0.6-17.5-11C218.3,46.3,224,41.5,234.6,41.5z"/>
</g>
<g id="city">
	<g class="st5">
		<rect x="23.7" y="208.3" class="st6" width="47.2" height="68.7"/>
		<rect x="82.2" y="175.8" class="st6" width="52.9" height="101.2"/>
		<rect x="144.5" y="159.6" class="st6" width="62.3" height="117.4"/>
		<rect x="156.8" y="142.7" class="st6" width="40.6" height="69.3"/>
		<rect x="167.2" y="119" class="st6" width="16" height="38.7"/>
		<rect x="90.7" y="165.2" class="st6" width="24.5" height="35.6"/>
		<rect x="97.3" y="156.5" class="st6" width="9.4" height="12.5"/>
		<rect x="216.9" y="141.5" class="st6" width="59.5" height="135.5"/>
		<rect x="230.8" y="125.2" class="st6" width="22.7" height="42.5"/>
		<rect x="284.2" y="128.6" class="st6" width="22.7" height="148.4"/>
		<rect x="224.5" y="135.2" class="st6" width="45.3" height="26.2"/>
		<rect x="322.9" y="159" class="st6" width="38.7" height="118"/>
		<rect x="314.4" y="179.6" class="st6" width="57.6" height="97.4"/>
		<rect x="381.5" y="200.2" class="st6" width="41.5" height="76.8"/>
		<rect x="390.9" y="177.7" class="st6" width="21.7" height="38.1"/>
		<rect x="31.2" y="202.7" class="st6" width="21.7" height="12.5"/>
	</g>
	<g class="st7">
		<rect x="347.1" y="215.3" class="st6" width="38.3" height="61.7"/>
		<rect x="294.9" y="186.1" class="st6" width="42.9" height="90.9"/>
		<rect x="236.7" y="171.5" class="st6" width="50.6" height="105.5"/>
		<rect x="244.4" y="156.4" class="st6" width="32.9" height="62.3"/>
		<rect x="255.9" y="135" class="st6" width="13" height="34.8"/>
		<rect x="311.1" y="176.6" class="st6" width="19.9" height="32"/>
		<rect x="317.9" y="168.7" class="st6" width="7.7" height="11.2"/>
		<rect x="180.3" y="155.2" class="st6" width="48.3" height="121.8"/>
		<rect x="198.9" y="140.6" class="st6" width="18.4" height="38.2"/>
		<rect x="155.6" y="143.7" class="st6" width="18.4" height="133.3"/>
		<rect x="185.6" y="149.6" class="st6" width="36.8" height="23.6"/>
		<rect x="111.1" y="170.9" class="st6" width="31.4" height="106.1"/>
		<rect x="102.7" y="189.4" class="st6" width="46.7" height="87.6"/>
		<rect x="61.4" y="208" class="st6" width="33.7" height="69"/>
		<rect x="69.7" y="187.8" class="st6" width="17.6" height="34.2"/>
		<rect x="361.6" y="210.2" class="st6" width="17.6" height="11.2"/>
	</g>
	<g>
		<g>
			<g>
				<rect x="82.1" y="177.8" class="st8" width="33.3" height="99.9"/>
			</g>
			<rect x="123.5" y="130.6" class="st8" width="37.3" height="147.1"/>
			<rect x="167.4" y="107" class="st8" width="44" height="170.7"/>
			<rect x="176.1" y="82.5" class="st8" width="28.7" height="100.8"/>
			<rect x="183.3" y="48" class="st8" width="11.3" height="56.3"/>
			<rect x="129.4" y="115.2" class="st8" width="17.3" height="51.7"/>
			<rect x="134" y="102.5" class="st8" width="6.7" height="18.2"/>
			<rect x="226.1" y="80.7" class="st8" width="42" height="197"/>
			<rect x="243.4" y="57.1" class="st8" width="16" height="61.7"/>
			<rect x="231.4" y="71.6" class="st8" width="32" height="38.1"/>
			<polygon class="st8" points="316.8,277.7 297.5,277.7 297.3,112.5 316.6,112.5 			"/>
			<rect x="287.5" y="136.1" class="st8" width="40.7" height="141.6"/>
			<rect x="334.8" y="166" class="st8" width="29.3" height="111.7"/>
			<rect x="341.4" y="133.3" class="st8" width="15.3" height="55.4"/>
			<rect x="87.4" y="169.6" class="st8" width="15.3" height="18.2"/>
		</g>
	</g>
	<g class="st7">
		<path class="st9" d="M109,179.3v9.8h5.4v-9.8H109z M102.5,189.1h5.4v-9.8h-5.4V189.1z M82.9,179.3h5.4v9.8h-5.4V179.3z
			 M89.5,189.1h5.4v-9.8h-5.4V189.1z M96,189.1h5.4v-9.8H96V189.1z"/>
		<path class="st9" d="M109,190.9v9.8h5.4v-9.8H109z M102.5,200.7h5.4v-9.8h-5.4V200.7z M82.9,190.9h5.4v9.8h-5.4V190.9z
			 M89.5,200.7h5.4v-9.8h-5.4V200.7z M96,200.7h5.4v-9.8H96V200.7z"/>
		<path class="st9" d="M109,202.4v9.8h5.4v-9.8H109z M102.5,212.2h5.4v-9.8h-5.4V212.2z M82.9,202.4h5.4v9.8h-5.4V202.4z
			 M89.5,212.2h5.4v-9.8h-5.4V212.2z M96,212.2h5.4v-9.8H96V212.2z"/>
		<path class="st9" d="M109,214v9.8h5.4V214H109z M102.5,223.8h5.4V214h-5.4V223.8z M82.9,214h5.4v9.8h-5.4V214z M89.5,223.8h5.4
			V214h-5.4V223.8z M96,223.8h5.4V214H96V223.8z"/>
		<path class="st9" d="M109,225.5v9.8h5.4v-9.8H109z M102.5,235.3h5.4v-9.8h-5.4V235.3z M82.9,225.5h5.4v9.8h-5.4V225.5z
			 M89.5,235.3h5.4v-9.8h-5.4V235.3z M96,235.3h5.4v-9.8H96V235.3z"/>
		<path class="st9" d="M109,237.1v9.8h5.4v-9.8H109z M102.5,246.9h5.4v-9.8h-5.4V246.9z M82.9,237.1h5.4v9.8h-5.4V237.1z
			 M89.5,246.9h5.4v-9.8h-5.4V246.9z M96,246.9h5.4v-9.8H96V246.9z"/>
		<path class="st9" d="M109,248.7v9.8h5.4v-9.8H109z M102.5,258.4h5.4v-9.8h-5.4V258.4z M82.9,248.7h5.4v9.8h-5.4V248.7z
			 M89.5,258.4h5.4v-9.8h-5.4V258.4z M96,258.4h5.4v-9.8H96V258.4z"/>
		<path class="st9" d="M109,260.2v9.8h5.4v-9.8H109z M102.5,270h5.4v-9.8h-5.4V270z M82.9,260.2h5.4v9.8h-5.4V260.2z M89.5,270h5.4
			v-9.8h-5.4V270z M96,270h5.4v-9.8H96V270z"/>
		<path class="st9" d="M109,271.8v9.8h5.4v-9.8H109z M102.5,281.6h5.4v-9.8h-5.4V281.6z M82.9,271.8h5.4v9.8h-5.4V271.8z
			 M89.5,281.6h5.4v-9.8h-5.4V281.6z M96,281.6h5.4v-9.8H96V281.6z"/>
	</g>
	<g class="st10">
		<rect x="124.7" y="131.3" class="st9" width="36.1" height="0.9"/>
		<rect x="124.7" y="135.7" class="st9" width="36.1" height="0.9"/>
		<rect x="124.7" y="140.1" class="st9" width="36.1" height="0.9"/>
		<rect x="124.7" y="144.4" class="st9" width="36.1" height="0.9"/>
		<rect x="124.7" y="148.8" class="st9" width="36.1" height="0.9"/>
		<rect x="124.7" y="153.2" class="st9" width="36.1" height="0.9"/>
		<rect x="124.7" y="157.6" class="st9" width="36.1" height="0.9"/>
		<rect x="124.7" y="161.9" class="st9" width="36.1" height="1"/>
		<rect x="124.7" y="166.3" class="st9" width="36.1" height="1"/>
		<rect x="124.7" y="170.7" class="st9" width="36.1" height="1"/>
		<rect x="124.7" y="175.1" class="st9" width="36.1" height="1"/>
		<rect x="124.7" y="179.4" class="st9" width="36.1" height="1"/>
		<rect x="124.7" y="183.8" class="st9" width="36.1" height="1"/>
		<rect x="124.7" y="188.2" class="st9" width="36.1" height="1"/>
		<rect x="124.7" y="192.5" class="st9" width="36.1" height="1"/>
		<rect x="124.7" y="196.9" class="st9" width="36.1" height="1"/>
		<rect x="124.7" y="201.3" class="st9" width="36.1" height="1.1"/>
		<rect x="124.7" y="205.7" class="st9" width="36.1" height="1.1"/>
		<rect x="124.7" y="210" class="st9" width="36.1" height="1.1"/>
		<rect x="124.7" y="214.4" class="st9" width="36.1" height="1.1"/>
		<rect x="124.7" y="218.8" class="st9" width="36.1" height="1.1"/>
		<rect x="124.7" y="223.2" class="st9" width="36.1" height="1.1"/>
		<rect x="124.7" y="227.5" class="st9" width="36.1" height="1.1"/>
		<rect x="124.7" y="231.9" class="st9" width="36.1" height="1.1"/>
		<rect x="124.7" y="236.3" class="st9" width="36.1" height="1.1"/>
		<rect x="124.7" y="240.6" class="st9" width="36.1" height="1.2"/>
		<rect x="124.7" y="245" class="st9" width="36.1" height="1.2"/>
		<rect x="124.7" y="249.4" class="st9" width="36.1" height="1.2"/>
		<rect x="124.7" y="253.8" class="st9" width="36.1" height="1.2"/>
		<rect x="124.7" y="258.1" class="st9" width="36.1" height="1.2"/>
		<rect x="124.7" y="262.5" class="st9" width="36.1" height="1.2"/>
		<rect x="124.7" y="266.9" class="st9" width="36.1" height="1.2"/>
		<rect x="124.7" y="271.2" class="st9" width="36.1" height="1.2"/>
		<rect x="124.7" y="275.6" class="st9" width="36.1" height="1.2"/>
	</g>
	<g class="st11">
		<rect x="226.7" y="81.8" class="st9" width="40.2" height="3.4"/>
		<rect x="226.7" y="87.5" class="st9" width="40.2" height="3.4"/>
		<rect x="226.7" y="93.3" class="st9" width="40.2" height="3.5"/>
		<rect x="226.7" y="99" class="st9" width="40.2" height="3.5"/>
		<rect x="226.7" y="104.7" class="st9" width="40.2" height="3.6"/>
		<rect x="226.7" y="110.4" class="st9" width="40.2" height="3.6"/>
		<rect x="226.7" y="116.1" class="st9" width="40.2" height="3.6"/>
		<rect x="226.7" y="121.9" class="st9" width="40.2" height="3.7"/>
		<rect x="226.7" y="127.6" class="st9" width="40.2" height="3.7"/>
		<rect x="226.7" y="133.3" class="st9" width="40.2" height="3.8"/>
		<rect x="226.7" y="139" class="st9" width="40.2" height="3.8"/>
		<rect x="226.7" y="144.7" class="st9" width="40.2" height="3.9"/>
		<rect x="226.7" y="150.5" class="st9" width="40.2" height="3.9"/>
		<rect x="226.7" y="156.2" class="st9" width="40.2" height="4"/>
		<rect x="226.7" y="161.9" class="st9" width="40.2" height="4"/>
		<rect x="226.7" y="167.6" class="st9" width="40.2" height="4"/>
		<rect x="226.7" y="173.3" class="st9" width="40.2" height="4.1"/>
		<rect x="226.7" y="179.1" class="st9" width="40.2" height="4.1"/>
		<rect x="226.7" y="184.8" class="st9" width="40.2" height="4.2"/>
		<rect x="226.7" y="190.5" class="st9" width="40.2" height="4.2"/>
		<rect x="226.7" y="196.2" class="st9" width="40.2" height="4.3"/>
		<rect x="226.7" y="202" class="st9" width="40.2" height="4.3"/>
		<rect x="226.7" y="207.7" class="st9" width="40.2" height="4.3"/>
		<rect x="226.7" y="213.4" class="st9" width="40.2" height="4.4"/>
		<rect x="226.7" y="219.1" class="st9" width="40.2" height="4.4"/>
		<rect x="226.7" y="224.8" class="st9" width="40.2" height="4.5"/>
		<rect x="226.7" y="230.6" class="st9" width="40.2" height="4.5"/>
		<rect x="226.7" y="236.3" class="st9" width="40.2" height="4.6"/>
		<rect x="226.7" y="242" class="st9" width="40.2" height="4.6"/>
		<rect x="226.7" y="247.7" class="st9" width="40.2" height="4.6"/>
		<rect x="226.7" y="253.4" class="st9" width="40.2" height="4.7"/>
		<rect x="226.7" y="259.2" class="st9" width="40.2" height="4.7"/>
		<rect x="226.7" y="264.9" class="st9" width="40.2" height="4.8"/>
		<rect x="226.7" y="270.6" class="st9" width="40.2" height="4.8"/>
	</g>
	<g class="st12">
		<rect x="335.1" y="166.8" class="st9" width="27.7" height="0.7"/>
		<rect x="335.1" y="170.1" class="st9" width="27.7" height="0.7"/>
		<rect x="335.1" y="173.5" class="st9" width="27.7" height="0.7"/>
		<rect x="335.1" y="176.8" class="st9" width="27.7" height="0.7"/>
		<rect x="335.1" y="180.1" class="st9" width="27.7" height="0.7"/>
		<rect x="335.1" y="183.4" class="st9" width="27.7" height="0.7"/>
		<rect x="335.1" y="186.7" class="st9" width="27.7" height="0.7"/>
		<rect x="335.1" y="190" class="st9" width="27.7" height="0.7"/>
		<rect x="335.1" y="193.3" class="st9" width="27.7" height="0.7"/>
		<rect x="335.1" y="196.6" class="st9" width="27.7" height="0.7"/>
		<rect x="335.1" y="199.9" class="st9" width="27.7" height="0.7"/>
		<rect x="335.1" y="203.2" class="st9" width="27.7" height="0.8"/>
		<rect x="335.1" y="206.6" class="st9" width="27.7" height="0.8"/>
		<rect x="335.1" y="209.9" class="st9" width="27.7" height="0.8"/>
		<rect x="335.1" y="213.2" class="st9" width="27.7" height="0.8"/>
		<rect x="335.1" y="216.5" class="st9" width="27.7" height="0.8"/>
		<rect x="335.1" y="219.8" class="st9" width="27.7" height="0.8"/>
		<rect x="335.1" y="223.1" class="st9" width="27.7" height="0.8"/>
		<rect x="335.1" y="226.4" class="st9" width="27.7" height="0.8"/>
		<rect x="335.1" y="229.7" class="st9" width="27.7" height="0.8"/>
		<rect x="335.1" y="233" class="st9" width="27.7" height="0.8"/>
		<rect x="335.1" y="236.3" class="st9" width="27.7" height="0.8"/>
		<rect x="335.1" y="239.7" class="st9" width="27.7" height="0.8"/>
		<rect x="335.1" y="243" class="st9" width="27.7" height="0.9"/>
		<rect x="335.1" y="246.3" class="st9" width="27.7" height="0.9"/>
		<rect x="335.1" y="249.6" class="st9" width="27.7" height="0.9"/>
		<rect x="335.1" y="252.9" class="st9" width="27.7" height="0.9"/>
		<rect x="335.1" y="256.2" class="st9" width="27.7" height="0.9"/>
		<rect x="335.1" y="259.5" class="st9" width="27.7" height="0.9"/>
		<rect x="335.1" y="262.8" class="st9" width="27.7" height="0.9"/>
		<rect x="335.1" y="266.1" class="st9" width="27.7" height="0.9"/>
		<rect x="335.1" y="269.4" class="st9" width="27.7" height="0.9"/>
		<rect x="335.1" y="272.8" class="st9" width="27.7" height="0.9"/>
		<rect x="335.1" y="276.1" class="st9" width="27.7" height="0.9"/>
	</g>
	<g class="st7">
		<g>
			<rect x="168.5" y="108.3" class="st9" width="5.7" height="9.8"/>
			<rect x="175.7" y="108.3" class="st9" width="5.6" height="9.8"/>
			<rect x="183" y="108.3" class="st9" width="5.6" height="9.8"/>
			<rect x="190.3" y="108.3" class="st9" width="5.6" height="9.8"/>
			<rect x="197.5" y="108.3" class="st9" width="5.6" height="9.8"/>
			<rect x="204.7" y="108.3" class="st9" width="5.6" height="9.8"/>
		</g>
		<g>
			<rect x="168.5" y="119.4" class="st9" width="5.7" height="9.8"/>
			<rect x="175.7" y="119.4" class="st9" width="5.6" height="9.8"/>
			<rect x="183" y="119.4" class="st9" width="5.6" height="9.8"/>
			<rect x="190.3" y="119.4" class="st9" width="5.6" height="9.8"/>
			<rect x="197.5" y="119.4" class="st9" width="5.6" height="9.8"/>
			<rect x="204.7" y="119.4" class="st9" width="5.6" height="9.8"/>
		</g>
		<g>
			<rect x="168.5" y="130.5" class="st9" width="5.7" height="9.8"/>
			<rect x="175.7" y="130.5" class="st9" width="5.6" height="9.8"/>
			<rect x="183" y="130.5" class="st9" width="5.6" height="9.8"/>
			<rect x="190.3" y="130.5" class="st9" width="5.6" height="9.8"/>
			<rect x="197.5" y="130.5" class="st9" width="5.6" height="9.8"/>
			<rect x="204.7" y="130.5" class="st9" width="5.6" height="9.8"/>
		</g>
		<g>
			<rect x="168.5" y="141.6" class="st9" width="5.7" height="9.8"/>
			<rect x="175.7" y="141.6" class="st9" width="5.6" height="9.8"/>
			<rect x="183" y="141.6" class="st9" width="5.6" height="9.8"/>
			<rect x="190.3" y="141.6" class="st9" width="5.6" height="9.8"/>
			<rect x="197.5" y="141.6" class="st9" width="5.6" height="9.8"/>
			<rect x="204.7" y="141.6" class="st9" width="5.6" height="9.8"/>
		</g>
		<g>
			<rect x="168.5" y="152.7" class="st9" width="5.7" height="9.8"/>
			<rect x="175.7" y="152.7" class="st9" width="5.6" height="9.8"/>
			<rect x="183" y="152.7" class="st9" width="5.6" height="9.8"/>
			<rect x="190.3" y="152.7" class="st9" width="5.6" height="9.8"/>
			<rect x="197.5" y="152.7" class="st9" width="5.6" height="9.8"/>
			<rect x="204.7" y="152.7" class="st9" width="5.6" height="9.8"/>
		</g>
		<g>
			<rect x="168.5" y="163.8" class="st9" width="5.7" height="9.8"/>
			<rect x="175.7" y="163.8" class="st9" width="5.6" height="9.8"/>
			<rect x="183" y="163.8" class="st9" width="5.6" height="9.8"/>
			<rect x="190.3" y="163.8" class="st9" width="5.6" height="9.8"/>
			<rect x="197.5" y="163.8" class="st9" width="5.6" height="9.8"/>
			<rect x="204.7" y="163.8" class="st9" width="5.6" height="9.8"/>
		</g>
		<g>
			<rect x="168.5" y="174.9" class="st9" width="5.7" height="9.8"/>
			<rect x="175.7" y="174.9" class="st9" width="5.6" height="9.8"/>
			<rect x="183" y="174.9" class="st9" width="5.6" height="9.8"/>
			<rect x="190.3" y="174.9" class="st9" width="5.6" height="9.8"/>
			<rect x="197.5" y="174.9" class="st9" width="5.6" height="9.8"/>
			<rect x="204.7" y="174.9" class="st9" width="5.6" height="9.8"/>
		</g>
		<g>
			<rect x="168.5" y="186" class="st9" width="5.7" height="9.8"/>
			<rect x="175.7" y="186" class="st9" width="5.6" height="9.8"/>
			<rect x="183" y="186" class="st9" width="5.6" height="9.8"/>
			<rect x="190.3" y="186" class="st9" width="5.6" height="9.8"/>
			<rect x="197.5" y="186" class="st9" width="5.6" height="9.8"/>
			<rect x="204.7" y="186" class="st9" width="5.6" height="9.8"/>
		</g>
		<g>
			<rect x="168.5" y="197.1" class="st9" width="5.7" height="9.8"/>
			<rect x="175.7" y="197.1" class="st9" width="5.6" height="9.8"/>
			<rect x="183" y="197.1" class="st9" width="5.6" height="9.8"/>
			<rect x="190.3" y="197.1" class="st9" width="5.6" height="9.8"/>
			<rect x="197.5" y="197.1" class="st9" width="5.6" height="9.8"/>
			<rect x="204.7" y="197.1" class="st9" width="5.6" height="9.8"/>
		</g>
		<g>
			<rect x="168.5" y="208.2" class="st9" width="5.7" height="9.8"/>
			<rect x="175.7" y="208.2" class="st9" width="5.6" height="9.8"/>
			<rect x="183" y="208.2" class="st9" width="5.6" height="9.8"/>
			<rect x="190.3" y="208.2" class="st9" width="5.6" height="9.8"/>
			<rect x="197.5" y="208.2" class="st9" width="5.6" height="9.8"/>
			<rect x="204.7" y="208.2" class="st9" width="5.6" height="9.8"/>
		</g>
		<g>
			<rect x="168.5" y="219.4" class="st9" width="5.7" height="9.8"/>
			<rect x="175.7" y="219.4" class="st9" width="5.6" height="9.8"/>
			<rect x="183" y="219.4" class="st9" width="5.6" height="9.8"/>
			<rect x="190.3" y="219.4" class="st9" width="5.6" height="9.8"/>
			<rect x="197.5" y="219.4" class="st9" width="5.6" height="9.8"/>
			<rect x="204.7" y="219.4" class="st9" width="5.6" height="9.8"/>
		</g>
		<g>
			<rect x="168.5" y="230.5" class="st9" width="5.7" height="9.8"/>
			<rect x="175.7" y="230.5" class="st9" width="5.6" height="9.8"/>
			<rect x="183" y="230.5" class="st9" width="5.6" height="9.8"/>
			<rect x="190.3" y="230.5" class="st9" width="5.6" height="9.8"/>
			<rect x="197.5" y="230.5" class="st9" width="5.6" height="9.8"/>
			<rect x="204.7" y="230.5" class="st9" width="5.6" height="9.8"/>
		</g>
		<g>
			<rect x="168.5" y="241.6" class="st9" width="5.7" height="9.8"/>
			<rect x="175.7" y="241.6" class="st9" width="5.6" height="9.8"/>
			<rect x="183" y="241.6" class="st9" width="5.6" height="9.8"/>
			<rect x="190.3" y="241.6" class="st9" width="5.6" height="9.8"/>
			<rect x="197.5" y="241.6" class="st9" width="5.6" height="9.8"/>
			<rect x="204.7" y="241.6" class="st9" width="5.6" height="9.8"/>
		</g>
		<g>
			<rect x="168.5" y="252.7" class="st9" width="5.7" height="9.8"/>
			<rect x="175.7" y="252.7" class="st9" width="5.6" height="9.8"/>
			<rect x="183" y="252.7" class="st9" width="5.6" height="9.8"/>
			<rect x="190.3" y="252.7" class="st9" width="5.6" height="9.8"/>
			<rect x="197.5" y="252.7" class="st9" width="5.6" height="9.8"/>
			<rect x="204.7" y="252.7" class="st9" width="5.6" height="9.8"/>
		</g>
		<g>
			<rect x="168.5" y="263.8" class="st9" width="5.7" height="9.8"/>
			<rect x="175.7" y="263.8" class="st9" width="5.6" height="9.8"/>
			<rect x="183" y="263.8" class="st9" width="5.6" height="9.8"/>
			<rect x="190.3" y="263.8" class="st9" width="5.6" height="9.8"/>
			<rect x="197.5" y="263.8" class="st9" width="5.6" height="9.8"/>
			<rect x="204.7" y="263.8" class="st9" width="5.6" height="9.8"/>
		</g>
	</g>
	<g class="st7">
		<g>
			<rect x="289" y="137.9" class="st9" width="4.4" height="8"/>
			<rect x="294.6" y="137.9" class="st9" width="4.3" height="8"/>
			<rect x="302.3" y="137.9" class="st9" width="4.3" height="8"/>
			<rect x="307.9" y="137.9" class="st9" width="4.3" height="8"/>
			<rect x="315.6" y="137.9" class="st9" width="4.3" height="8"/>
			<rect x="321.1" y="137.9" class="st9" width="4.3" height="8"/>
		</g>
		<g>
			<rect x="289" y="147" class="st9" width="4.4" height="8"/>
			<rect x="294.6" y="147" class="st9" width="4.3" height="8"/>
			<rect x="302.3" y="147" class="st9" width="4.3" height="8"/>
			<rect x="307.9" y="147" class="st9" width="4.3" height="8"/>
			<rect x="315.6" y="147" class="st9" width="4.3" height="8"/>
			<rect x="321.1" y="147" class="st9" width="4.3" height="8"/>
		</g>
		<g>
			<rect x="289" y="156.1" class="st9" width="4.4" height="8"/>
			<rect x="294.6" y="156.1" class="st9" width="4.3" height="8"/>
			<rect x="302.3" y="156.1" class="st9" width="4.3" height="8"/>
			<rect x="307.9" y="156.1" class="st9" width="4.3" height="8"/>
			<rect x="315.6" y="156.1" class="st9" width="4.3" height="8"/>
			<rect x="321.1" y="156.1" class="st9" width="4.3" height="8"/>
		</g>
		<g>
			<rect x="289" y="165.3" class="st9" width="4.4" height="8"/>
			<rect x="294.6" y="165.3" class="st9" width="4.3" height="8"/>
			<rect x="302.3" y="165.3" class="st9" width="4.3" height="8"/>
			<rect x="307.9" y="165.3" class="st9" width="4.3" height="8"/>
			<rect x="315.6" y="165.3" class="st9" width="4.3" height="8"/>
			<rect x="321.1" y="165.3" class="st9" width="4.3" height="8"/>
		</g>
		<g>
			<rect x="289" y="174.4" class="st9" width="4.4" height="8"/>
			<rect x="294.6" y="174.4" class="st9" width="4.3" height="8"/>
			<rect x="302.3" y="174.4" class="st9" width="4.3" height="8"/>
			<rect x="307.9" y="174.4" class="st9" width="4.3" height="8"/>
			<rect x="315.6" y="174.4" class="st9" width="4.3" height="8"/>
			<rect x="321.1" y="174.4" class="st9" width="4.3" height="8"/>
		</g>
		<g>
			<rect x="289" y="183.5" class="st9" width="4.4" height="8"/>
			<rect x="294.6" y="183.5" class="st9" width="4.3" height="8"/>
			<rect x="302.3" y="183.5" class="st9" width="4.3" height="8"/>
			<rect x="307.9" y="183.5" class="st9" width="4.3" height="8"/>
			<rect x="315.6" y="183.5" class="st9" width="4.3" height="8"/>
			<rect x="321.1" y="183.5" class="st9" width="4.3" height="8"/>
		</g>
		<g>
			<rect x="289" y="192.6" class="st9" width="4.4" height="8"/>
			<rect x="294.6" y="192.6" class="st9" width="4.3" height="8"/>
			<rect x="302.3" y="192.6" class="st9" width="4.3" height="8"/>
			<rect x="307.9" y="192.6" class="st9" width="4.3" height="8"/>
			<rect x="315.6" y="192.6" class="st9" width="4.3" height="8"/>
			<rect x="321.1" y="192.6" class="st9" width="4.3" height="8"/>
		</g>
		<g>
			<rect x="289" y="201.7" class="st9" width="4.4" height="8"/>
			<rect x="294.6" y="201.7" class="st9" width="4.3" height="8"/>
			<rect x="302.3" y="201.7" class="st9" width="4.3" height="8"/>
			<rect x="307.9" y="201.7" class="st9" width="4.3" height="8"/>
			<rect x="315.6" y="201.7" class="st9" width="4.3" height="8"/>
			<rect x="321.1" y="201.7" class="st9" width="4.3" height="8"/>
		</g>
		<g>
			<rect x="289" y="210.8" class="st9" width="4.4" height="8"/>
			<rect x="294.6" y="210.8" class="st9" width="4.3" height="8"/>
			<rect x="302.3" y="210.8" class="st9" width="4.3" height="8"/>
			<rect x="307.9" y="210.8" class="st9" width="4.3" height="8"/>
			<rect x="315.6" y="210.8" class="st9" width="4.3" height="8"/>
			<rect x="321.1" y="210.8" class="st9" width="4.3" height="8"/>
		</g>
		<g>
			<rect x="289" y="219.9" class="st9" width="4.4" height="8"/>
			<rect x="294.6" y="219.9" class="st9" width="4.3" height="8"/>
			<rect x="302.3" y="219.9" class="st9" width="4.3" height="8"/>
			<rect x="307.9" y="219.9" class="st9" width="4.3" height="8"/>
			<rect x="315.6" y="219.9" class="st9" width="4.3" height="8"/>
			<rect x="321.1" y="219.9" class="st9" width="4.3" height="8"/>
		</g>
		<g>
			<rect x="289" y="229.1" class="st9" width="4.4" height="8"/>
			<rect x="294.6" y="229.1" class="st9" width="4.3" height="8"/>
			<rect x="302.3" y="229.1" class="st9" width="4.3" height="8"/>
			<rect x="307.9" y="229.1" class="st9" width="4.3" height="8"/>
			<rect x="315.6" y="229.1" class="st9" width="4.3" height="8"/>
			<rect x="321.1" y="229.1" class="st9" width="4.3" height="8"/>
		</g>
		<g>
			<rect x="289" y="238.2" class="st9" width="4.4" height="8"/>
			<rect x="294.6" y="238.2" class="st9" width="4.3" height="8"/>
			<rect x="302.3" y="238.2" class="st9" width="4.3" height="8"/>
			<rect x="307.9" y="238.2" class="st9" width="4.3" height="8"/>
			<rect x="315.6" y="238.2" class="st9" width="4.3" height="8"/>
			<rect x="321.1" y="238.2" class="st9" width="4.3" height="8"/>
		</g>
		<g>
			<rect x="289" y="247.3" class="st9" width="4.4" height="8"/>
			<rect x="294.6" y="247.3" class="st9" width="4.3" height="8"/>
			<rect x="302.3" y="247.3" class="st9" width="4.3" height="8"/>
			<rect x="307.9" y="247.3" class="st9" width="4.3" height="8"/>
			<rect x="315.6" y="247.3" class="st9" width="4.3" height="8"/>
			<rect x="321.1" y="247.3" class="st9" width="4.3" height="8"/>
		</g>
		<g>
			<rect x="289" y="256.4" class="st9" width="4.4" height="8"/>
			<rect x="294.6" y="256.4" class="st9" width="4.3" height="8"/>
			<rect x="302.3" y="256.4" class="st9" width="4.3" height="8"/>
			<rect x="307.9" y="256.4" class="st9" width="4.3" height="8"/>
			<rect x="315.6" y="256.4" class="st9" width="4.3" height="8"/>
			<rect x="321.1" y="256.4" class="st9" width="4.3" height="8"/>
		</g>
		<g>
			<rect x="289" y="265.5" class="st9" width="4.4" height="8"/>
			<rect x="294.6" y="265.5" class="st9" width="4.3" height="8"/>
			<rect x="302.3" y="265.5" class="st9" width="4.3" height="8"/>
			<rect x="307.9" y="265.5" class="st9" width="4.3" height="8"/>
			<rect x="315.6" y="265.5" class="st9" width="4.3" height="8"/>
			<rect x="321.1" y="265.5" class="st9" width="4.3" height="8"/>
		</g>
	</g>
</g>
<g id="cars">
	<path class="st13" d="M29.1,277.3l7.7-1.5c0.7-0.1,1.3-0.6,1.7-1.3l2-3.8c0.4-0.8,1.2-1.3,2.1-1.3h12.7c1.1,0,2.1,0.8,2.3,1.9
		l0.7,2.9c0.2,0.9,0.9,1.6,1.7,1.8l2.7,0.7c1,0.3,1.8,1.2,1.8,2.3v3.3c0,1.3-1.1,2.4-2.4,2.4h-2.2c0,0,0,0,0,0.1
		c0,1.5-1.3,2.8-2.8,2.8s-2.8-1.3-2.8-2.8c0,0,0,0,0-0.1H36.7c0,0,0,0,0,0.1c0,1.5-1.3,2.8-2.8,2.8s-2.8-1.3-2.8-2.8c0,0,0,0,0-0.1
		h-1.6c-1.3,0-2.4-1.1-2.4-2.4v-2.8C27.2,278.5,28,277.5,29.1,277.3z M49.2,275.3c0,0.6,0.5,1.1,1.1,1.1H55c0.7,0,1.2-0.6,1.1-1.3
		l-0.7-3.5c-0.1-0.5-0.5-0.9-1.1-0.9h-4c-0.6,0-1.1,0.5-1.1,1.1V275.3z M41,276.4h5.9c0.6,0,1.2-0.5,1.2-1.2v-3.4
		c0-0.6-0.5-1.2-1.2-1.2h-4.2c-0.4,0-0.9,0.3-1,0.7l-1.6,3.4C39.6,275.5,40.2,276.4,41,276.4z"/>
	<path class="st14" d="M200.9,273.5l-12.3-2.3c-1.2-0.2-2.1-1-2.7-2l-3.2-6c-0.7-1.3-2-2.1-3.4-2.1h-20.2c-1.8,0-3.3,1.2-3.7,3
		l-1.1,4.7c-0.3,1.4-1.4,2.5-2.7,2.8l-4.2,1.2c-1.7,0.5-2.8,2-2.8,3.7v5.3c0,2.1,1.7,3.8,3.8,3.8h3.6v0.1c0,2.5,2,4.5,4.5,4.5
		s4.5-2,4.5-4.5v-0.1h28v0.1c0,2.5,2,4.5,4.5,4.5s4.5-2,4.5-4.5v-0.1h2.5c2.1,0,3.8-1.7,3.8-3.8v-4.4
		C204.1,275.5,202.7,273.9,200.9,273.5z M169.1,270.4c0,1-0.8,1.7-1.7,1.7h-7.5c-1.1,0-1.9-1-1.7-2.1l1.1-5.6
		c0.2-0.8,0.9-1.4,1.7-1.4h6.4c1,0,1.7,0.8,1.7,1.7V270.4z M182,272.1h-9.3c-1,0-1.8-0.8-1.8-1.8v-5.4c0-1,0.8-1.8,1.8-1.8h6.8
		c0.7,0,1.4,0.4,1.7,1.1l2.6,5.4C184.3,270.7,183.4,272.1,182,272.1z"/>
	<path class="st15" d="M200.9,273.5l-12.3-2.3c-1.2-0.2-2.1-1-2.7-2l-3.2-6c-0.7-1.3-2-2.1-3.4-2.1h-20.2c-1.8,0-3.3,1.2-3.7,3
		l-1.1,4.7c-0.3,1.4-1.4,2.5-2.7,2.8l-4.2,1.2c-1.7,0.5-2.8,2-2.8,3.7v5.3c0,2.1,1.7,3.8,3.8,3.8h3.6v0.1c0,2.5,2,4.5,4.5,4.5
		s4.5-2,4.5-4.5v-0.1h28v0.1c0,2.5,2,4.5,4.5,4.5s4.5-2,4.5-4.5v-0.1h2.5c2.1,0,3.8-1.7,3.8-3.8v-4.4
		C204.1,275.5,202.7,273.9,200.9,273.5z M169.1,270.4c0,1-0.8,1.7-1.7,1.7h-7.5c-1.1,0-1.9-1-1.7-2.1l1.1-5.6
		c0.2-0.8,0.9-1.4,1.7-1.4h6.4c1,0,1.7,0.8,1.7,1.7V270.4z M182,272.1h-9.3c-1,0-1.8-0.8-1.8-1.8v-5.4c0-1,0.8-1.8,1.8-1.8h6.8
		c0.7,0,1.4,0.4,1.7,1.1l2.6,5.4C184.3,270.7,183.4,272.1,182,272.1z"/>
	<path class="st16" d="M200.9,273.5l-12.3-2.3c-1.2-0.2-2.1-1-2.7-2l-3.2-6c-0.7-1.3-2-2.1-3.4-2.1h-20.2c-1.8,0-3.3,1.2-3.7,3
		l-1.1,4.7c-0.3,1.4-1.4,2.5-2.7,2.8l-4.2,1.2c-1.7,0.5-2.8,2-2.8,3.7v5.3c0,2.1,1.7,3.8,3.8,3.8h3.6v0.1c0,2.5,2,4.5,4.5,4.5
		s4.5-2,4.5-4.5v-0.1h28v0.1c0,2.5,2,4.5,4.5,4.5s4.5-2,4.5-4.5v-0.1h2.5c2.1,0,3.8-1.7,3.8-3.8v-4.4
		C204.1,275.5,202.7,273.9,200.9,273.5z M169.1,270.4c0,1-0.8,1.7-1.7,1.7h-7.5c-1.1,0-1.9-1-1.7-2.1l1.1-5.6
		c0.2-0.8,0.9-1.4,1.7-1.4h6.4c1,0,1.7,0.8,1.7,1.7V270.4z M182,272.1h-9.3c-1,0-1.8-0.8-1.8-1.8v-5.4c0-1,0.8-1.8,1.8-1.8h6.8
		c0.7,0,1.4,0.4,1.7,1.1l2.6,5.4C184.3,270.7,183.4,272.1,182,272.1z"/>
	<path class="st17" d="M147.4,275.3l-8.1-28.5c-0.4-1.6-1.8-2.7-3.4-2.7H55.6c-1.9,0-3.5,1.6-3.5,3.5v38.2c0,1.9,1.6,3.5,3.5,3.5
		h6.7l0,0c0,3.6,2.9,6.6,6.6,6.6s6.6-2.9,6.6-6.6l0,0H126l0,0c0,3.6,2.9,6.6,6.6,6.6c3.6,0,6.6-2.9,6.6-6.6l0,0h4.9
		c1.9,0,3.5-1.6,3.5-3.5v-9.7C147.5,275.9,147.4,275.6,147.4,275.3z M55.9,248.5h11.7v15.9H55.9V248.5z M81.6,264.4H69.9v-15.9h11.7
		V264.4z M95.6,264.4H83.9v-15.9h11.7V264.4z M109.5,264.4H97.8v-15.9h11.7V264.4z M123.5,264.4h-11.7v-15.9h11.7V264.4z
		 M125.7,264.4v-15.9h11.7l4.7,15.9H125.7z"/>
	<path class="st13" d="M351,277.3l-6.7-23.6c-0.3-1.3-1.5-2.2-2.8-2.2h-66.6c-1.6,0-2.9,1.3-2.9,2.9v31.7c0,1.6,1.3,2.9,2.9,2.9h5.5
		l0,0c0,3,2.4,5.5,5.5,5.5s5.5-2.4,5.5-5.5l0,0h41.9l0,0c0,3,2.4,5.5,5.5,5.5c3,0,5.5-2.4,5.5-5.5l0,0h4.1c1.6,0,2.9-1.3,2.9-2.9v-8
		C351.1,277.8,351,277.6,351,277.3z M333,268.3v-13.2h9.7l3.9,13.2H333z"/>
	<path class="st17" d="M430.3,279.6l-14.5-2.7c-1.4-0.3-2.5-1.1-3.2-2.3l-3.7-7.1c-0.8-1.5-2.3-2.4-4-2.4h-23.8
		c-2.1,0-3.9,1.5-4.4,3.5l-1.3,5.5c-0.4,1.6-1.6,2.9-3.2,3.3l-5,1.4c-2,0.5-3.3,2.3-3.3,4.3v6.2c0,2.5,2,4.5,4.5,4.5h4.2v0.1
		c0,2.9,2.3,5.2,5.2,5.2s5.2-2.3,5.2-5.2v-0.1h33v0.1c0,2.9,2.3,5.2,5.2,5.2s5.2-2.3,5.2-5.2v-0.1h2.9c2.5,0,4.5-2,4.5-4.5v-5.2
		C433.9,281.9,432.4,280,430.3,279.6z M392.8,275.9c0,1.1-0.9,2-2,2H382c-1.3,0-2.2-1.2-2-2.4l1.3-6.6c0.2-1,1-1.7,2-1.7h7.5
		c1.1,0,2,0.9,2,2V275.9z M408,278h-11c-1.2,0-2.2-1-2.2-2.2v-6.4c0-1.2,1-2.2,2.2-2.2h8c0.8,0,1.6,0.5,2,1.2l3,6.4
		C410.7,276.3,409.6,278,408,278z"/>
	<path class="st13" d="M211.5,277.3l7.7-1.5c0.7-0.1,1.3-0.6,1.7-1.3l2-3.8c0.4-0.8,1.2-1.3,2.1-1.3h12.7c1.1,0,2.1,0.8,2.3,1.9
		l0.7,2.9c0.2,0.9,0.9,1.6,1.7,1.8l2.7,0.7c1,0.3,1.8,1.2,1.8,2.3v3.3c0,1.3-1.1,2.4-2.4,2.4h-2.2c0,0,0,0,0,0.1
		c0,1.5-1.3,2.8-2.8,2.8s-2.8-1.3-2.8-2.8c0,0,0,0,0-0.1h-17.6c0,0,0,0,0,0.1c0,1.5-1.3,2.8-2.8,2.8s-2.8-1.3-2.8-2.8c0,0,0,0,0-0.1
		H212c-1.3,0-2.4-1.1-2.4-2.4v-2.8C209.5,278.5,210.4,277.5,211.5,277.3z M231.5,275.3c0,0.6,0.5,1.1,1.1,1.1h4.7
		c0.7,0,1.2-0.6,1.1-1.3l-0.7-3.5c-0.1-0.5-0.5-0.9-1.1-0.9h-4c-0.6,0-1.1,0.5-1.1,1.1V275.3z M223.4,276.4h5.9
		c0.6,0,1.2-0.5,1.2-1.2v-3.4c0-0.6-0.5-1.2-1.2-1.2H225c-0.4,0-0.9,0.3-1,0.7l-1.6,3.4C222,275.5,222.5,276.4,223.4,276.4z"/>
</g>
<g id="courier">
	<path class="st18" d="M109.5,313.2c11.6-0.1,83.6-0.4,92.3-0.5c8.7-0.1,1.3,3.3,17.6,3.1c16.3-0.2,64.3,0.4,72.3,0.3
		c11.2-0.1,20.2-0.2,34.1-0.4c44.2-0.5,43.1-6.9-1.1-6.4c-25,0.3-54.1-0.1-65.7,0s-49.3-0.2-63.1,0c-13.8,0.2-74.8,0-86.4,0.2
		C97.9,309.7,95.7,313.4,109.5,313.2z"/>
	<path class="st19" d="M186.2,308.8c1,1.8,4.6,5.3,5.9,6.6c1.3,1.4,1.8,2.1-2,2.3s-11.7,0.6-11.7,0.6s4.2-7.2,5.1-8.4
		C184.3,308.7,185.7,307.9,186.2,308.8z"/>
	<path class="st19" d="M111.9,302.2c0.9,1.8,4.2,5.6,5.4,7s1.7,2.2-2.2,2.1s-11.8-0.1-11.8-0.1s4.7-6.9,5.6-8.1
		C110,302,111.5,301.3,111.9,302.2z"/>
	<g>
		<path class="st20" d="M117.8,273.1c-3.6,3.4-13.4,7.2-13.4,7.2l5.6,12.4c0,0,12.9-7.7,17-11.2L117.8,273.1z"/>
		<path class="st21" d="M113.7,274.2c1.2,2-2.8,4.2-2.2,6.8c0.6,2.6,0.3,5.1,1.9,6.3c1.6,1.3,4.4,1.4,3.2,2.7
			c-1.5,1.6-2.3,2.4-3.5,4c-1.3,1.6-4.4,4.3-5.6,5.9c-1,1.3-1.6,6.1-0.3,7.1s0.1,4.2-0.3,5.6c-0.5,1.5-2.4,0.5-4.2-1.1
			c-1.8-1.6-1.9-1.6-4.3-4.1c-2.4-2.4-2.5-3-2.1-7.2c0.5-4.5,3.2-11.2,2.7-14.6s0.6-8.6,1.3-10.7c0.7-2.2,2.6-2,4.7-2.2
			C107.1,272.4,113.3,273.5,113.7,274.2z"/>
		<path class="st22" d="M199,238.4c7-5.8,28.1-30.5,32.1-36.6c4.1-6,5.6-12.5-1.5-20.1s-14.8-10.1-18.3-7.8
			c-3.6,2.3-18.7,24.8-24.1,39.5c-1.7,4.6-5.5,11.2-10.1,15.1c-6.5,5.3-14.6,7.5-20.6,11.7c-8.3,5.7-23.5,22.9-28.3,25.9
			c-4.2,2.6-3.6,2-9.3,6.3c-0.2,0.2-0.8,0.6-1,0.8l9.2,9.3c1.3-1,3.1-2.4,4.2-3.1c4.5-3.2,22.4-14.5,28.3-17.8s13.5-7.2,17.4-8.7
			c4.4-1.7,7.8-2.1,11.9-5.5C194,242.9,194.8,241.9,199,238.4z"/>
	</g>
	<g>
		<path class="st20" d="M229.8,263.2c-1.6-3.3-3.1-6.7-4.3-10.2c-2.7,0.3-4.5,1.2-6.9,0.3c0.8,4.6,1.3,9.2,1.8,13.9
			C223.8,267.1,226.6,264.6,229.8,263.2z"/>
		<path class="st21" d="M221.5,255.7c-0.6,1.6-1.1,2.9-1.1,4.9s0.4,4.4,1.9,5.8s2.9-1.5,3.3,1.5s-1.2,6.1-3.3,9.1
			s-3.4,10.6-3.6,13.6s2.5,4.3,0.5,5.9c-1.9,1.6-3.3,1.6-5.6-1.3c-2.2-2.9-4.3-9.8-4.5-14.2c-0.2-4.5,0.3-11,0.9-15
			s-0.6-5.9-0.8-8.8c-0.3-2.9-0.3-2.9,1.9-4c2.2-1.1,5.9-0.1,8.3,0C221.8,253.3,222.1,253.9,221.5,255.7z"/>
		<g>
			<path class="st23" d="M284.5,217.1c-3.8-4.8-7.8-10.4-14.8-14.9S251.9,190,245,183.9c1.5-2.1,1.2-5.5,3-7.4
				c-6.7-4.6-11-7.4-17.7-12.1c-7,3.2-15,4-20.5,9.9s-8.1,10.5-4,18.9c4.2,8.3,14.8,13.3,23.4,17.1c8.6,3.7,19,7.7,26.1,10.4
				c8.3,3.2,7,1.9,12,5c-5.6,2-7.2,1-14.3,6.2c-7.1,5.2-8.1,7.4-16.5,14.2c-2.2,1.8-9.8,5.3-11.6,6.6c1.7,3.7,2.1,7.9,5.1,10.9
				c8.9-5,31.6-13.8,37.7-17.6c9-5.7,10.3-5.8,15.8-9.1c5.5-3.3,5.9-3.6,6.3-8.9C290.2,222.6,288.3,221.9,284.5,217.1z"/>
		</g>
	</g>
	<g>
		<path class="st24" d="M373.2,114.5c0.5-1.9-1.9-1.4-2.9-1.3c-3.4,0.2-9.2,2.4-9.8,3c-1,1.2-5,3.1-5.9,4.6c-0.5,3.1-2.9,9.4-2,11.9
			v0.1l-0.3,6.6c0,0,3.3-3.3,4.8-5c1.5-1.8,4.5,0,7.8-6.3c0.8-1.5,2.8-3.2,3.5-4.3c0.1-0.2-1.1-0.3-1-1.1c0.1-0.6,1.4-1.8,2.3-2.6
			c1.2-1.1-3.4-2.2-2.1-3C368.3,116.7,372.8,116.1,373.2,114.5z"/>
		<path class="st25" d="M355.7,122.7c0.6-0.9,11.3-16.7,11.8-17.4c0.1-0.2,0.4-0.5,1.3-0.5c2.1-0.1,5.9-0.2,6.5-0.2
			c0.9,0,0.9,0.8,0.4,1.6s-11.6,18.7-12,19.3c-0.4,0.6-0.6,0.8-1.6,0.5s-4.9-1.4-5.8-1.7C355.5,124,355.1,123.6,355.7,122.7z"/>
		<polygon class="st23" points="367,106.4 373.9,106.4 363.4,123.4 356.6,121.8 		"/>
		<path class="st20" d="M364.6,120c1.1-0.8,2.6-1.9,3.7-2.4c1.1-0.4,2.3,1.3,1.6,2.2c-0.7,0.9-3.3,2.1-4.3,2.6
			C364.5,122.8,363.5,120.8,364.6,120z"/>
		<path class="st20" d="M363.5,123.5c1.1-0.6,2.6-1.3,3.6-1.6c1-0.2,1.8,1.5,1.1,2.1c-0.8,0.7-3.2,1.4-4.2,1.6
			C363,125.9,362.4,124,363.5,123.5z"/>
		<g>
			<path class="st20" d="M346.4,138.2c1.6-2.6,2.8-4.4,3.6-7.5c0.8-3.1,3-8.1,4.3-10.7s2-2.5,3.7-4s2.7-3.7,3.5-5.2
				c0.9-1.5,1.1-1,1.6,0.3s-0.3,3.7-1,4.9c-0.7,1.2-1.1,1.5-2.2,2.7c-1,1.1-2.8,3.1-3.1,4.3c-0.2,0.8,0.2,3.3-0.1,5.4
				c-0.2,1.9-0.3,4.4-2.1,6.5s-1.8,1.7-3.2,3.3C350,140,348.4,138.5,346.4,138.2z"/>
		</g>
		<g>
			<g>
				<defs>
					<path id="SVGID_1_" d="M211.5,169.6c-0.3,0.5-0.1,0.8,0.4,0.9c1.5,0.4,4.1,0.8,5.6,1c2.8,0.4,5.9,0.4,8.2,1.1
						c2.4,0.7,3.3,1.6,5,3.1c5.6-0.4,10.5,6.3,15.4,6.8s2.3-6.4,5.8-6.8c3.5-0.3,10.9-6.8,13.1-8.6c2.2-1.9,8-5.2,11-5.4
						c3-0.2,11.2-7.5,11.2-7.5c1.4-0.6,23.6,13.2,33.7,17.3c4.8,2,6.3,2.2,8.9-0.9c6.8-7.8,16-17.7,19.9-22.8c2-2.6,0.6-2.4,1.8-4.4
						c0.5-0.8,1.9-3.7,3-4.9c-1.1-1.7-5.2-5.2-6.6-5.3c-1.4,1.3-2.8,3.9-4.5,5.6c-2.2,0-4,1.4-6,3.6c-5.4,6-12,15.4-13.7,15.8
						s-6-4.9-8.5-7c-4.1-3.4-14.3-11.4-14.8-16.6s-1.3-3.1-1.5-7.7s-0.9-4.7-4.1-8.4c-3.2-3.7-8.5-6.6-14.3-8.8
						c-9.5-3.6-8.5,0.3-15.3,3.7c-6.9,3.3-17.7,10.9-21.8,18.4c-5.1,9.4-14.2,16.7-18.7,22.4c-4.4,5.8-6.9,5.7-10.8,10.2
						c-1.8,2.1,0.3,0.9-0.8,2.7C212.4,168.1,211.9,168.8,211.5,169.6z"/>
				</defs>
				<clipPath id="SVGID_2_">
					<use xlink:href="#SVGID_1_"  style="overflow:visible;"/>
				</clipPath>
				<path class="st26" d="M211.5,169.6c-0.3,0.5-0.1,0.8,0.4,0.9c1.5,0.4,4.1,0.8,5.6,1c2.8,0.4,5.9,0.4,8.2,1.1
					c2.4,0.7,3.3,1.6,5,3.1c5.6-0.4,10.5,6.3,15.4,6.8s2.3-6.4,5.8-6.8c3.5-0.3,10.9-6.8,13.1-8.6c2.2-1.9,8-5.2,11-5.4
					c3-0.2,11.2-7.5,11.2-7.5c1.4-0.6,23.6,13.2,33.7,17.3c4.8,2,6.3,2.2,8.9-0.9c6.8-7.8,16-17.7,19.9-22.8c2-2.6,0.6-2.4,1.8-4.4
					c0.5-0.8,1.9-3.7,3-4.9c-1.1-1.7-5.2-5.2-6.6-5.3c-1.4,1.3-2.8,3.9-4.5,5.6c-2.2,0-4,1.4-6,3.6c-5.4,6-12,15.4-13.7,15.8
					s-6-4.9-8.5-7c-4.1-3.4-14.3-11.4-14.8-16.6s-1.3-3.1-1.5-7.7s-0.9-4.7-4.1-8.4c-3.2-3.7-8.5-6.6-14.3-8.8
					c-9.5-3.6-8.5,0.3-15.3,3.7c-6.9,3.3-17.7,10.9-21.8,18.4c-5.1,9.4-14.2,16.7-18.7,22.4c-4.4,5.8-6.9,5.7-10.8,10.2
					c-1.8,2.1,0.3,0.9-0.8,2.7C212.4,168.1,211.9,168.8,211.5,169.6z"/>
			</g>
			<g>
				<defs>
					<path id="SVGID_3_" d="M211.5,169.6c-0.3,0.5-0.1,0.8,0.4,0.9c1.5,0.4,4.1,0.8,5.6,1c2.8,0.4,5.9,0.4,8.2,1.1
						c2.4,0.7,3.3,1.6,5,3.1c5.6-0.4,10.5,6.3,15.4,6.8s2.3-6.4,5.8-6.8c3.5-0.3,10.9-6.8,13.1-8.6c2.2-1.9,8-5.2,11-5.4
						c3-0.2,11.2-7.5,11.2-7.5c1.4-0.6,23.6,13.2,33.7,17.3c4.8,2,6.3,2.2,8.9-0.9c6.8-7.8,16-17.7,19.9-22.8c2-2.6,0.6-2.4,1.8-4.4
						c0.5-0.8,1.9-3.7,3-4.9c-1.1-1.7-5.2-5.2-6.6-5.3c-1.4,1.3-2.8,3.9-4.5,5.6c-2.2,0-4,1.4-6,3.6c-5.4,6-12,15.4-13.7,15.8
						s-6-4.9-8.5-7c-4.1-3.4-14.3-11.4-14.8-16.6s-1.3-3.1-1.5-7.7s-0.9-4.7-4.1-8.4c-3.2-3.7-8.5-6.6-14.3-8.8
						c-9.5-3.6-8.5,0.3-15.3,3.7c-6.9,3.3-17.7,10.9-21.8,18.4c-5.1,9.4-14.2,16.7-18.7,22.4c-4.4,5.8-6.9,5.7-10.8,10.2
						c-1.8,2.1,0.3,0.9-0.8,2.7C212.4,168.1,211.9,168.8,211.5,169.6z"/>
				</defs>
				<clipPath id="SVGID_4_">
					<use xlink:href="#SVGID_3_"  style="overflow:visible;"/>
				</clipPath>
				
					<linearGradient id="SVGID_5_" gradientUnits="userSpaceOnUse" x1="1023.9357" y1="-517.8839" x2="898.6024" y2="-519.8839" gradientTransform="matrix(-0.9708 0.24 0.24 0.9708 1347.082 436.7525)">
					<stop  offset="0" style="stop-color:#383340"/>
					<stop  offset="1" style="stop-color:#383340;stop-opacity:0"/>
				</linearGradient>
				<path class="st27" d="M358.5,140.3L348,131c0,0-48-1.7-48,3.1c0.1,4.8,0.6,5.3-3,10.2c-4.4,5.9-7.9,8.2-9.9,9.9
					c-5.1,4.5,18.2,24.1,18.2,24.1l21.2,3.4L358.5,140.3z"/>
			</g>
		</g>
		<path class="st14" d="M286.5,118.1c-1.8,3.5-1.1,13.6-4.4,19.5c-3.2,6-10.6,15.2-15.9,19.3s-14,11.5-9.2,9.4s23.2-18.4,28-22.1
			s6.2-8.5,9-13.1s0-12-2.1-14.2C289.9,114.7,288.6,114,286.5,118.1z"/>
	</g>
	<g>
		<g>
			<g>
				<defs>
					<path id="SVGID_6_" d="M288,117.3c0.8-0.7,7.4-7.2,7.4-7.2l8.3,10.5l-13.7,9c0,0-2.4-2.9-2.8-5.7S287.2,118.1,288,117.3z"/>
				</defs>
				<clipPath id="SVGID_7_">
					<use xlink:href="#SVGID_6_"  style="overflow:visible;"/>
				</clipPath>
				<path class="st28" d="M288,117.3c0.8-0.8,7.4-7.1,7.4-7.1l8.3,10.4l-13.7,9c0,0-2.4-2.9-2.8-5.7S287.2,118.1,288,117.3z"/>
			</g>
			<g>
				<defs>
					<path id="SVGID_8_" d="M288,117.3c0.8-0.7,7.4-7.2,7.4-7.2l8.3,10.5l-13.7,9c0,0-2.4-2.9-2.8-5.7S287.2,118.1,288,117.3z"/>
				</defs>
				<clipPath id="SVGID_9_">
					<use xlink:href="#SVGID_8_"  style="overflow:visible;"/>
				</clipPath>
				<path class="st29" d="M291.2,114.2c0.6-2.1,4.6-5.6,4.6-4.2s0.5,3.7,1.1,5.2s6.4,7.9,7.7,8.8c1.3,0.9,1.7,1.3,3.8,2.4
					c2.1,1.2,2,5.2,0.9,4.9c-1.1-0.3-5.8-0.9-7.1-1.8c-1.3-0.9-3-2.4-4.2-1.2c-1.2,1.2-4,6-4.7,7.6c-0.7,1.5-0.1-4.2,0.2-7.5
					C293.9,125.1,291.2,114.2,291.2,114.2z"/>
			</g>
		</g>
		<g>
			<path class="st20" d="M320.8,87.5c-0.9-0.8-6.5-4.6-10.3-4.2s-8.7,3.4-10.1,5.3c-1.3,1.9-2.2,3.7-2.6,5.8c-0.3,1.6-0.4,2.3-0.5,3
				c-0.3,1.1-0.2,2.5-0.4,2.7c-0.4,0.3-1.7-1.1-2.8,1c-1.1,2.2,0.1,3.7,0.5,4.4s1.1,0.4,0.9,1.4c-0.7,4.4,0.7,7.2,1.7,9.1
				c0.9,1.8,2.3,4.4,3.3,5.8c0.7,1,2.6,3.1,4.2,4.3c0.7,0.6,1.2,0.7,2.2,0.8c1.1,0.1,3.6-2.3,4.7-3.9c1.2-1.6,6.6-9.5,7.4-11
				s0.7-4,1.4-5.8c0.7-1.8,3.9-7.6,3.9-7.6C325.8,94.9,324.5,91,320.8,87.5z"/>
			<path class="st30" d="M325.7,90.8c-0.2-0.7-1.1-1.2-1.1-1.2s0.5-1.1-2.5-3.2c-2.5-1.7-3.9-2.4-6.7-3.3c-3.6-1.1-6.6-1.5-10.2-0.5
				c-4.5,1.2-7.9,4.4-8.1,8.9c-0.1,3-1.3,11.6,2.9,9.5c1.6-0.8,2.8-4,4.4-5.2c2.2-1.7,4.6-2,7.3-1.9c1.7,0.1,3.3,0.5,4.9,0.2
				c1.3-0.3,3.1-2.4,4.2-2.3c2.4,0.2,3.4,5.2,3.2,7.3C325.4,96.5,326.5,93.2,325.7,90.8z"/>
			<g>
				<path class="st31" d="M296.9,98.6c0.5,0.6,1.2,2.1,3.6,1.8c2.3-0.3,10.6-0.8,12.6-0.8s7.4,1.2,8.3,2.1c0.3,0.2,0.7,0.8,0.7,0.8
					s0.5-1,1.2-2.2c0.8-1.5,0.8-1.7-0.1-3.7s-14.5-3.7-18-2.2C301.7,96,296.9,98.6,296.9,98.6z"/>
				<path class="st21" d="M296.9,98.6c0,0-1-2.2-0.9-3.9c0.1-1.6,0.2-6.3,0.7-7.6s1.3-2.6,3.1-3.6c1.8-1.1,11.6-5.5,14.6-5.2
					s8.7,2.5,9.8,3.4c1.1,1,3.4,8.2,3.6,9.4c0.2,1.2-0.2,6.7-0.2,6.7s-6.6-4.6-10.9-5C312.5,92.5,296.9,98.6,296.9,98.6z"/>
				<path class="st32" d="M300.1,96.7c1.9-1.4,11.4-5.3,14.7-6.4c3.2-1,10.4-1.2,15,0.5c4.8,1.7,4.9,5.9,1.5,7.3
					c-3.5,1.4-7.3,2.5-8.3,2.6c0.5-1,1.5-2.4-2.1-3.8c-3.9-1.4-8.8-2.1-12.9-1.7c-2.1,0.2-7.6,1.7-9.3,2.5
					C297.1,98.7,299.8,97,300.1,96.7z"/>
				<path class="st9" d="M322.3,86.1c0.1,0,0.2,0.1,0.2,0.2s-0.1,0.2-0.2,0.2s-0.2-0.1-0.2-0.2C322.2,86.2,322.2,86.1,322.3,86.1z
					 M321.4,87.4c0.1,0,0.2,0.2,0.2,0.3c0,0.1-0.1,0.2-0.3,0.2c-0.1,0-0.2-0.2-0.2-0.3C321.2,87.5,321.3,87.4,321.4,87.4z
					 M322.4,86.8c0.2,0.3,0.6,0.9,0.7,1l0.1,0.1l1.4,0.2c0.2,0,0.4-0.2,0.3-0.4c-0.6-1.5-1.1-3-1.7-4.4c-0.1-0.3-0.4-0.3-0.5-0.1
					l-1.3,1.6l-1.2-1.9c-0.1-0.2-0.4-0.2-0.5,0l-1.9,3.9c-0.1,0.2,0.1,0.4,0.3,0.4l1.3,0.2c0.1,0,0.2,0,0.3-0.1l0.6-1.2l0.7,1.1
					c-0.1,0.1-0.1,0.2-0.1,0.3c0,0.3,0.2,0.6,0.5,0.7c0.3,0,0.6-0.2,0.6-0.5s-0.2-0.6-0.5-0.7c-0.1,0-0.1,0-0.2,0l-0.9-1.3
					c0-0.1-0.2-0.2-0.3,0c-0.2,0.4-0.4,0.8-0.5,1.1c-0.1,0.1-0.2,0.1-0.3,0.1c-0.3,0-0.8-0.1-0.8-0.1c-0.1,0-0.1-0.1-0.1-0.2
					c0.6-1.2,1.1-2.3,1.7-3.5c0-0.1,0.1-0.1,0.1,0c0,0,0,0,0.1,0.1l1.2,1.9c0.1,0.1,0.1,0.1,0.2,0l1.3-1.6c0,0,0,0,0.1,0
					s0.1,0,0.1,0.1c0.5,1.3,1,2.6,1.5,4c0.1,0.1-0.1,0.2-0.1,0.2c-0.2,0-0.7-0.1-1-0.1c-0.1,0-0.1,0-0.2-0.1s-0.5-0.6-0.6-0.9
					c0-0.1,0.1-0.1,0.1-0.2c0-0.2-0.2-0.5-0.4-0.5c-0.2,0-0.4,0.1-0.4,0.4C321.9,86.5,322.1,86.7,322.4,86.8
					C322.3,86.8,322.4,86.8,322.4,86.8z"/>
			</g>
			<path class="st25" d="M305.2,100.6c0.5,0.1,2.2,0.2,3.1,0.5c0.9,0.2,2.1,0.8,2.4,1c0.3,0.1,0,1-0.3,0.9s-1.7-0.7-2.5-0.8
				c-0.8-0.1-2.4-0.2-3-0.5C304.4,101.4,304.6,100.5,305.2,100.6z"/>
			<path class="st25" d="M316.6,103.7c0.5,0,1.9,0.4,2.5,0.8s1,0.3,0.9,0.7c-0.1,0.3-0.2,1.1-0.6,1c-0.3-0.2-0.8-0.5-1.3-0.6
				s-1.2-0.4-1.6-0.5C316,104.9,316.2,103.7,316.6,103.7z"/>
			<path class="st33" d="M306.2,112.9c0.5,0.3,5,2.4,5.4,2.5s1.2,0.5,0.9,1c-0.3,0.5-1.9,2-2.8,1.8s-3.6-1-4.2-2.1
				c-0.7-1.1-1.3-2-1.2-2.6S305.2,112.4,306.2,112.9z"/>
		</g>
	</g>
	<g>
		<path class="st24" d="M164.8,105.8c-2.1,0.6-5.8,2-7.5,2.7c-1.8,0.7-1.7,1.5-2.8,2.4c-1.1,0.9-1.7,0.7-1.6-0.9s1.8-3.2,3.3-4.1
			s2.9-2.4,4.8-2.4C162.8,103.5,164.1,104.2,164.8,105.8z"/>
		<path class="st20" d="M176.7,97.3c-2.3-0.1-3.6-2.4-5.2-3.2s-1.4-0.4-3.1-0.6s-4.8,0.5-6.6,0.6c-1.8,0.1-2.7-0.1-4.2-0.7
			s-3.8-2-4.9-2.7c-1.2-0.6-1.9-1.9-2.9-1.6c-1,0.4-0.4,1.4,0.1,2c0.6,0.7,2,1.8,2.7,2.4s1.6,1.1,2.2,1.6c0.6,0.6,0.8,0.9-0.2,1.1
			c-1,0.1-2.3-0.1-3.3-0.2c-1.1-0.1-2.6-0.4-3.5-0.2c-1,0.3-1.7,1.3-0.6,1.8c1,0.5,2.7,0.4,3.7,0.6s2.1,0.2,2.9,0.5s2.3,0,2.6,0.6
			c0.3,0.6-3,1.2-3.9,1.4c-0.9,0.2-4.4-0.3-5.3,0.4c-0.9,0.6-1.6,1.2-1.1,2.2s1.4,0.1,3,0c1.1,0,4.3-0.1,5.4-0.4s2-0.5,3-0.6
			c-1,0.6-3,1.8-3.9,2.1c-1.5,0.6-3,0.8-3.9,1.5s-1,0.8-0.9,1.7s0.6,1,1.8,0.6s3.3-1.1,5-1.5c1.2-0.3,2.9-0.6,4.4-0.7
			s3.2,0.1,4.8-0.3c1.7-0.4,3.6-1.4,5.2-2.2c1.6-0.8,3.3-1.6,5-2.3c1.6-0.7,3.3-0.7,5-1C178.8,99.4,177.7,98.4,176.7,97.3z"/>
		
			<linearGradient id="SVGID_10_" gradientUnits="userSpaceOnUse" x1="225.7145" y1="281.4497" x2="233.7071" y2="304.1486" gradientTransform="matrix(1 0 0 -1 0 390)">
			<stop  offset="0" style="stop-color:#7743C0"/>
			<stop  offset="1" style="stop-color:#8B63CD"/>
		</linearGradient>
		<path class="st34" d="M270.8,106.2c5.6,2.7,7,4.3,8.4,9.1c1.5,4.8,0.2,11.7-5.8,11.6s-9.8-1.2-16.3-4.3
			c-6.5-3.1-17.2-12.8-22.6-16.2c-3.5-2.2-6.6-6-9.7-7.6c-2.3-1.2-4.1-2-5.9-2c-1.8-0.1-27.1,4-31.2,4.5s-1.5-0.2-5.2-0.5
			c-1.7,0.5-5.3,0.2-7,0.7c-1.8-2.5-1.5-4.8-3.2-7.3c1.1-0.7,2-1.5,3.1-1.7c3.3-0.7-1.5-1.8,4.9-3s20-5.3,28-6.7
			c6.6-1.2,9.5-1.4,16.5,0.5c6.7,1.8,14.5,5.8,21.4,10.2C253.1,97.7,264,102.9,270.8,106.2z"/>
	</g>
</g>
</svg>
